<svg width="1440" height="650" viewBox="0 0 1440 650" fill="none" xmlns="http://www.w3.org/2000/svg">
<mask id="mask0_153_105" style="mask-type:alpha" maskUnits="userSpaceOnUse" x="0" y="0" width="139" height="173">
<rect width="139" height="173" fill="white"/>
</mask>
<g mask="url(#mask0_153_105)">
<path d="M9.547 13H-59V65.478H9.547C22.6272 65.478 33.2394 76.0552 33.2394 89C33.2394 101.942 22.6272 112.522 9.547 112.522H-59V165H9.547C51.6862 165 86 130.933 86 89C86 47.0665 51.6862 13 9.547 13Z" fill="#16A34A"/>
</g>
<path fill-rule="evenodd" clip-rule="evenodd" d="M572.46 533.342L605.243 510.2C586.451 483.58 549.455 477.363 522.609 496.314C495.763 515.265 489.234 552.208 508.025 578.828L540.808 555.686C534.69 547.019 536.816 534.991 545.556 528.821C554.297 522.651 566.342 524.675 572.46 533.342Z" fill="#F2A227"/>
<path d="M526.586 193.053C529.353 193.942 532.204 193.874 534.779 193.027C538.653 191.753 541.892 188.72 543.255 184.573C543.26 184.564 543.264 184.554 543.268 184.545C543.271 184.535 543.274 184.525 543.277 184.515L543.282 184.5C543.285 184.49 543.288 184.48 543.291 184.471L548.055 169.618L560.705 178.744C560.718 178.755 560.73 178.762 560.742 178.77C560.748 178.774 560.753 178.778 560.759 178.782C566.7 183.028 574.986 181.669 579.252 175.741C583.525 169.812 582.184 161.505 576.28 157.199L576.266 157.188C576.255 157.178 576.246 157.171 576.234 157.165L563.601 148.025L576.168 138.808C582.072 134.478 583.355 126.135 579.025 120.218C574.696 114.302 566.369 113.006 560.457 117.331L547.884 126.53L543 111.697C540.703 104.734 533.179 100.926 526.226 103.212C519.273 105.498 515.478 113.029 517.764 120.003L522.626 134.828L507.047 134.887C507.041 134.889 507.034 134.89 507.026 134.89C507.017 134.891 507.007 134.89 506.998 134.889C499.694 134.938 493.787 140.914 493.816 148.231C493.845 155.548 499.796 161.484 507.091 161.495C507.098 161.494 507.104 161.495 507.11 161.495L507.136 161.497L507.148 161.497L522.727 161.459L517.984 176.312C517.983 176.32 517.98 176.328 517.977 176.335C517.975 176.343 517.972 176.351 517.971 176.359C515.768 183.33 519.628 190.816 526.586 193.053Z" fill="#FF856D"/>
</svg>
