<svg width="239" height="38" viewBox="0 0 239 38" fill="none" xmlns="http://www.w3.org/2000/svg">
<path d="M2 2.32251C13.7753 2.32251 13.7753 17.4138 25.5507 17.4138C37.326 17.4138 37.326 2.32251 49.1014 2.32251C60.8767 2.32251 60.8767 17.4138 72.6244 17.4138C84.4001 17.4138 84.4001 2.32251 96.1475 2.32251C107.923 2.32251 107.923 17.4138 119.671 17.4138C131.446 17.4138 131.446 2.32251 143.221 2.32251C154.996 2.32251 154.996 17.4138 166.772 17.4138C178.547 17.4138 178.547 2.32251 190.322 2.32251C202.098 2.32251 202.098 17.4138 213.874 17.4138C225.648 17.4138 225.648 2.32251 237.424 2.32251" stroke="#FF856D" stroke-width="3" stroke-miterlimit="10" stroke-linecap="round"/>
<path d="M2 20.4321C13.7753 20.4321 13.7753 35.5233 25.5507 35.5233C37.326 35.5233 37.326 20.4321 49.1014 20.4321C60.8767 20.4321 60.8767 35.5233 72.6244 35.5233C84.4001 35.5233 84.4001 20.4321 96.1475 20.4321C107.923 20.4321 107.923 35.5233 119.671 35.5233C131.446 35.5233 131.446 20.4321 143.221 20.4321C154.996 20.4321 154.996 35.5233 166.772 35.5233C178.547 35.5233 178.547 20.4321 190.322 20.4321C202.098 20.4321 202.098 35.5233 213.874 35.5233C225.648 35.5233 225.648 20.4321 237.424 20.4321" stroke="#F2A227" stroke-width="3" stroke-miterlimit="10" stroke-linecap="round"/>
</svg>
