<svg width="63" height="56" viewBox="0 0 63 56" fill="none" xmlns="http://www.w3.org/2000/svg">
<circle cx="25.0862" cy="25.0862" r="25.0862" fill="#F2A227"/>
<path d="M16.4247 21.2474L11.4274 52.8862C11.3791 53.1919 11.4037 53.5046 11.4994 53.7989C11.595 54.0932 11.7589 54.3607 11.9778 54.5796C12.1966 54.7984 12.4641 54.9623 12.7584 55.058C13.0527 55.1536 13.3654 55.1783 13.6711 55.1299L45.3138 50.1326C46.163 49.9987 46.9446 49.5894 47.5385 48.9679C48.1324 48.3464 48.5056 47.547 48.6009 46.6926L50.2326 32.0186L34.5427 16.3286L19.8647 17.9604C19.0103 18.0556 18.2109 18.4289 17.5894 19.0228C16.9679 19.6166 16.5586 20.3983 16.4247 21.2474Z" fill="#D3FFE4"/>
<path d="M42.3875 4.56091L34.5425 16.3284L50.2324 32.0184L61.9999 24.1734L42.3875 4.56091Z" fill="#D3FFE4"/>
<path d="M34.5425 16.3284L42.3875 4.56091" stroke="#16A34A" stroke-linecap="round" stroke-linejoin="round"/>
<path d="M50.2325 32.0184L62 24.1735" stroke="#16A34A" stroke-linecap="round" stroke-linejoin="round"/>
<path d="M12.9688 53.5923L28.6588 37.9023" stroke="#16A34A" stroke-linecap="round" stroke-linejoin="round"/>
<path d="M24.7363 33.9795L32.5812 41.8245" stroke="#16A34A" stroke-linecap="round" stroke-linejoin="round"/>
<path d="M16.4247 21.2474L11.4274 52.8862C11.3791 53.1919 11.4037 53.5046 11.4994 53.7989C11.595 54.0932 11.7589 54.3607 11.9778 54.5796C12.1966 54.7984 12.4641 54.9623 12.7584 55.058C13.0527 55.1536 13.3654 55.1783 13.6711 55.1299L45.3138 50.1326C46.163 49.9987 46.9446 49.5894 47.5385 48.9679C48.1324 48.3464 48.5056 47.547 48.6009 46.6926L50.2326 32.0186L34.5427 16.3286L19.8647 17.9604C19.0103 18.0556 18.2109 18.4289 17.5894 19.0228C16.9679 19.6166 16.5586 20.3983 16.4247 21.2474Z" stroke="#16A34A" stroke-linecap="round" stroke-linejoin="round"/>
</svg>
