<svg width="59" height="53" viewBox="0 0 59 53" fill="none" xmlns="http://www.w3.org/2000/svg">
<circle cx="25.7528" cy="25.0862" r="25.0862" fill="#F2A227"/>
<path d="M16.4694 52.1344H50.6941C51.7027 52.1344 52.6699 51.7337 53.3831 51.0206C54.0962 50.3074 54.4969 49.3402 54.4969 48.3316V23.6138H12.6666V48.3316C12.6666 49.3402 13.0673 50.3074 13.7804 51.0206C14.4936 51.7337 15.4608 52.1344 16.4694 52.1344Z" fill="#D3FFE4"/>
<path d="M50.6941 14.1069H16.4694C15.4608 14.1069 14.4936 14.5076 13.7804 15.2207C13.0673 15.9339 12.6666 16.9011 12.6666 17.9097V23.6138H54.4969V17.9097C54.4969 16.9011 54.0962 15.9339 53.3831 15.2207C52.6699 14.5076 51.7027 14.1069 50.6941 14.1069Z" fill="#D3FFE4"/>
<path d="M26.2538 14.1069H16.4694C15.4608 14.1069 14.4936 14.5076 13.7804 15.2207C13.0673 15.9339 12.6666 16.9011 12.6666 17.9097V48.3317C12.6666 49.3402 13.0673 50.3075 13.7804 51.0206C14.4936 51.7338 15.4608 52.1344 16.4694 52.1344H50.6941C51.7027 52.1344 52.6699 51.7338 53.3831 51.0206C54.0962 50.3075 54.4969 49.3402 54.4969 48.3317V33.1207" stroke="#16A34A" stroke-linecap="round" stroke-linejoin="round"/>
<path d="M12.6666 23.6138H32.6311" stroke="#16A34A" stroke-linecap="round" stroke-linejoin="round"/>
<path d="M22.1735 42.6275L27.8776 36.9234L22.1735 31.2192" stroke="#16A34A" stroke-linecap="round" stroke-linejoin="round"/>
<path d="M33.5818 42.6276H39.2859" stroke="#16A34A" stroke-linecap="round" stroke-linejoin="round"/>
<path d="M35.0572 16.0577C33.7262 15.8295 33.7262 13.9092 35.0572 13.6772C37.4212 13.2665 39.6094 12.1611 41.3425 10.5017C43.0757 8.84237 44.2753 6.70439 44.7884 4.36045L44.8645 3.99539C45.1573 2.67583 47.032 2.66443 47.3363 3.98398L47.4313 4.40989C47.9635 6.74391 49.1737 8.86856 50.9099 10.5168C52.646 12.165 54.8307 13.2632 57.1892 13.6734C58.5277 13.9054 58.5277 15.8295 57.1892 16.0653C54.8312 16.4752 52.6469 17.5729 50.9108 19.2204C49.1746 20.8679 47.9641 22.9917 47.4313 25.325L47.3325 25.7547C47.032 27.0705 45.1573 27.0629 44.8683 25.7433L44.7884 25.3744C44.2753 23.0305 43.0757 20.8925 41.3425 19.2332C39.6094 17.5738 37.4212 16.4683 35.0572 16.0577Z" fill="#D3FFE4"/>
<path d="M35.0572 16.0577C33.7262 15.8295 33.7262 13.9092 35.0572 13.6772C37.4212 13.2665 39.6094 12.1611 41.3425 10.5017C43.0757 8.84237 44.2753 6.70439 44.7884 4.36045L44.8645 3.99539C45.1573 2.67583 47.032 2.66443 47.3363 3.98398L47.4313 4.40989C47.9635 6.74391 49.1737 8.86856 50.9099 10.5168C52.646 12.165 54.8307 13.2632 57.1892 13.6734C58.5277 13.9054 58.5277 15.8295 57.1892 16.0653C54.8312 16.4752 52.6469 17.5729 50.9108 19.2204C49.1746 20.8679 47.9641 22.9917 47.4313 25.325L47.3325 25.7547C47.032 27.0705 45.1573 27.0629 44.8683 25.7433L44.7884 25.3744C44.2753 23.0305 43.0757 20.8925 41.3425 19.2332C39.6094 17.5738 37.4212 16.4683 35.0572 16.0577Z" stroke="#16A34A" stroke-linecap="round" stroke-linejoin="round"/>
</svg>
