<svg width="1440" height="540" viewBox="0 0 1440 540" fill="none" xmlns="http://www.w3.org/2000/svg">
<mask id="mask0_206_314" style="mask-type:alpha" maskUnits="userSpaceOnUse" x="0" y="0" width="1440" height="540">
<rect width="1440" height="540" fill="white"/>
</mask>
<g mask="url(#mask0_206_314)">
<path d="M141.781 477.166C138.149 480.782 129.926 475.28 132.848 466.443C134.807 457.89 149.761 450.52 163.191 459.33C176.709 466.902 183.196 491.301 168.581 509.334C155.429 527.755 121.651 533.359 98.9601 512.841C75.6283 494.081 70.7642 450.8 97.1146 423.552C121.415 395.28 174.125 391.435 206.012 423.655C239.233 453.622 242.343 515.747 204.315 552.226C168.832 590.323 97.2638 592.487 56.1403 548.515C13.036 507.348 11.661 426.34 61.3816 380.661C108.063 332.705 198.451 332.289 248.832 387.98C301.748 440.328 301.506 540.226 240.048 595.117C182.213 652.92 72.9103 651.598 13.3205 584.188C-49.4849 520.635 -47.4914 401.886 25.6483 337.77C94.6709 270.151 222.82 273.154 291.652 352.306C364.323 427.04 360.618 564.7 275.781 638.008C195.576 715.508 48.5691 710.71 -29.5008 619.863C-112.005 533.935 -106.653 377.407 -10.0851 294.878C81.2956 207.56 247.178 214.049 334.473 316.632" stroke="white" stroke-width="3" stroke-linecap="round"/>
<path d="M569.586 109.46C572.353 110.349 575.204 110.281 577.779 109.434C581.653 108.16 584.892 105.127 586.255 100.98C586.26 100.971 586.264 100.961 586.268 100.952C586.271 100.942 586.274 100.932 586.277 100.922L586.282 100.907C586.285 100.897 586.288 100.887 586.291 100.878L591.055 86.0245L603.705 95.1513C603.718 95.1615 603.73 95.1686 603.742 95.177C603.748 95.1808 603.753 95.1848 603.759 95.1894C609.7 99.4347 617.986 98.0758 622.252 92.1482C626.525 86.2188 625.184 77.9115 619.28 73.6058L619.266 73.5946C619.255 73.5851 619.246 73.5782 619.234 73.5719L606.601 64.4322L619.168 55.215C625.072 50.8854 626.355 42.542 622.025 36.6253C617.696 30.7088 609.369 29.4127 603.457 33.7381L590.884 42.9365L586 28.1043C583.703 21.1413 576.179 17.3328 569.226 19.6191C562.273 21.9054 558.478 29.4359 560.764 36.4095L565.626 51.2353L550.047 51.2942C550.041 51.296 550.034 51.2971 550.026 51.2974C550.017 51.2979 550.007 51.2973 549.998 51.2961C542.694 51.3447 536.787 57.3214 536.816 64.6383C536.845 71.9549 542.796 77.8913 550.091 77.9016C550.098 77.9015 550.104 77.9019 550.11 77.9024L550.136 77.9037L550.148 77.9039L565.727 77.8658L560.984 92.7194C560.983 92.7267 560.98 92.7346 560.977 92.7424C560.975 92.7503 560.972 92.7582 560.971 92.7655C558.768 99.7373 562.628 107.223 569.586 109.46Z" fill="#FF856D"/>
<path fill-rule="evenodd" clip-rule="evenodd" d="M607.46 435.749L640.243 412.607C621.451 385.987 584.455 379.77 557.609 398.721C530.763 417.672 524.234 454.615 543.025 481.235L575.808 458.093C569.69 449.426 571.816 437.398 580.556 431.228C589.297 425.058 601.342 427.082 607.46 435.749Z" fill="#16A34A"/>
</g>
</svg>
