<svg width="1440" height="625" viewBox="0 0 1440 625" fill="none" xmlns="http://www.w3.org/2000/svg">
<mask id="mask0_206_84" style="mask-type:alpha" maskUnits="userSpaceOnUse" x="0" y="0" width="1440" height="625">
<rect width="1440" height="625" fill="white"/>
</mask>
<g mask="url(#mask0_206_84)">
<path d="M1328.68 172.31C1329.17 177.866 1318.84 180.908 1313.49 172.31C1307.71 164.716 1311.96 147.08 1328.68 141.989C1344.42 135.961 1369.34 147.532 1374.24 172.31C1380.48 196.136 1361.64 228.278 1328.68 232.957C1296.74 239.396 1257.17 213.318 1252.75 172.31C1246.04 132.304 1279.53 85.56 1328.68 81.3425C1376.87 74.4411 1430.97 115.111 1434.98 172.31C1442.12 228.508 1394.08 289.848 1328.68 293.601C1264.24 300.965 1195.56 245.692 1192 172.31C1184.42 99.8831 1247.03 24.0281 1328.68 20.6976C1409.3 12.9196 1492.65 82.6991 1495.73 172.31C1503.77 260.921 1426.54 351.379 1328.68 354.246C1231.8 362.487 1133.92 278.113 1131.25 172.31C1122.8 67.5104 1214.56 -37.5317 1328.68 -39.9477C1441.77 -48.6498 1554.28 50.327 1556.48 172.31C1565.4 293.341 1459 412.899 1328.68 414.892C1199.38 424.018 1072.24 310.523 1070.51 172.31C1061.16 35.0984 1182.12 -99.0625 1328.68 -100.593" stroke="white" stroke-width="3" stroke-linecap="round"/>
<path d="M-4.94372 134.407H-82V193.445H-4.94372C9.76027 193.445 21.6898 205.344 21.6898 219.907C21.6898 234.467 9.76027 246.369 -4.94372 246.369H-82V305.407H-4.94372C42.4265 305.407 81 267.082 81 219.907C81 172.732 42.4265 134.407 -4.94372 134.407Z" fill="#F2A227"/>
</g>
</svg>
