<svg width="79" height="63" viewBox="0 0 79 63" fill="none" xmlns="http://www.w3.org/2000/svg">
<path d="M76.7727 20.4976C76.4358 34.6874 68.1915 54.0564 55.5016 61.5067C55.0234 50.6326 53.7897 43.6273 47.8714 34.0461C43.1487 26.405 37.7249 18.5465 37.225 9.27505C37.1489 7.80227 37.2086 6.26968 37.8336 4.93276C39.2466 1.88937 43.2737 0.764416 46.4801 1.73721C49.692 2.70458 52.1701 5.26431 54.1375 7.98162C58.4471 13.9434 60.9906 21.166 61.3601 28.5082C61.1645 24.0572 61.0395 19.2856 63.409 15.5086C65.7785 11.7261 71.6587 9.8674 74.7619 13.0738C76.5934 14.9705 76.8379 17.8618 76.7727 20.4976Z" fill="#FF856D"/>
<path d="M75.5281 20.4977C75.4955 21.9215 75.3814 23.3454 75.2129 24.7639C75.1912 24.9323 75.164 25.1008 75.1477 25.2693C75.1858 24.8888 75.1531 25.1986 75.1423 25.2856C75.126 25.3943 75.1151 25.4975 75.0988 25.6008C75.0444 25.9703 74.9847 26.3345 74.9249 26.704C74.7944 27.4649 74.6531 28.2203 74.4901 28.9757C73.8325 32.0734 72.9195 35.1223 71.7891 38.0787C71.6424 38.47 71.4902 38.8613 71.3326 39.2471C71.262 39.4211 71.1913 39.595 71.1206 39.7634C71.0826 39.8613 71.0446 39.9537 71.0011 40.046C71.1152 39.7852 71.0065 40.0406 70.9576 40.1439C70.6369 40.8884 70.3055 41.6275 69.9577 42.3558C69.2566 43.8231 68.5012 45.2633 67.6805 46.6708C66.8708 48.0567 66.0012 49.4044 65.0719 50.7087C64.8436 51.0294 64.61 51.3446 64.3709 51.6598C64.322 51.725 64.273 51.7902 64.2187 51.8609C64.1969 51.8881 63.9959 52.1489 64.1154 51.9968C64.235 51.8446 64.0339 52.1 64.0067 52.1326C63.9415 52.225 63.8709 52.312 63.8002 52.3989C63.322 52.9968 62.822 53.5891 62.3111 54.1652C61.3057 55.2961 60.2297 56.3733 59.0884 57.3733C58.8112 57.6157 58.5341 57.8531 58.246 58.0862C58.1047 58.202 57.9634 58.3162 57.8221 58.4292C57.7515 58.4841 57.67 58.5352 57.6048 58.5977C57.5993 58.6015 57.8113 58.4412 57.7026 58.5221C57.6537 58.5602 57.5993 58.6004 57.5504 58.6395C56.9743 59.0727 56.3819 59.4851 55.7787 59.8743C55.4798 60.0661 55.1754 60.2519 54.8711 60.4324C55.4961 60.7905 56.1211 61.1487 56.746 61.5068C56.5939 58.1439 56.3602 54.782 55.8385 51.4533C55.382 48.5132 54.67 45.6165 53.6266 42.8285C52.4418 39.6384 50.8875 36.595 49.1159 33.6929C47.3007 30.7256 45.3986 27.8127 43.6975 24.7802C42.8443 23.2639 42.0454 21.7204 41.328 20.139C41.2357 19.9433 41.1487 19.7422 41.0617 19.5411C41.0237 19.4488 40.9802 19.3564 40.9421 19.264C40.9313 19.2423 40.8661 19.0846 40.9259 19.2259C40.9856 19.3727 40.9041 19.1716 40.8933 19.1444C40.7248 18.7423 40.5672 18.3401 40.4096 17.9325C40.1052 17.1173 39.8226 16.2913 39.5781 15.4598C39.339 14.6391 39.127 13.8131 38.9531 12.9761C38.8661 12.5468 38.7846 12.1175 38.7194 11.6827C38.7031 11.5849 38.6868 11.4816 38.6705 11.3838C38.6651 11.3349 38.6596 11.286 38.6487 11.2316C38.6216 11.0469 38.6759 11.449 38.6542 11.2642C38.627 11.0414 38.5998 10.824 38.5781 10.6066C38.4803 9.7045 38.4205 8.7969 38.4477 7.89475C38.4586 7.6828 38.4694 7.47087 38.4912 7.26435C38.4966 7.1611 38.502 7.04698 38.5237 6.94916C38.4694 7.19371 38.5346 6.90021 38.5509 6.80782C38.5944 6.585 38.6433 6.36217 38.7031 6.14479C38.7357 6.04696 38.7629 5.94371 38.8009 5.84588C38.8172 5.79697 38.8335 5.7481 38.8498 5.69919C38.8607 5.67202 38.9422 5.46546 38.8879 5.60132C38.8335 5.73176 38.9368 5.49267 38.9585 5.45463C38.9966 5.36768 39.04 5.28616 39.0835 5.21007C39.1704 5.06334 39.2574 4.92202 39.3552 4.78072C39.377 4.74267 39.5346 4.53615 39.415 4.68832C39.2955 4.84049 39.4585 4.63941 39.4857 4.6068C39.5998 4.47093 39.7248 4.33506 39.8498 4.21549C39.9639 4.1068 40.0781 4.00359 40.1922 3.90576C40.4096 3.72099 40.04 4.009 40.2139 3.884C40.29 3.83509 40.3607 3.78076 40.4367 3.73184C40.7139 3.54163 41.0074 3.37315 41.3117 3.23185C41.3823 3.19381 41.453 3.16664 41.5237 3.13404C41.6432 3.07425 41.4096 3.18292 41.4096 3.18292C41.4259 3.18835 41.5019 3.14488 41.5183 3.13945C41.6813 3.07967 41.8389 3.01988 42.0019 2.96553C42.3334 2.86227 42.6704 2.78622 43.0073 2.72644C43.0888 2.71013 43.1704 2.70471 43.2465 2.68297C43.2519 2.68297 42.9747 2.72098 43.116 2.70468C43.1649 2.69924 43.2193 2.69384 43.2736 2.68297C43.4475 2.66667 43.6214 2.65577 43.7953 2.65033C44.1431 2.63403 44.491 2.63948 44.8388 2.67209C44.9203 2.67753 44.9964 2.68293 45.0779 2.6938C45.3116 2.71554 44.8279 2.65032 45.0616 2.6938C45.2464 2.72097 45.4312 2.7536 45.6159 2.79708C45.9637 2.87316 46.3061 2.9764 46.6431 3.1014C46.7464 3.134 46.8496 3.17751 46.9529 3.21555C47.1757 3.30251 46.7844 3.13944 47.0018 3.23726C47.1865 3.31878 47.3713 3.40578 47.5507 3.49817C47.9148 3.68294 48.268 3.88942 48.605 4.1068C48.7626 4.21006 48.9202 4.31877 49.0724 4.42747C49.1593 4.49268 49.2517 4.55788 49.3387 4.62309C49.3604 4.6394 49.4854 4.73726 49.3604 4.63944C49.23 4.54161 49.3984 4.67201 49.4202 4.68832C49.7408 4.94375 50.056 5.2155 50.3549 5.4981C50.9473 6.05243 51.5017 6.65025 52.0234 7.27523C52.1592 7.43284 52.2897 7.59584 52.4201 7.75888C52.4799 7.83497 52.5396 7.91108 52.5994 7.98173C52.6864 8.09586 52.556 7.92736 52.5505 7.92192C52.594 7.9654 52.6266 8.02517 52.6647 8.07408C52.9201 8.41646 53.1755 8.75888 53.4201 9.11213C53.9309 9.8458 54.4146 10.5957 54.8766 11.362C55.3222 12.1174 55.7461 12.8837 56.1428 13.6663C56.3493 14.0631 56.5395 14.4652 56.7297 14.8674C56.8167 15.0576 56.9037 15.2424 56.9852 15.4326C57.0341 15.5413 57.083 15.6554 57.1319 15.7641C57.1537 15.8076 57.1754 15.8565 57.1917 15.9054C57.2026 15.9272 57.2895 16.1336 57.2297 15.9923C57.1754 15.8619 57.2895 16.1337 57.3058 16.1771C57.3493 16.275 57.3873 16.3673 57.4254 16.4652C57.5123 16.688 57.6048 16.9108 57.6863 17.1391C57.8493 17.5521 57.996 17.976 58.1427 18.3999C58.4253 19.2259 58.6808 20.0683 58.9091 20.9107C59.1373 21.7748 59.3384 22.6444 59.5123 23.5248C59.5938 23.965 59.6753 24.4052 59.746 24.8454C59.7786 25.0465 59.8058 25.253 59.8384 25.4541C59.8492 25.5628 59.8927 25.753 59.8492 25.5356C59.871 25.6497 59.8764 25.7747 59.8927 25.8888C59.996 26.7638 60.072 27.6333 60.1155 28.5083C60.1536 29.1604 60.6644 29.7854 61.3601 29.7528C62.0122 29.7257 62.6372 29.2094 62.6046 28.5083C62.5503 27.2311 62.5013 25.954 62.5122 24.6769C62.5176 24.0519 62.534 23.4269 62.5774 22.8074C62.5937 22.5194 62.6155 22.2367 62.6481 21.9541C62.6644 21.7911 62.6807 21.6227 62.7024 21.4596C62.7079 21.3944 62.7133 21.3237 62.7241 21.2585C62.6698 21.5792 62.7296 21.2422 62.7405 21.1987C62.9253 19.9759 63.235 18.7857 63.6861 17.639C63.7622 17.4542 63.5611 17.9108 63.6969 17.6173C63.7241 17.5575 63.7513 17.4978 63.7785 17.438C63.8382 17.3076 63.9035 17.1716 63.9687 17.0412C64.1154 16.7641 64.2676 16.4869 64.4306 16.2206C64.5556 16.0195 64.6915 15.8239 64.8273 15.6337C64.9795 15.4163 64.6806 15.8022 64.7948 15.6717C64.8382 15.6228 64.8763 15.5739 64.9143 15.525C65.0013 15.4272 65.0828 15.3294 65.1697 15.237C65.3273 15.0631 65.4904 14.9 65.6588 14.7424C65.7458 14.6609 65.8328 14.5848 65.9197 14.5087C66.0067 14.4326 66.186 14.3348 66.2512 14.2424C66.2349 14.2587 66.0121 14.4163 66.186 14.2913C66.224 14.2641 66.2675 14.2315 66.311 14.1989C66.4142 14.1283 66.523 14.0522 66.6316 13.9815C66.8382 13.8457 67.0447 13.7207 67.262 13.6011C67.4577 13.4979 67.6534 13.4001 67.849 13.3077C67.9088 13.2805 67.9686 13.2533 68.0284 13.2262C68.186 13.1501 67.7294 13.3457 67.9794 13.2479C68.099 13.2044 68.2186 13.1555 68.3381 13.112C68.7892 12.9544 69.2566 12.8294 69.7294 12.7479C69.7783 12.737 69.8272 12.7316 69.8761 12.7207C70.0881 12.6881 69.7892 12.737 69.7674 12.737C69.887 12.737 70.0174 12.7099 70.137 12.699C70.3652 12.6827 70.5989 12.6773 70.8326 12.6827C71.05 12.6827 71.262 12.7099 71.4793 12.7262C71.6533 12.7425 71.1478 12.6718 71.3978 12.7153C71.4467 12.7261 71.4956 12.7316 71.5391 12.7424C71.6587 12.7642 71.7728 12.7914 71.8869 12.8186C72.0935 12.8729 72.3 12.9327 72.501 13.0088C72.5337 13.0196 72.7565 13.112 72.55 13.0251C72.3435 12.9381 72.5608 13.0359 72.5934 13.0468C72.7021 13.1011 72.8108 13.1555 72.9141 13.2098C73.1043 13.3185 73.2836 13.4381 73.463 13.5631C73.6315 13.6826 73.3923 13.5196 73.3815 13.5033C73.4086 13.5468 73.4847 13.5848 73.5227 13.6174C73.6314 13.7098 73.7293 13.8022 73.8271 13.9C73.9304 14.0033 74.0282 14.112 74.126 14.2261C74.1586 14.2641 74.213 14.3185 74.2401 14.362C74.0934 14.1011 74.2184 14.3348 74.2619 14.4C74.4412 14.6609 74.6043 14.9272 74.7401 15.2098C74.7727 15.275 74.8053 15.3456 74.8379 15.4108C74.876 15.4978 75.0281 15.6826 74.8542 15.4435C74.9358 15.5576 74.9684 15.7423 75.0119 15.8728C75.1151 16.1717 75.1966 16.4815 75.2673 16.7967C75.3053 16.9597 75.3379 17.1282 75.3651 17.2912C75.376 17.351 75.3868 17.4162 75.3977 17.476C75.414 17.5792 75.3923 17.8021 75.4086 17.514C75.3923 17.8292 75.4792 18.1771 75.501 18.4923C75.5445 19.1607 75.5445 19.8292 75.5281 20.4977C75.5173 21.1498 76.1151 21.7748 76.7726 21.7422C77.4628 21.715 78.0063 21.1987 78.0172 20.4977C78.077 17.9597 77.8759 15.112 76.3053 12.9979C75.5716 12.0088 74.6477 11.2316 73.5065 10.7479C72.5174 10.3295 71.4304 10.1501 70.3544 10.1991C68.0555 10.3023 65.8599 11.2751 64.1317 12.775C62.2133 14.4326 61.1046 16.8782 60.5612 19.3183C59.8927 22.3346 59.9796 25.4432 60.1155 28.5083C60.947 28.5083 61.7785 28.5083 62.6046 28.5083C62.4144 24.8127 61.7188 21.1389 60.5123 17.639C59.3058 14.1446 57.6373 10.7969 55.507 7.76976C53.4472 4.8405 50.9419 2.10147 47.5289 0.780852C44.5671 -0.365855 41.0508 0.0634701 38.5509 2.04711C35.4803 4.49269 35.763 8.75345 36.301 12.2479C36.8553 15.8239 38.127 19.2423 39.6922 22.4922C41.2465 25.7204 43.1215 28.78 45.0127 31.818C46.8768 34.807 48.7463 37.7798 50.2028 40.9971C50.2843 41.1764 50.3658 41.3558 50.4419 41.5406C50.4799 41.6221 50.518 41.709 50.556 41.7905C50.5723 41.834 50.5886 41.8775 50.6049 41.9155C50.6701 42.0623 50.6104 41.9481 50.5886 41.8721C50.6864 42.247 50.8984 42.6274 51.0397 42.9916C51.3114 43.7035 51.5669 44.4154 51.806 45.1382C52.2734 46.5893 52.6592 48.0567 52.9744 49.5458C53.132 50.2957 53.2679 51.0512 53.3929 51.812C53.4527 52.187 53.5125 52.5674 53.5614 52.9478C53.5722 52.9967 53.6157 53.3337 53.5885 53.1326C53.5614 52.9478 53.5994 53.2359 53.6103 53.2794C53.6375 53.4913 53.6592 53.6978 53.6864 53.9098C53.882 55.5521 54.0179 57.2037 54.1157 58.8563C54.1701 59.7395 54.2135 60.6232 54.257 61.5068C54.295 62.434 55.2842 63.0775 56.1265 62.5818C58.7732 61.0232 61.1644 59.0237 63.2731 56.795C65.5176 54.4206 67.4794 51.774 69.1913 48.9914C70.9522 46.1274 72.4358 43.1003 73.7021 39.9862C74.9194 36.9809 75.914 33.8831 76.6477 30.7202C77.3487 27.7094 77.827 24.6226 77.9791 21.5303C78.0009 21.1879 78.0118 20.8455 78.0172 20.4977C78.0335 19.8455 77.4357 19.2259 76.7726 19.2531C76.0879 19.2857 75.5499 19.802 75.5281 20.4977Z" fill="#1F1F1F"/>
<path d="M26.7758 32.3071C24.3519 37.307 22.2395 42.8286 19.2097 47.448C12.1702 43.2307 7.12144 38.0896 3.61284 30.867C1.26454 26.0301 -0.465303 19.0466 4.12696 16.2532C7.39861 14.2587 11.9164 16.3022 13.9343 19.5575C15.9522 22.8129 16.1407 26.8399 16.2712 30.6659C16.3505 27.666 17.2527 24.503 19.5532 22.5737C21.8548 20.6499 25.7758 20.5412 27.598 22.927C29.611 25.5628 28.2219 29.3235 26.7758 32.3071Z" fill="#16A34A"/>
<path d="M25.7019 31.6767C23.7807 35.6439 22.1324 39.7471 20.0298 43.622C19.4396 44.7143 18.8129 45.7795 18.1352 46.8175C18.7031 46.6654 19.2706 46.5186 19.8385 46.3719C18.8945 45.8067 17.9668 45.2143 17.0614 44.5893C16.6326 44.2904 16.2092 43.9861 15.7907 43.6763C15.5967 43.535 15.3978 43.3937 15.2109 43.2415C15.4538 43.4372 15.1701 43.2089 15.1054 43.16C14.9875 43.0622 14.8696 42.9698 14.7528 42.8774C13.1658 41.6003 11.674 40.209 10.3115 38.6982C9.96916 38.3177 9.63443 37.9265 9.30889 37.5352C9.1502 37.3395 8.99366 37.1493 8.83877 36.9537C8.76649 36.8613 8.69856 36.7635 8.62139 36.6765C8.64422 36.6983 8.78824 36.8939 8.65509 36.7145C8.61053 36.6602 8.56542 36.6004 8.5214 36.5407C7.90511 35.7255 7.32359 34.8777 6.7785 34.0136C6.21928 33.1223 5.69812 32.2092 5.21281 31.2799C4.97368 30.8234 4.74216 30.3614 4.5226 29.8941C4.43456 29.7039 4.34812 29.5136 4.26334 29.3234C4.22095 29.231 4.17914 29.1332 4.13729 29.0354C4.11936 28.9919 4.10085 28.9321 4.0753 28.8887C4.24758 29.1658 4.11447 28.9811 4.07806 28.8941C3.72318 28.03 3.41067 27.1496 3.15253 26.2529C3.02156 25.7964 2.90468 25.3399 2.80522 24.8779C2.76066 24.666 2.71939 24.4595 2.68135 24.2475C2.66287 24.1443 2.64545 24.041 2.6286 23.9323C2.6199 23.8834 2.61178 23.829 2.60472 23.7801C2.59656 23.7258 2.58896 23.6714 2.58189 23.6225C2.5895 23.6823 2.59762 23.7367 2.60578 23.7965C2.61067 23.5845 2.5531 23.3508 2.53625 23.1388C2.51832 22.9214 2.50526 22.7041 2.4982 22.4867C2.48461 22.0573 2.49384 21.6226 2.53243 21.1878C2.54167 21.0846 2.56448 20.9704 2.56719 20.8672C2.56665 20.8835 2.51832 21.1878 2.55201 20.9813C2.56017 20.9378 2.56668 20.8889 2.57484 20.84C2.60962 20.6335 2.65254 20.4269 2.70417 20.2204C2.74928 20.0411 2.80145 19.8618 2.86068 19.6878C2.89057 19.6009 2.92154 19.5139 2.95414 19.427C2.97045 19.389 2.99221 19.3455 3.00525 19.302C2.8971 19.6498 2.94766 19.4378 2.98896 19.3509C3.152 18.9976 3.35254 18.6716 3.57536 18.3564C3.71557 18.1553 3.41718 18.5412 3.52696 18.4162C3.55739 18.3836 3.58458 18.3455 3.61447 18.3129C3.67425 18.2422 3.73618 18.1716 3.79922 18.1064C3.94432 17.9488 4.09815 17.8075 4.2601 17.6716C4.29651 17.639 4.33456 17.6118 4.37097 17.5792C4.49814 17.4651 4.1112 17.764 4.32098 17.6173C4.40195 17.5629 4.48183 17.5031 4.56389 17.4488C4.76171 17.3183 4.96661 17.1988 5.17911 17.0955C5.22693 17.0683 5.27531 17.0466 5.32367 17.0249C5.48617 16.9488 5.28943 17.0847 5.24486 17.0575C5.28453 17.0793 5.48669 16.9706 5.53995 16.9488C5.76168 16.8782 5.98887 16.8184 6.21821 16.7694C6.2693 16.764 6.3209 16.7531 6.3709 16.7423C6.58231 16.7042 6.29644 16.7586 6.27144 16.7531C6.36601 16.764 6.48505 16.7314 6.5807 16.726C6.81493 16.7097 7.04915 16.7042 7.28338 16.7151C7.40131 16.7205 7.51871 16.7314 7.6361 16.7423C7.68827 16.7477 7.74097 16.7532 7.79314 16.7586C7.96053 16.7749 7.5312 16.7151 7.6975 16.7477C7.93282 16.7912 8.16758 16.8347 8.40018 16.8945C8.62137 16.9488 8.83987 17.0194 9.05563 17.0955C9.15726 17.1336 9.25888 17.1716 9.35942 17.2097C9.43604 17.2423 9.53768 17.3184 9.28878 17.1825C9.35834 17.2205 9.44041 17.2477 9.51269 17.2803C9.93659 17.4814 10.3447 17.7151 10.7322 17.9759C10.8235 18.0412 10.9148 18.1064 11.0039 18.1716C11.036 18.1934 11.1088 18.2368 11.1371 18.2694C10.9936 18.0955 11.005 18.1662 11.0816 18.226C11.2751 18.389 11.4648 18.5466 11.6463 18.7205C11.817 18.8835 11.9816 19.052 12.1398 19.2259C12.2131 19.3074 12.2854 19.389 12.3566 19.4759C12.4006 19.5303 12.443 19.5792 12.487 19.6335C12.6316 19.8128 12.38 19.4868 12.468 19.6118C12.7767 20.0466 13.0582 20.4922 13.3044 20.9704C13.4261 21.2041 13.5386 21.4487 13.6462 21.6878C13.7424 21.9052 13.6582 21.6987 13.637 21.6661C13.668 21.715 13.6887 21.7965 13.7109 21.8508C13.7718 22.0084 13.8289 22.1606 13.8837 22.3182C14.2658 23.4052 14.5131 24.541 14.6805 25.6768C14.6908 25.742 14.7 25.8127 14.7092 25.8779C14.7364 26.0627 14.6837 25.6605 14.7049 25.8507C14.7228 26.0029 14.7424 26.1496 14.7592 26.3018C14.7924 26.6061 14.8217 26.9105 14.8473 27.2148C14.8951 27.7909 14.9299 28.3669 14.9581 28.943C14.9864 29.5191 15.0066 30.0952 15.0267 30.6658C15.0489 31.3179 15.5831 31.943 16.2712 31.9103C16.9619 31.8832 17.4951 31.3669 17.5157 30.6658C17.5293 30.2147 17.5581 29.7637 17.6086 29.3126C17.619 29.2256 17.6195 28.8506 17.6222 29.1876C17.6217 29.0843 17.6543 28.9756 17.6706 28.8724C17.7108 28.6332 17.757 28.3941 17.8091 28.155C17.907 27.7148 18.0276 27.2746 18.1733 26.8453C18.2075 26.7474 18.2423 26.6496 18.2793 26.5518C18.3075 26.4703 18.4146 26.2964 18.4102 26.2149C18.4108 26.2203 18.3141 26.4322 18.3717 26.3072C18.3967 26.2529 18.42 26.1985 18.445 26.1442C18.501 26.0192 18.5586 25.8997 18.6189 25.7801C18.8206 25.3834 19.0488 25.0029 19.3064 24.6388C19.3418 24.5899 19.5281 24.3562 19.4211 24.4812C19.3037 24.6225 19.5167 24.3671 19.5477 24.3345C19.702 24.1551 19.8645 23.9812 20.0341 23.8127C20.1912 23.6606 20.3607 23.5301 20.5227 23.3834C20.6194 23.2964 20.427 23.4595 20.4232 23.4595C20.439 23.4595 20.5254 23.3834 20.5477 23.3671C20.6319 23.3073 20.7178 23.253 20.8047 23.1986C20.9688 23.0954 21.1374 22.9975 21.3107 22.9106C21.3911 22.8671 21.4737 22.8345 21.5558 22.791C21.7493 22.6987 21.4949 22.8291 21.4726 22.8236C21.5232 22.8291 21.608 22.7747 21.6536 22.753C22.0183 22.6171 22.3955 22.5139 22.7786 22.4432C22.8628 22.4269 22.965 22.4269 23.047 22.3997C22.7927 22.4813 22.8416 22.4215 22.9465 22.416C22.9981 22.4106 23.0498 22.4052 23.1014 22.3997C23.2932 22.3834 23.4862 22.378 23.6785 22.378C23.8709 22.378 24.0595 22.3943 24.2514 22.4106C24.4753 22.4269 23.9785 22.3617 24.2584 22.4106C24.3704 22.4269 24.4818 22.4486 24.5921 22.4758C24.7628 22.5138 24.9318 22.5573 25.097 22.6117C25.1682 22.6388 25.3046 22.7149 25.3769 22.7149C25.3796 22.7149 25.134 22.6008 25.2508 22.6606C25.3057 22.6932 25.3639 22.7149 25.4187 22.7421C25.5736 22.8182 25.7247 22.8997 25.8698 22.9921C25.9247 23.0301 26.053 23.1497 26.1144 23.1606C26.0937 23.1606 25.8796 22.9649 26.0383 23.1062C26.0752 23.1334 26.1143 23.166 26.1513 23.1986C26.2926 23.3236 26.4252 23.4595 26.5486 23.6008C26.5736 23.628 26.5975 23.6606 26.6225 23.6878C26.7616 23.8454 26.591 23.6334 26.5785 23.628C26.6584 23.6769 26.7301 23.8453 26.7812 23.9269C26.8437 24.0301 26.9029 24.1334 26.9573 24.2366C26.985 24.291 27.1296 24.5573 27.0442 24.4051C26.9551 24.2421 27.0899 24.5247 27.1084 24.579C27.1513 24.6986 27.1882 24.8236 27.2219 24.9486C27.2469 25.0464 27.2697 25.1442 27.2904 25.2475C27.3138 25.3616 27.3084 25.6659 27.3143 25.3399C27.3105 25.5572 27.3556 25.7801 27.3594 25.9975C27.3633 26.2529 27.354 26.5083 27.3323 26.7583C27.3268 26.8181 27.3209 26.8779 27.3143 26.9377C27.3105 26.9811 27.2839 27.242 27.3029 27.0464C27.3198 26.8724 27.3046 27.03 27.2986 27.0626C27.2855 27.1387 27.273 27.2148 27.2595 27.2909C27.1633 27.8181 27.0263 28.3398 26.8643 28.8452C26.6991 29.3669 26.5024 29.8778 26.297 30.3832C26.2291 30.5517 26.3834 30.1876 26.3106 30.3506C26.278 30.4212 26.2475 30.4973 26.2155 30.568C26.1644 30.6875 26.1127 30.8017 26.06 30.9158C25.9437 31.1712 25.8236 31.4267 25.7019 31.6767C25.4187 32.2636 25.5225 33.0462 26.1481 33.3777C26.7051 33.6712 27.5486 33.557 27.8507 32.932C28.8181 30.9321 29.6925 28.8234 29.8338 26.5789C29.9751 24.367 29.1034 22.1986 27.2496 20.9269C25.6502 19.8291 23.5008 19.6661 21.6607 20.1444C19.6303 20.6661 17.9918 22.0302 16.8858 23.7856C15.6038 25.8236 15.0962 28.2909 15.0267 30.6658C15.8565 30.6658 16.6858 30.6658 17.5157 30.6658C17.3538 25.9377 17.0706 20.3998 13.3762 16.9325C11.7653 15.4217 9.6947 14.4054 7.479 14.2369C5.40461 14.0848 3.27261 14.9271 1.89928 16.4977C-0.791409 19.5846 -0.171291 24.1442 1.00368 27.7311C2.3444 31.8234 4.60087 35.6439 7.29808 38.9862C10.0534 42.3992 13.4452 45.2524 17.1261 47.6164C17.6065 47.9262 18.0923 48.2251 18.5814 48.5185C19.1798 48.8772 19.9195 48.6327 20.2847 48.0729C22.696 44.3828 24.4514 40.3232 26.2703 36.3233C26.7861 35.1874 27.3078 34.057 27.8507 32.932C28.1339 32.3451 28.0301 31.5625 27.4046 31.231C26.8464 30.9375 26.0041 31.0517 25.7019 31.6767Z" fill="#1F1F1F"/>
</svg>
