<svg width="107" height="63" viewBox="0 0 107 63" fill="none" xmlns="http://www.w3.org/2000/svg">
<path d="M7.4178 43.7395C6.87486 43.1259 6.56405 42.3434 6.30068 41.5671C5.87351 40.3094 5.54126 39.0197 5.30857 37.7116C5.59335 40.8789 3.71044 44.1267 0.821533 45.4539L0.972598 45.5877C2.536 45.2351 4.17466 46.2301 4.98386 47.6141C5.79421 48.9975 5.92154 50.6767 5.82951 52.2771C6.00547 50.8005 6.18548 49.3048 6.73189 47.9215C7.27714 46.5381 8.23858 45.2565 9.59418 44.6453C8.78498 44.7761 7.96247 44.3536 7.4178 43.7395Z" fill="#FFC055"/>
<path d="M1.22328 46.1416C3.64276 45.0193 5.44464 42.6171 5.96095 40.0124C6.11087 39.2559 6.17164 38.4809 6.10566 37.7116C5.58356 37.7822 5.06204 37.8529 4.54052 37.9235C4.7732 39.2195 5.09909 40.4975 5.52047 41.7449C5.93723 42.9772 6.48478 44.2008 7.60828 44.9423C8.27045 45.3787 9.0293 45.5263 9.80608 45.4134C9.60176 44.9284 9.39685 44.4428 9.19252 43.9577C6.89518 45.0123 5.79716 47.5418 5.36709 49.8878C5.22239 50.6784 5.12802 51.4789 5.03252 52.2771C5.56388 52.2771 6.09467 52.2771 6.62603 52.2771C6.70996 50.7722 6.59013 49.2441 5.98989 47.8474C5.42785 46.541 4.38771 45.5153 3.06452 44.9921C2.33289 44.7032 1.52658 44.6546 0.760219 44.8196C0.352149 44.9076 0.0766374 45.4065 0.203978 45.7995C0.343475 46.2296 0.746925 46.4501 1.18394 46.3558C1.24819 46.3425 1.31241 46.3314 1.37782 46.3193C1.48722 46.299 1.22041 46.3315 1.33212 46.3268C1.3599 46.3257 1.38709 46.3216 1.41487 46.3199C1.56189 46.31 1.71008 46.3106 1.8571 46.3222C1.88488 46.3245 1.91266 46.328 1.93929 46.3297C2.051 46.3367 1.78302 46.3025 1.89184 46.3228C1.95551 46.3343 2.01917 46.3442 2.08284 46.3581C2.21828 46.3876 2.352 46.4252 2.48397 46.4704C2.53433 46.4877 2.61303 46.5358 2.66686 46.5387C2.5592 46.5329 2.55805 46.4889 2.63156 46.5248C2.66513 46.5416 2.69987 46.5566 2.73345 46.5734C2.86021 46.6353 2.98407 46.7048 3.10389 46.7801C3.16061 46.8148 3.21617 46.8512 3.27058 46.8894C3.30184 46.9108 3.45754 47.026 3.37419 46.9618C3.28332 46.8929 3.44771 47.0243 3.47145 47.044C3.52933 47.0938 3.58605 47.1447 3.64162 47.1974C3.7458 47.2964 3.84476 47.4 3.93911 47.5082C3.95937 47.5313 4.04217 47.6587 4.06706 47.6616C4.06301 47.661 3.9779 47.5406 4.02941 47.6136C4.05719 47.6523 4.08555 47.69 4.11276 47.7293C4.2893 47.9823 4.43343 48.2537 4.5625 48.5333C4.56829 48.5466 4.61173 48.6468 4.57353 48.5565C4.53243 48.4592 4.58508 48.5865 4.59376 48.6103C4.62097 48.6803 4.64702 48.7503 4.67191 48.8215C4.72458 48.9738 4.77148 49.1278 4.81257 49.2835C4.85193 49.4293 4.88551 49.5763 4.91503 49.7245C4.93008 49.7986 4.94397 49.8733 4.95612 49.948C4.96365 49.9902 4.96944 50.033 4.97754 50.0759C5.00359 50.2316 4.96829 49.989 4.97986 50.0897C5.06437 50.8173 5.07361 51.5461 5.03252 52.2771C5.00936 52.6939 5.4157 53.0921 5.82956 53.0736C6.30361 53.0522 6.57278 52.7217 6.62603 52.2771C6.6625 51.9721 6.69953 51.6665 6.73889 51.3614C6.75914 51.2046 6.74236 51.3307 6.73889 51.362C6.74294 51.3267 6.74816 51.292 6.75279 51.2567C6.76263 51.1866 6.77304 51.116 6.78346 51.046C6.80777 50.8822 6.83324 50.7184 6.86044 50.5551C6.96463 49.9398 7.09833 49.328 7.28761 48.7324C7.33391 48.5866 7.38312 48.4419 7.43695 48.2983C7.46068 48.2341 7.48557 48.1698 7.51046 48.1061C7.51625 48.0916 7.54635 48.0401 7.54288 48.0257C7.5504 48.0563 7.48325 48.1629 7.53129 48.0552C7.63895 47.8156 7.75356 47.5806 7.88438 47.3519C8.00998 47.1326 8.14717 46.9201 8.29651 46.7158C8.29998 46.7112 8.34917 46.6463 8.3486 46.6457C8.35323 46.6504 8.25193 46.7662 8.33065 46.6695C8.36711 46.6243 8.40359 46.5792 8.44121 46.5352C8.52804 46.4322 8.61949 46.332 8.71384 46.2359C8.81397 46.1329 8.91873 46.034 9.02755 45.9396C9.07791 45.8956 9.12944 45.8528 9.18153 45.8111C9.19716 45.7978 9.27645 45.7434 9.19137 45.8024C9.10165 45.8649 9.20872 45.7914 9.22551 45.7793C9.46745 45.6056 9.72619 45.4574 9.99592 45.333C10.356 45.168 10.463 44.6714 10.3224 44.3386C10.1563 43.9444 9.78291 43.8194 9.38237 43.8772C9.60811 43.8448 9.34532 43.8726 9.29786 43.8726C9.22551 43.8726 9.13175 43.8796 9.06229 43.8587C9.28224 43.9241 9.02988 43.8443 8.98358 43.8321C8.90717 43.8118 8.83249 43.7852 8.75725 43.7603C8.67448 43.7279 8.68258 43.7314 8.78155 43.7719C8.74451 43.7551 8.70921 43.7377 8.67274 43.7192C8.60155 43.6822 8.5315 43.6422 8.4632 43.5994C8.39606 43.5572 8.3243 43.5138 8.26352 43.4617C8.42212 43.5977 8.22011 43.4177 8.19233 43.3916C8.07078 43.2799 7.9608 43.1566 7.85719 43.0281C7.97874 43.1798 7.81203 42.9586 7.79235 42.9291C7.74431 42.8574 7.69916 42.785 7.65517 42.7115C7.56719 42.5627 7.4873 42.4099 7.41437 42.2542C7.37732 42.1755 7.34146 42.0968 7.30847 42.0169C7.38429 42.201 7.27893 41.9388 7.26678 41.9058C6.72037 40.4888 6.34471 38.9931 6.07671 37.5003C6.00726 37.1108 5.56214 36.881 5.20269 36.929C4.83976 36.9782 4.47802 37.3157 4.51217 37.7116C4.53822 38.0149 4.54631 38.3194 4.53532 38.6238C4.52953 38.7709 4.51969 38.9179 4.50522 39.0643C4.50001 39.1164 4.50984 39.2125 4.48379 39.2559C4.53068 39.1784 4.50404 39.1153 4.49015 39.2085C4.48147 39.2635 4.47337 39.3178 4.46469 39.3722C4.41549 39.6622 4.34951 39.9505 4.26789 40.233C4.22738 40.3748 4.18222 40.5154 4.13418 40.6544C4.10987 40.7244 4.0844 40.7938 4.05835 40.8627C4.04504 40.8969 4.03174 40.9316 4.01785 40.9658C4.00859 40.9901 3.95012 41.1411 3.99527 41.0242C4.03868 40.9108 3.94724 41.1325 3.93566 41.1574C3.90499 41.2245 3.87371 41.2911 3.84129 41.3576C3.77241 41.4983 3.69949 41.6378 3.62251 41.7744C3.47781 42.0319 3.31921 42.282 3.1473 42.5222C3.10505 42.5824 3.06048 42.6415 3.01706 42.7011C2.93198 42.8151 3.02458 42.6831 3.04021 42.671C3.0159 42.6901 2.99158 42.7323 2.97074 42.7578C2.87234 42.8794 2.7699 42.9986 2.66398 43.1144C2.45965 43.3389 2.24259 43.552 2.0128 43.7511C1.95087 43.8055 1.88779 43.8587 1.82296 43.9114C1.7946 43.9346 1.76566 43.9571 1.73729 43.9803C1.66089 44.0428 1.86462 43.8859 1.74538 43.9739C1.61225 44.0723 1.47738 44.1684 1.33788 44.2587C1.04442 44.4497 0.737087 44.6181 0.419313 44.7657C0.0396051 44.9423 -0.0848667 45.5176 0.13335 45.8557C0.385138 46.2464 0.817523 46.3303 1.22328 46.1416Z" fill="#1F1F1F"/>
<path d="M104.299 12.6245C103.821 12.0844 103.548 11.3962 103.316 10.7138C102.94 9.60766 102.648 8.47315 102.444 7.32361C102.694 10.1077 101.038 12.9642 98.4979 14.1317L98.6305 14.2492C100.006 13.9395 101.446 14.8142 102.158 16.0309C102.87 17.2475 102.983 18.7241 102.902 20.1312C103.056 18.8329 103.215 17.5178 103.695 16.3012C104.174 15.0851 105.02 13.9581 106.212 13.4204C105.501 13.5355 104.777 13.1639 104.299 12.6245Z" fill="#FFC055"/>
<path d="M98.8994 14.8193C101.049 13.8208 102.653 11.6821 103.11 9.36793C103.244 8.69533 103.298 8.0071 103.24 7.32351C102.718 7.39354 102.197 7.46417 101.675 7.53536C101.941 9.01426 102.318 10.5122 102.921 11.8927C103.221 12.5786 103.648 13.1899 104.249 13.6431C104.529 13.855 104.844 14.0147 105.18 14.1206C105.592 14.2509 106.002 14.2491 106.424 14.1884C106.219 13.7033 106.015 13.2177 105.81 12.7326C104.605 13.2866 103.683 14.3892 103.142 15.5793C102.487 17.0205 102.29 18.5747 102.105 20.1311C102.636 20.1311 103.167 20.1311 103.698 20.1311C103.773 18.7969 103.661 17.4477 103.133 16.2073C102.63 15.0265 101.691 14.1067 100.499 13.6344C99.8383 13.3722 99.1095 13.3334 98.4184 13.481C98.0103 13.5684 97.7348 14.068 97.8622 14.461C98.0011 14.8916 98.4045 15.111 98.8416 15.0172C98.889 15.0074 98.9648 15.008 99.0071 14.986C99.0042 14.9877 98.8439 15.001 98.933 14.9964C98.9608 14.9952 98.9885 14.9912 99.0163 14.9889C99.1448 14.9802 99.2733 14.9808 99.4018 14.9906C99.4296 14.9923 99.4568 14.9964 99.484 14.9981C99.5737 15.0033 99.4111 14.9883 99.4088 14.9871C99.4551 15.0068 99.5216 15.0062 99.5714 15.0172C99.6982 15.0438 99.8226 15.0792 99.9448 15.1214C99.9911 15.1376 100.053 15.177 100.101 15.181C100.096 15.1805 99.961 15.1162 100.04 15.1562C100.065 15.1683 100.09 15.1793 100.115 15.1915C100.234 15.2488 100.349 15.313 100.461 15.3831C100.541 15.4334 100.652 15.5526 100.741 15.5769C100.735 15.5752 100.627 15.4826 100.691 15.5411C100.713 15.5596 100.735 15.5769 100.757 15.5949C100.815 15.6447 100.871 15.6962 100.926 15.7489C101.009 15.8282 101.088 15.9103 101.163 15.9966C101.179 16.0151 101.253 16.1268 101.273 16.1274C101.27 16.1274 101.184 16.0059 101.236 16.0788C101.258 16.1101 101.28 16.1401 101.302 16.1708C101.455 16.3885 101.583 16.6223 101.693 16.8643C101.706 16.8932 101.723 16.9221 101.733 16.9522C101.724 16.9268 101.674 16.8 101.726 16.9412C101.748 17.0014 101.771 17.0616 101.792 17.1224C101.838 17.2544 101.878 17.3881 101.915 17.5229C101.95 17.659 101.982 17.7956 102.009 17.9328C102.021 17.997 102.033 18.0607 102.044 18.1249C102.049 18.1568 102.054 18.1892 102.059 18.221C102.062 18.2407 102.08 18.3825 102.067 18.2766C102.056 18.1741 102.067 18.2841 102.069 18.3003C102.074 18.3437 102.079 18.3871 102.084 18.4305C102.092 18.5174 102.099 18.6048 102.105 18.691C102.115 18.8444 102.122 18.9966 102.125 19.15C102.132 19.4771 102.123 19.8047 102.105 20.1311C102.082 20.5485 102.488 20.9461 102.901 20.9276C103.375 20.9068 103.645 20.5768 103.698 20.1311C103.72 19.9459 103.742 19.7601 103.766 19.5737C103.777 19.4811 103.789 19.3885 103.801 19.2953C103.782 19.44 103.803 19.2866 103.81 19.2287C103.859 18.8815 103.915 18.5347 103.984 18.1909C104.053 17.8482 104.134 17.5079 104.235 17.1733C104.285 17.0061 104.34 16.8405 104.401 16.6767C104.428 16.6038 104.456 16.532 104.484 16.4596C104.518 16.378 104.513 16.3879 104.471 16.4897C104.486 16.4544 104.502 16.4186 104.518 16.3838C104.638 16.1193 104.776 15.8623 104.931 15.6163C105.004 15.5017 105.082 15.3923 105.16 15.2812C105.212 15.2111 105.206 15.2187 105.14 15.3037C105.164 15.2736 105.188 15.2436 105.213 15.214C105.261 15.1544 105.312 15.0965 105.363 15.0386C105.452 14.9391 105.546 14.843 105.643 14.751C105.699 14.6989 105.756 14.6479 105.814 14.5982C105.843 14.5733 105.872 14.5489 105.901 14.5252C105.97 14.4708 105.962 14.4778 105.877 14.5443C105.892 14.5466 106.001 14.4552 106.015 14.4453C106.079 14.4019 106.143 14.3608 106.208 14.3215C106.339 14.2422 106.475 14.1722 106.614 14.1085C106.973 13.9429 107.081 13.4469 106.94 13.1135C106.773 12.7187 106.401 12.5949 106 12.6522C106.225 12.6203 105.963 12.6452 105.915 12.6446C105.877 12.6435 105.837 12.6412 105.797 12.6377C105.829 12.6429 105.86 12.6475 105.892 12.6522C105.86 12.6545 105.49 12.5775 105.49 12.5451C105.588 12.5885 105.596 12.5914 105.515 12.5549C105.479 12.5375 105.443 12.519 105.408 12.5005C105.354 12.4716 105.302 12.4409 105.251 12.4085C105.217 12.3859 105.183 12.3639 105.151 12.3402C105.08 12.2881 105.085 12.2927 105.167 12.3541C105.118 12.3326 105.068 12.2696 105.03 12.2337C104.971 12.1787 104.915 12.1208 104.862 12.0606C104.835 12.0299 104.709 11.8823 104.826 12.0253C104.733 11.9124 104.655 11.7828 104.581 11.6566C104.506 11.5286 104.438 11.3967 104.376 11.2624C104.366 11.2433 104.269 11.0239 104.311 11.1246C104.355 11.2253 104.264 11.0031 104.256 10.9828C103.777 9.73721 103.447 8.42326 103.212 7.11165C103.142 6.72268 102.697 6.49289 102.338 6.54094C101.974 6.58956 101.613 6.92759 101.647 7.32351C101.67 7.58861 101.678 7.85429 101.667 8.12055C101.663 8.24847 101.654 8.37696 101.641 8.5043C101.636 8.56739 101.622 8.63224 101.62 8.69533C101.62 8.69591 101.645 8.5292 101.63 8.6195C101.623 8.66465 101.616 8.70979 101.609 8.75493C101.566 9.00788 101.509 9.25851 101.439 9.50509C101.403 9.62838 101.365 9.75111 101.322 9.87208C101.301 9.93286 101.279 9.99363 101.256 10.0532C101.246 10.0816 101.166 10.2987 101.205 10.1887C101.246 10.0735 101.171 10.2662 101.157 10.2958C101.131 10.3542 101.103 10.4121 101.076 10.47C101.015 10.5938 100.951 10.716 100.884 10.8364C100.754 11.0685 100.611 11.2936 100.456 11.5107C100.421 11.5599 100.388 11.6265 100.342 11.6658C100.342 11.6653 100.438 11.5443 100.382 11.6137C100.359 11.6421 100.337 11.6716 100.313 11.7C100.227 11.8065 100.137 11.9113 100.044 12.0126C99.8712 12.2024 99.6878 12.3824 99.495 12.5515C99.4395 12.5995 99.3839 12.6469 99.3272 12.6932C99.2988 12.7164 99.2699 12.739 99.2421 12.7621C99.1269 12.8553 99.3312 12.6979 99.2507 12.7552C99.1309 12.8397 99.0135 12.9265 98.8902 13.0058C98.6361 13.1708 98.3704 13.3161 98.0954 13.4434C97.7163 13.6194 97.5913 14.1953 97.8095 14.5333C98.0613 14.924 98.4943 15.0074 98.8994 14.8193Z" fill="#1F1F1F"/>
<path d="M30.2562 2.49226C28.7005 2.57271 27.5301 3.71556 26.2417 4.57161C24.0927 5.99571 23.54 8.82188 23.1834 11.3527C21.7273 21.7193 20.587 32.1314 19.7757 42.5697C19.6827 43.741 19.4312 45.0161 19.6935 46.1715C19.9504 47.3207 20.5789 48.2357 22.3072 48.4096L24.1743 48.5909L22.565 48.5327C42.2192 51.7169 61.8845 54.8306 81.5626 57.8721C83.3116 58.1427 85.2714 58.3662 86.6924 57.3343C87.8759 56.4751 88.2871 55.068 88.3649 53.5699L92.8019 22.942C93.3109 20.5787 93.5794 18.1637 93.6032 15.7446C93.6096 15.0816 93.5685 14.3467 93.0928 13.8754C92.7296 13.5152 92.195 13.3971 91.6919 13.2946C81.2993 11.1819 70.9428 8.43626 60.5479 6.32334C50.7191 4.32451 40.2666 1.97222 30.2562 2.49226Z" fill="white"/>
<path d="M27.4702 5.69155C25.9257 5.77747 24.3109 5.94988 23.0277 6.81444C20.895 8.25368 20.3351 11.0985 19.9772 13.6466C18.5044 24.0822 17.3474 34.5627 16.5078 45.0686C16.4143 46.2474 16.1621 47.5317 16.4181 48.6936C16.6688 49.8487 17.2911 50.7685 19.0024 50.9376L20.8581 51.1157L19.2659 51.0617C38.7658 54.2136 58.277 57.292 77.7987 60.2992C79.5334 60.5664 81.4783 60.786 82.8913 59.7448C84.0691 58.8764 84.4805 57.4589 84.5618 55.9518L89.0496 25.1193C89.5609 22.7398 89.8346 20.3091 89.8642 17.8747C89.8726 17.2084 89.8336 16.4678 89.3627 15.9951C89.0035 15.634 88.4731 15.5162 87.9739 15.4147C77.6609 13.3166 67.352 11.2187 57.0431 9.12091C47.2887 7.13631 37.4073 5.14168 27.4702 5.69155Z" fill="#16A34A"/>
<path d="M19.1112 51.9713C24.0836 52.7748 29.0565 53.5736 34.0296 54.3679C38.9799 55.1581 43.9305 55.9437 48.8872 56.7257C53.8381 57.5067 58.7952 58.2835 63.7468 59.0553C66.237 59.4431 68.7215 59.8294 71.2118 60.2149C73.6161 60.587 76.0162 61.0151 78.4301 61.3207C80.4743 61.5795 82.6465 61.4741 84.1308 59.8566C85.4004 58.4728 85.7311 56.4473 85.8208 54.6407C85.845 54.1596 85.8559 53.6775 85.8609 53.1961C85.866 52.6979 85.3015 52.3286 84.8469 52.376C84.3041 52.4326 84.0315 52.89 84.0263 53.3899C84.024 53.5923 84.0205 53.7952 84.0158 53.9986C84.0198 53.8439 84.0133 54.0628 84.0115 54.1109C84.0071 54.233 84.0014 54.3556 83.9941 54.4776C83.9685 54.9307 83.9273 55.3833 83.8603 55.8322C83.8301 56.0342 83.7949 56.2354 83.7527 56.4354C83.7308 56.5429 83.706 56.649 83.6795 56.7555C83.6686 56.8012 83.6571 56.8461 83.6451 56.8911C83.6467 56.8843 83.5767 57.1316 83.6043 57.0408C83.6204 56.9891 83.5404 57.2287 83.5245 57.271C83.4932 57.3569 83.4602 57.4415 83.4255 57.526C83.3392 57.7332 83.2406 57.9354 83.1286 58.1302C83.1066 58.1686 83.0845 58.2076 83.0603 58.2453C83.1405 58.1189 83.058 58.2445 83.0425 58.2648C82.9806 58.3479 82.9216 58.4317 82.8559 58.511C82.7907 58.5915 82.7201 58.6663 82.6512 58.7425C82.6487 58.7452 82.5458 58.8489 82.6108 58.7864C82.6689 58.731 82.5437 58.8453 82.5314 58.8548C82.3964 58.9684 82.1399 59.1473 82.0522 59.1953C82.1218 59.157 81.9842 59.228 81.9872 59.227C81.9301 59.253 81.873 59.2801 81.8149 59.3036C81.6987 59.3524 81.5794 59.3952 81.4594 59.4327C81.4267 59.4425 81.2064 59.5004 81.3251 59.4738C81.2164 59.4988 81.106 59.5173 80.9956 59.534C80.7561 59.5708 80.5136 59.5916 80.271 59.5991C80.1558 59.6033 80.0409 59.6035 79.926 59.603C79.8169 59.6031 79.9033 59.6042 79.9253 59.6047C79.8754 59.6039 79.8257 59.6008 79.776 59.5983C79.5262 59.5855 79.2776 59.5641 79.029 59.5363C77.9138 59.4139 76.8062 59.2137 75.6987 59.0419C74.4936 58.8565 73.2943 58.6709 72.095 58.4853C69.6678 58.1097 67.2464 57.734 64.8193 57.3561C59.9709 56.6013 55.1286 55.8417 50.2809 55.0783C45.4331 54.3148 40.5915 53.5466 35.7444 52.7739C30.9031 52.0016 26.0564 51.2238 21.2157 50.4423C20.6135 50.3458 20.017 50.2492 19.4148 50.1516C18.9215 50.0725 18.4373 50.4184 18.3542 50.9108C18.2711 51.4032 18.6179 51.8916 19.1112 51.9713Z" fill="#1F1F1F"/>
<path d="M19.157 50.0284C18.9728 50.0077 18.7889 49.9825 18.612 49.942C18.5492 49.9275 18.4807 49.9119 18.4183 49.8928C18.5487 49.9338 18.4016 49.8834 18.3848 49.8746C18.2612 49.8201 18.1429 49.7713 18.0258 49.7068C17.892 49.6336 18.1786 49.8378 17.9873 49.6784C17.9272 49.6281 17.8672 49.5766 17.8069 49.5286C17.7738 49.5053 17.6886 49.4026 17.8063 49.5373C17.7743 49.4995 17.7423 49.4606 17.7105 49.4205C17.6787 49.3792 17.4874 49.0643 17.5784 49.2464C17.4669 49.028 17.3856 48.795 17.3219 48.5581C17.2817 48.3966 17.364 48.8514 17.3103 48.48C17.2988 48.4014 17.2814 48.3235 17.2698 48.2442C17.2468 48.0858 17.2354 47.926 17.2299 47.7665C17.2111 47.3948 17.2375 47.0409 17.2709 46.6691C17.3411 45.882 17.4285 45.0968 17.493 44.3088C17.775 40.8298 18.0915 37.3546 18.4484 33.8835C19.1447 27.0213 19.9228 20.1506 20.9526 13.3289C21.1553 12.009 21.3857 10.7853 21.9132 9.62476C22.3989 8.55693 23.1265 7.67076 24.2469 7.20038C25.529 6.66252 26.9826 6.6279 28.38 6.56991C30.0102 6.5014 31.6474 6.49664 33.2739 6.55612C40.0231 6.80573 46.6912 7.98844 53.2972 9.30408C60.092 10.6576 66.877 12.0626 73.6696 13.4449C77.1003 14.1424 80.5251 14.84 83.9569 15.5376C84.8088 15.7113 85.6602 15.8843 86.5116 16.0573C86.9032 16.1375 87.2943 16.2166 87.6854 16.2967C88.0645 16.3737 88.3283 16.4241 88.6303 16.5772C88.7355 16.6297 88.8168 16.7698 88.8835 16.9976C88.852 16.8897 88.8926 17.0465 88.8941 17.0576C88.9093 17.1412 88.9187 17.2255 88.9264 17.3102C88.9428 17.4797 88.9475 17.6501 88.9476 17.8202C88.949 18.2707 88.9626 17.6739 88.9512 17.8344C88.9474 17.8858 88.9458 17.9379 88.9426 17.9899C88.8079 20.0572 88.4865 22.1223 88.2194 24.1757C87.7684 27.6479 87.2915 31.117 86.8066 34.5843C86.3098 38.1338 85.8039 41.6814 85.2824 45.2273C84.9448 47.5256 84.618 49.8282 84.2253 52.1178C84.189 52.3328 84.1521 52.5483 84.1072 52.7614C84.0024 53.2493 84.3906 53.7431 84.866 53.8214C85.3779 53.9065 85.8223 53.5513 85.9266 53.0622C86.3177 51.2293 86.5344 49.3469 86.8109 47.4944C87.3292 44.022 87.8281 40.547 88.3188 37.0708C88.8377 33.3964 89.3468 29.7201 89.8335 26.0411C90.1537 23.6254 90.4956 21.2061 90.7221 18.7788C90.7518 18.4577 90.7751 18.1367 90.7811 17.8138C90.791 17.2278 90.7532 16.6045 90.5026 16.0652C90.1194 15.2398 89.4079 14.8241 88.5556 14.6016C87.734 14.3867 86.885 14.2527 86.053 14.0835C85.1788 13.9058 84.304 13.7276 83.4298 13.5494C81.6807 13.194 79.9311 12.8381 78.1815 12.4816C71.1888 11.0588 64.1904 9.63502 57.192 8.21067C50.4279 6.83452 43.6407 5.4578 36.7504 4.92083C33.363 4.65664 29.907 4.53363 26.524 4.83452C25.0342 4.96572 23.4946 5.29753 22.2829 6.21558C21.1515 7.06764 20.392 8.30432 19.9281 9.62451C19.4566 10.9697 19.2248 12.3687 19.0274 13.7743C18.7802 15.5366 18.5387 17.3005 18.3087 19.0659C17.8545 22.5965 17.429 26.131 17.038 29.6697C16.6529 33.2084 16.3023 36.7507 15.9863 40.2968C15.8337 42.0354 15.7214 43.7794 15.54 45.5153C15.388 46.9347 15.1788 48.4985 15.8222 49.8366C16.4103 51.0592 17.5292 51.7008 18.8533 51.8475C19.3484 51.9023 19.8295 51.5986 19.9139 51.0888C19.9955 50.6161 19.6521 50.0827 19.157 50.0284Z" fill="#1F1F1F"/>
<path d="M84.2645 60.096C85.2623 59.7988 86.2666 59.3824 87.0582 58.6897C88.1347 57.7482 88.7559 56.5216 89.1506 55.1637C89.4314 54.1979 89.5692 53.1959 89.6501 52.1949C89.6886 51.7154 89.4142 51.1982 88.8907 51.1354C88.4282 51.0795 87.8719 51.3794 87.8302 51.894C87.7599 52.7682 87.6451 53.6413 87.4309 54.4919C87.4093 54.5785 87.3867 54.6645 87.3628 54.751C87.3509 54.7942 87.2735 55.0705 87.3181 54.9078C87.362 54.7462 87.2831 55.0108 87.2684 55.0533C87.2395 55.137 87.2094 55.2213 87.1777 55.3043C87.0667 55.5955 86.9387 55.8808 86.7895 56.1541C86.7566 56.2144 86.7231 56.274 86.6879 56.3329C86.6687 56.3645 86.6472 56.396 86.6297 56.4284C86.6311 56.4262 86.767 56.2221 86.6864 56.338C86.6058 56.4545 86.5268 56.5722 86.4401 56.6848C86.2905 56.8768 86.1109 57.0364 85.955 57.2204C86.1554 56.984 86.0242 57.1565 85.9553 57.2158C85.9169 57.2489 85.8779 57.2814 85.8384 57.3133C85.7396 57.3924 85.6389 57.4674 85.5349 57.5391C85.442 57.6025 85.3469 57.6627 85.2509 57.72C85.2024 57.7489 85.1528 57.7754 85.1048 57.8037C85.0095 57.8599 85.3336 57.6861 85.1973 57.7543C85.1636 57.7704 85.1309 57.7883 85.0977 57.8055C84.6214 58.0446 84.1161 58.2206 83.6068 58.3731C83.1432 58.5116 82.8864 59.131 83.0741 59.5646C83.2846 60.0504 83.7693 60.2449 84.2645 60.096Z" fill="#1F1F1F"/>
<path d="M24.0834 7.29166C25.4454 6.14856 26.7259 4.85196 28.1833 3.83145C28.2996 3.75014 28.4215 3.67158 28.5432 3.59647C28.5981 3.56051 28.6587 3.5267 28.7193 3.49116C28.8835 3.39135 28.5448 3.57453 28.7557 3.47122C29.0087 3.34726 29.2664 3.23816 29.5336 3.15647C29.599 3.13638 29.664 3.12088 29.7293 3.10136C29.8479 3.06781 29.5289 3.14103 29.7526 3.09905C29.9116 3.06908 30.0704 3.04085 30.2344 3.02113C30.58 2.97893 30.9351 2.96413 31.2835 2.96277C31.3764 2.96213 31.4692 2.96265 31.562 2.96433C31.6083 2.96545 31.6547 2.96657 31.7068 2.96813C31.672 2.96728 31.5043 2.95889 31.6778 2.96773C31.9091 2.97971 32.1347 2.9901 32.3599 3.00569C32.8738 3.04218 33.3866 3.09195 33.8991 3.14633C34.9932 3.26313 36.086 3.39782 37.1785 3.53656C39.4153 3.81963 41.65 4.13097 43.8774 4.46209C48.872 5.2028 53.8478 6.03962 58.8069 6.94428C63.9035 7.87367 68.9889 8.87652 74.0564 9.96394C78.7525 10.9715 83.4349 12.0471 88.085 13.2509C89.0947 13.5118 90.1033 13.7801 91.1095 14.0558C91.2818 14.1034 91.4901 14.1984 91.6767 14.2024C91.7388 14.203 91.4137 14.0946 91.5541 14.1654C91.5888 14.1825 91.6274 14.1941 91.6628 14.2101C91.7038 14.2288 91.7429 14.2567 91.7847 14.2726C91.8958 14.3162 91.6799 14.2218 91.6788 14.2055C91.6794 14.2131 91.7714 14.2716 91.7784 14.2785C91.8225 14.3172 91.8668 14.3617 91.9135 14.3971C92.0085 14.4703 91.7982 14.2306 91.9199 14.4126C91.9607 14.4731 92.0028 14.539 92.0472 14.5968C92.136 14.7149 92.0371 14.5781 92.0246 14.5505C92.052 14.6111 92.0818 14.6702 92.1069 14.7319C92.1437 14.8222 92.171 14.9154 92.2025 15.0071C92.214 15.0399 92.2435 15.1733 92.2065 15.008C92.2191 15.0641 92.2301 15.12 92.2398 15.1765C92.2881 15.4563 92.3081 15.7405 92.3079 16.0237C92.3077 16.2843 92.2728 16.6294 92.2454 16.9274C92.0349 19.2097 91.7449 21.486 91.4677 23.7604C91.0562 27.1386 90.628 30.515 90.1952 33.8904C89.7591 37.2952 89.3172 40.6996 88.8713 44.1031C88.5741 46.3743 88.2751 48.6453 87.9727 50.9155C87.9375 51.1781 87.9029 51.4408 87.8671 51.7034C87.8007 52.1976 88.1241 52.6808 88.6263 52.764C89.108 52.8434 89.6199 52.5007 89.6864 52.0041C89.9399 50.1256 90.1866 48.2454 90.4338 46.3658C90.8659 43.0773 91.2945 39.7892 91.7186 36.4996C92.1719 32.9811 92.6211 29.4624 93.0566 25.942C93.3786 23.3378 93.7041 20.7333 93.9766 18.1236C94.0787 17.141 94.2334 16.0991 94.0951 15.1178C93.9731 14.2531 93.628 13.3603 92.9066 12.8214C92.5124 12.5262 92.0923 12.4236 91.631 12.297C87.148 11.0621 82.6236 9.97733 78.0836 8.96108C73.0026 7.82273 67.8971 6.77835 62.7803 5.80741C57.6922 4.84208 52.5929 3.94905 47.481 3.14679C42.9199 2.43079 38.3399 1.73483 33.7477 1.2806C32.1114 1.11767 30.3715 0.944114 28.7831 1.46383C27.4626 1.89378 26.3927 2.85547 25.3683 3.75263C24.5861 4.4368 23.8094 5.12429 23.011 5.79216C22.633 6.11288 22.4943 6.65222 22.7992 7.07887C23.0726 7.46024 23.7054 7.61411 24.0834 7.29166Z" fill="#1F1F1F"/>
<path d="M63.2579 16.3975C52.7787 14.2482 42.092 13.1705 31.4337 12.1019C30.4197 12.0003 29.3587 11.9069 28.4232 12.3097C26.4983 13.1399 25.9915 15.5835 25.7439 17.6639C24.6349 26.9529 23.526 36.2425 22.4228 45.5319C22.3211 46.3526 22.6201 47.5607 23.4233 47.3749L23.8104 47.3991C40.2818 49.5183 55.8823 51.7979 72.3597 53.9158C73.8027 54.1015 75.3281 54.2736 76.6499 53.6702C77.9717 53.0674 78.7981 50.7979 78.7853 49.206L78.7784 49.2055C79.5012 44.9897 81.342 34.0794 81.391 32.04C81.9108 28.8213 82.5293 24.7672 82.6828 22.8203C82.9592 19.3154 80.182 19.3758 80.182 19.3758L63.2539 16.3729L63.2579 16.3975Z" fill="#1F1F1F"/>
<path d="M62.4409 36.3598L60.4399 36.0822C59.3458 35.9304 58.3358 36.6943 58.184 37.7884L57.9065 39.7885C57.7547 40.8826 58.5186 41.8925 59.6127 42.0443L61.6138 42.322C62.7078 42.4738 63.7178 41.7099 63.8696 40.6158L64.1471 38.6157C64.2989 37.5216 63.535 36.5116 62.4409 36.3598Z" stroke="#F2A227" stroke-miterlimit="10" stroke-linecap="round" stroke-linejoin="round"/>
<path d="M59.6692 36.8398L62.9744 37.2984" stroke="#F2A227" stroke-miterlimit="10" stroke-linecap="round" stroke-linejoin="round"/>
<path d="M59.0775 41.1044L62.3827 41.5629" stroke="#F2A227" stroke-miterlimit="10" stroke-linecap="round" stroke-linejoin="round"/>
<path d="M63.3873 37.8456L62.9289 41.1498" stroke="#F2A227" stroke-miterlimit="10" stroke-linecap="round" stroke-linejoin="round"/>
<path d="M59.1239 37.254L58.6655 40.5583" stroke="#F2A227" stroke-miterlimit="10" stroke-linecap="round" stroke-linejoin="round"/>
<path d="M68.4031 37.1872L66.403 36.9097C65.3089 36.7579 64.2989 37.5218 64.1472 38.6159L63.8697 40.616C63.7179 41.7101 64.4818 42.7201 65.5758 42.8719L67.5759 43.1493C68.67 43.3011 69.68 42.5373 69.8318 41.4432L70.1093 39.4431C70.2611 38.349 69.4972 37.339 68.4031 37.1872Z" stroke="#F2A227" stroke-miterlimit="10" stroke-linecap="round" stroke-linejoin="round"/>
<path d="M65.6321 37.6677L68.9373 38.1263" stroke="#F2A227" stroke-miterlimit="10" stroke-linecap="round" stroke-linejoin="round"/>
<path d="M65.0404 41.9324L68.3456 42.3909" stroke="#F2A227" stroke-miterlimit="10" stroke-linecap="round" stroke-linejoin="round"/>
<path d="M69.3492 38.673L68.8908 41.9772" stroke="#F2A227" stroke-miterlimit="10" stroke-linecap="round" stroke-linejoin="round"/>
<path d="M65.0859 38.0815L64.6275 41.3858" stroke="#F2A227" stroke-miterlimit="10" stroke-linecap="round" stroke-linejoin="round"/>
<path d="M74.3664 38.0143L72.3653 37.7366C71.2712 37.5848 70.2612 38.3487 70.1094 39.4428L69.8319 41.4429C69.6802 42.537 70.444 43.547 71.5381 43.6988L73.5392 43.9764C74.6333 44.1282 75.6433 43.3643 75.7951 42.2702L76.0725 40.2701C76.2243 39.176 75.4605 38.1661 74.3664 38.0143Z" stroke="#F2A227" stroke-miterlimit="10" stroke-linecap="round" stroke-linejoin="round"/>
<path d="M71.5955 38.4946L74.9007 38.9532" stroke="#F2A227" stroke-miterlimit="10" stroke-linecap="round" stroke-linejoin="round"/>
<path d="M71.0038 42.759L74.309 43.2176" stroke="#F2A227" stroke-miterlimit="10" stroke-linecap="round" stroke-linejoin="round"/>
<path d="M75.3115 39.5001L74.8531 42.8044" stroke="#F2A227" stroke-miterlimit="10" stroke-linecap="round" stroke-linejoin="round"/>
<path d="M71.0491 38.9086L70.5906 42.2128" stroke="#F2A227" stroke-miterlimit="10" stroke-linecap="round" stroke-linejoin="round"/>
<path d="M63.2683 30.3967L61.2673 30.1191C60.1732 29.9673 59.1632 30.7312 59.0114 31.8253L58.7338 33.8263C58.582 34.9204 59.3459 35.9304 60.44 36.0822L62.441 36.3598C63.5351 36.5116 64.5451 35.7477 64.6969 34.6536L64.9745 32.6526C65.1263 31.5585 64.3624 30.5485 63.2683 30.3967Z" stroke="#F2A227" stroke-miterlimit="10" stroke-linecap="round" stroke-linejoin="round"/>
<path d="M60.4962 30.8792L63.8014 31.3377" stroke="#F2A227" stroke-miterlimit="10" stroke-linecap="round" stroke-linejoin="round"/>
<path d="M59.9048 35.1417L63.21 35.6003" stroke="#F2A227" stroke-miterlimit="10" stroke-linecap="round" stroke-linejoin="round"/>
<path d="M64.2145 31.8827L63.7561 35.1869" stroke="#F2A227" stroke-miterlimit="10" stroke-linecap="round" stroke-linejoin="round"/>
<path d="M59.951 31.2914L59.4926 34.5956" stroke="#F2A227" stroke-miterlimit="10" stroke-linecap="round" stroke-linejoin="round"/>
<path d="M69.2303 31.2241L67.2302 30.9466C66.1361 30.7948 65.1261 31.5587 64.9743 32.6528L64.6967 34.6538C64.5449 35.7479 65.3088 36.7579 66.4029 36.9097L68.4029 37.1872C69.497 37.339 70.507 36.5751 70.6588 35.481L70.9364 33.48C71.0882 32.3859 70.3243 31.3759 69.2303 31.2241Z" stroke="#F2A227" stroke-miterlimit="10" stroke-linecap="round" stroke-linejoin="round"/>
<path d="M66.4594 31.7059L69.7646 32.1645" stroke="#F2A227" stroke-miterlimit="10" stroke-linecap="round" stroke-linejoin="round"/>
<path d="M65.868 35.9684L69.1733 36.4269" stroke="#F2A227" stroke-miterlimit="10" stroke-linecap="round" stroke-linejoin="round"/>
<path d="M70.1765 32.7097L69.7181 36.0139" stroke="#F2A227" stroke-miterlimit="10" stroke-linecap="round" stroke-linejoin="round"/>
<path d="M65.9132 32.1182L65.4548 35.4224" stroke="#F2A227" stroke-miterlimit="10" stroke-linecap="round" stroke-linejoin="round"/>
<path d="M70.0574 25.262L68.0573 24.9846C66.9632 24.8328 65.9532 25.5967 65.8014 26.6907L65.524 28.6908C65.3722 29.7849 66.1361 30.7949 67.2301 30.9467L69.2302 31.2242C70.3243 31.376 71.3343 30.6121 71.4861 29.518L71.7636 27.5179C71.9154 26.4238 71.1515 25.4138 70.0574 25.262Z" stroke="#F2A227" stroke-miterlimit="10" stroke-linecap="round" stroke-linejoin="round"/>
<path d="M67.2865 25.7432L70.5917 26.2017" stroke="#F2A227" stroke-miterlimit="10" stroke-linecap="round" stroke-linejoin="round"/>
<path d="M66.6952 30.0048L70.0004 30.4633" stroke="#F2A227" stroke-miterlimit="10" stroke-linecap="round" stroke-linejoin="round"/>
<path d="M71.0039 26.7467L70.5452 30.0529" stroke="#F2A227" stroke-miterlimit="10" stroke-linecap="round" stroke-linejoin="round"/>
<path d="M66.7404 26.1554L66.2817 29.4616" stroke="#F2A227" stroke-miterlimit="10" stroke-linecap="round" stroke-linejoin="round"/>
<path d="M61.6138 42.3222L59.6127 42.0446C58.5186 41.8928 57.5087 42.6567 57.3569 43.7508L57.0794 45.7509C56.9276 46.845 57.6915 47.8549 58.7856 48.0067L60.7866 48.2844C61.8807 48.4362 62.8907 47.6723 63.0425 46.5782L63.32 44.5781C63.4718 43.484 62.7079 42.474 61.6138 42.3222Z" stroke="#F2A227" stroke-miterlimit="10" stroke-linecap="round" stroke-linejoin="round"/>
<path d="M58.8418 42.8043L62.147 43.2629" stroke="#F2A227" stroke-miterlimit="10" stroke-linecap="round" stroke-linejoin="round"/>
<path d="M58.2502 47.0677L61.5555 47.5263" stroke="#F2A227" stroke-miterlimit="10" stroke-linecap="round" stroke-linejoin="round"/>
<path d="M62.5602 43.807L62.1015 47.1132" stroke="#F2A227" stroke-miterlimit="10" stroke-linecap="round" stroke-linejoin="round"/>
<path d="M58.2969 43.2157L57.8382 46.5219" stroke="#F2A227" stroke-miterlimit="10" stroke-linecap="round" stroke-linejoin="round"/>
<path d="M55.6507 41.4949L53.6496 41.2172C52.5555 41.0654 51.5455 41.8293 51.3937 42.9234L51.1162 44.9235C50.9645 46.0176 51.7283 47.0276 52.8224 47.1793L54.8235 47.457C55.9176 47.6088 56.9276 46.8449 57.0794 45.7508L57.3568 43.7507C57.5086 42.6566 56.7448 41.6466 55.6507 41.4949Z" stroke="#F2A227" stroke-miterlimit="10" stroke-linecap="round" stroke-linejoin="round"/>
<path d="M52.8795 41.9773L56.1847 42.4359" stroke="#F2A227" stroke-miterlimit="10" stroke-linecap="round" stroke-linejoin="round"/>
<path d="M52.288 46.2406L55.5932 46.6992" stroke="#F2A227" stroke-miterlimit="10" stroke-linecap="round" stroke-linejoin="round"/>
<path d="M56.5967 42.9797L56.138 46.2859" stroke="#F2A227" stroke-miterlimit="10" stroke-linecap="round" stroke-linejoin="round"/>
<path d="M52.3345 42.3883L51.8758 45.6945" stroke="#F2A227" stroke-miterlimit="10" stroke-linecap="round" stroke-linejoin="round"/>
<path d="M67.5758 43.1491L65.5758 42.8716C64.4817 42.7199 63.4717 43.4837 63.3199 44.5778L63.0424 46.5779C62.8906 47.672 63.6545 48.682 64.7486 48.8338L66.7487 49.1113C67.8428 49.263 68.8527 48.4992 69.0045 47.4051L69.282 45.405C69.4338 44.3109 68.6699 43.3009 67.5758 43.1491Z" stroke="#F2A227" stroke-miterlimit="10" stroke-linecap="round" stroke-linejoin="round"/>
<path d="M64.8047 43.6312L68.1099 44.0898" stroke="#F2A227" stroke-miterlimit="10" stroke-linecap="round" stroke-linejoin="round"/>
<path d="M64.2131 47.8949L67.5184 48.3535" stroke="#F2A227" stroke-miterlimit="10" stroke-linecap="round" stroke-linejoin="round"/>
<path d="M68.5222 44.6342L68.0635 47.9403" stroke="#F2A227" stroke-miterlimit="10" stroke-linecap="round" stroke-linejoin="round"/>
<path d="M64.2589 44.0424L63.8002 47.3486" stroke="#F2A227" stroke-miterlimit="10" stroke-linecap="round" stroke-linejoin="round"/>
<path d="M73.5391 43.9764L71.538 43.6988C70.4439 43.547 69.434 44.3109 69.2822 45.405L69.0047 47.405C68.8529 48.4991 69.6168 49.5091 70.7109 49.6609L72.7119 49.9385C73.806 50.0903 74.816 49.3264 74.9678 48.2324L75.2453 46.2323C75.3971 45.1382 74.6332 44.1282 73.5391 43.9764Z" stroke="#F2A227" stroke-miterlimit="10" stroke-linecap="round" stroke-linejoin="round"/>
<path d="M70.7677 44.4589L74.0729 44.9174" stroke="#F2A227" stroke-miterlimit="10" stroke-linecap="round" stroke-linejoin="round"/>
<path d="M70.1763 48.7224L73.4815 49.181" stroke="#F2A227" stroke-miterlimit="10" stroke-linecap="round" stroke-linejoin="round"/>
<path d="M74.4844 45.4609L74.0257 48.7671" stroke="#F2A227" stroke-miterlimit="10" stroke-linecap="round" stroke-linejoin="round"/>
<path d="M70.222 44.8699L69.7634 48.1761" stroke="#F2A227" stroke-miterlimit="10" stroke-linecap="round" stroke-linejoin="round"/>
</svg>
