<svg width="79" height="64" viewBox="0 0 79 64" fill="none" xmlns="http://www.w3.org/2000/svg">
<path d="M0.996325 56.5247C1.01011 57.1393 1.4684 57.742 1.7947 58.2324C2.19126 58.8325 2.61866 59.4123 3.02638 60.0045C3.1938 60.2467 3.33561 60.5094 3.52601 60.7346C3.85822 61.1265 4.32701 61.3721 4.80039 61.5487C5.83446 61.9341 7.00311 61.9045 8.08905 61.9669C13.5844 62.2794 19.0797 62.588 24.5777 62.8519C30.1 63.1159 35.6242 63.3345 41.1517 63.4652C46.6484 63.5952 52.1477 63.6365 57.645 63.5492C63.1403 63.4625 68.6344 63.2446 74.1172 62.8572C74.8152 62.8073 75.5131 62.7554 76.211 62.7003C76.6443 62.6668 76.9286 62.3805 76.966 61.9459C77.6745 53.5808 78.1399 45.1953 78.3566 36.8032C78.5739 28.4112 78.5444 20.0125 78.2673 11.6218C78.2292 10.4735 78.1872 9.32518 78.1399 8.17622C78.1157 7.57678 78.09 6.978 78.0625 6.37922C78.0487 6.07261 78.0782 5.72596 78.0014 5.42985C77.9528 5.24339 77.8543 5.05562 77.7788 4.87967C77.4578 4.13317 77.0639 3.41292 76.6062 2.74061C76.2438 2.20749 75.7869 1.51024 75.1717 1.23712C74.7994 1.07166 74.3608 1.12876 74.1389 1.50759C73.9511 1.8293 74.0358 2.37426 74.4101 2.54102C74.4593 2.56269 74.6609 2.69992 74.5381 2.60209C74.6326 2.67759 74.718 2.7662 74.8001 2.85484C75.0174 3.08791 75.1828 3.321 75.3601 3.58756C75.7567 4.18305 76.1079 4.81401 76.3988 5.46794C76.5248 5.74763 76.5373 6.03519 76.5531 6.37922C76.578 6.9281 76.6017 7.47697 76.624 8.0265C76.6666 9.05007 76.7054 10.0737 76.7402 11.0979C76.8813 15.2177 76.9627 19.3396 76.9844 23.4627C77.0271 31.6571 76.8354 39.8536 76.4086 48.0375C76.167 52.6787 75.8486 57.3152 75.456 61.9459C75.7081 61.6944 75.9589 61.4423 76.211 61.1915C70.8306 61.6137 65.4383 61.8697 60.0427 61.9932C54.6465 62.1173 49.2477 62.11 43.8508 62.0122C38.4494 61.9137 33.0492 61.7246 27.6517 61.4843C22.2778 61.2454 16.9059 60.9545 11.5346 60.6525C10.1867 60.5763 8.83818 60.5002 7.48962 60.4233C6.63414 60.3741 5.5482 60.4214 4.81811 59.885C4.63428 59.7504 4.55813 59.5797 4.42091 59.3748C4.25612 59.128 4.08213 58.8877 3.91077 58.6461C3.48926 58.0493 3.05528 57.4538 2.68958 56.8208C2.62326 56.7066 2.56745 56.5871 2.50377 56.4722C2.43746 56.3527 2.53069 56.595 2.50902 56.4814C2.4762 56.2995 2.50705 56.595 2.5064 56.5247C2.48407 55.555 0.974659 55.5517 0.996325 56.5247Z" fill="#1F1F1F"/>
<path d="M74.6851 1.74799C57.469 2.9718 20.5504 0.268117 3.52729 1.79592L3.16291 2.41307C2.53525 19.8347 1.90693 37.2563 1.27927 54.6773C1.26089 55.1881 1.24841 55.7271 1.49265 56.1769C1.95814 57.0363 3.10251 57.1939 4.07815 57.249C27.2426 58.5687 50.4925 59.8877 73.6228 58.0638C75.2123 39.3422 75.5675 20.5162 74.6851 1.74799Z" fill="white"/>
<path d="M2.40855 2.41291C2.10391 10.8555 1.79929 19.2975 1.4953 27.7394C1.19329 36.1335 0.890599 44.5268 0.587928 52.9202C0.553131 53.888 0.405429 54.926 0.593859 55.8832C0.765219 56.7564 1.40927 57.3598 2.21027 57.6749C2.96005 57.9704 3.79456 57.9881 4.58767 58.0328C5.63225 58.0925 6.67682 58.1523 7.7214 58.2107C11.9004 58.447 16.08 58.6782 20.2609 58.8856C28.6444 59.3012 37.0338 59.621 45.4285 59.6965C53.812 59.7713 62.2008 59.6032 70.5673 59.0412C71.5862 58.9736 72.6045 58.8981 73.6229 58.8187C74.0568 58.7852 74.3411 58.4989 74.3772 58.0636C74.997 50.7588 75.4303 43.4383 75.6746 36.1111C75.9182 28.7847 75.9746 21.451 75.8426 14.1212C75.7678 9.99544 75.6326 5.87032 75.4395 1.74783C75.4218 1.36309 75.1086 0.963267 74.6851 0.993468C70.6736 1.2771 66.645 1.32174 62.6243 1.32174C57.6883 1.32109 52.7543 1.22652 47.8203 1.1149C42.5981 0.996725 37.3765 0.854257 32.1543 0.74133C27.1632 0.632999 22.1714 0.54635 17.1784 0.560137C13.0434 0.571299 8.90056 0.632359 4.77544 0.938969C4.35918 0.969827 3.94291 1.00396 3.52732 1.04072C3.12157 1.07683 2.77295 1.36178 2.77295 1.79576C2.77295 2.1759 3.11894 2.58692 3.52732 2.55015C7.50537 2.19496 11.5064 2.11027 15.4976 2.07809C20.4165 2.03936 25.3367 2.11221 30.2549 2.212C35.4758 2.31639 40.6967 2.45758 45.9183 2.58035C50.9232 2.69853 55.9288 2.80488 60.935 2.8272C65.0982 2.84558 69.2666 2.82261 73.4239 2.58362C73.8448 2.55998 74.2649 2.53307 74.6851 2.50287C74.433 2.25141 74.1816 1.99995 73.9308 1.74783C74.2735 9.07167 74.4304 16.4027 74.3982 23.7338C74.366 31.0649 74.1455 38.3953 73.7371 45.7145C73.5066 49.8351 73.2165 53.9516 72.8678 58.0636C73.1193 57.8122 73.3714 57.56 73.6229 57.3086C65.3844 57.9566 57.1191 58.21 48.8557 58.2035C40.5851 58.1976 32.3158 57.9343 24.0538 57.5561C19.9201 57.3677 15.7885 57.1497 11.6568 56.9219C9.56762 56.8063 7.47847 56.6875 5.38932 56.5693C4.59621 56.5234 3.75776 56.5496 2.98435 56.3428C2.34289 56.1708 2.04155 55.8478 2.02645 55.1531C2.00412 54.144 2.09079 53.1231 2.12624 52.1146C2.16432 51.0661 2.2024 50.0163 2.23982 48.9671C2.31402 46.9173 2.3882 44.8682 2.46173 42.8185C2.61143 38.671 2.76047 34.5229 2.91016 30.3748C3.20955 22.0793 3.50829 13.7837 3.80702 5.48755C3.84445 4.46267 3.88121 3.43845 3.91798 2.41291C3.95343 1.44187 2.44334 1.44318 2.40855 2.41291Z" fill="#1F1F1F"/>
<path d="M54.9051 6.36477C53.741 6.71274 52.8967 7.7862 52.7148 8.97456C52.6196 9.59763 52.6584 10.2161 52.9052 10.8011C53.1449 11.3697 53.5585 11.8522 54.0995 12.1575C55.1421 12.7458 56.5143 12.6775 57.5293 12.0591C58.6685 11.3644 59.2081 10.0343 58.8431 8.74349C58.4478 7.34109 57.0881 6.1422 55.578 6.25118C55.1854 6.27942 54.804 6.57816 54.823 7.00558C54.8401 7.39032 55.1565 7.79146 55.578 7.76126C55.6936 7.75206 55.8065 7.75535 55.9221 7.76126C56.1046 7.7711 55.7678 7.7232 55.9451 7.76587C56.0114 7.78229 56.0764 7.79542 56.142 7.81511C56.1919 7.82956 56.2412 7.84793 56.2911 7.865C56.4618 7.9254 56.1827 7.80788 56.2976 7.86894C56.4119 7.93 56.5241 7.98843 56.6312 8.06196C56.6495 8.07444 56.6679 8.08825 56.687 8.10072C56.7933 8.1736 56.6469 8.07774 56.643 8.06658C56.6535 8.09744 56.7559 8.16242 56.7815 8.18606C56.8728 8.26944 56.9529 8.36135 57.0349 8.45195C57.0861 8.50841 57.0408 8.51433 57.0034 8.40797C57.0106 8.42898 57.0468 8.46639 57.0579 8.48215C57.0888 8.52614 57.1183 8.57079 57.1472 8.61609C57.18 8.66861 57.2109 8.7218 57.2405 8.77564C57.2641 8.82029 57.293 8.93123 57.3311 8.96078C57.3304 8.96078 57.2746 8.81111 57.3002 8.88595C57.3094 8.91484 57.3218 8.9424 57.3317 8.97129C57.3501 9.02185 57.3665 9.07175 57.3816 9.12296C57.3987 9.18139 57.4131 9.23984 57.4262 9.29893C57.4328 9.32847 57.4374 9.35799 57.4433 9.38754C57.4716 9.52016 57.4374 9.24901 57.4387 9.34355C57.44 9.45648 57.4551 9.56745 57.4499 9.68103C57.4486 9.7178 57.4282 9.88915 57.4479 9.76047C57.4663 9.63704 57.4505 9.74077 57.444 9.77163C57.4367 9.80905 57.4295 9.84581 57.4203 9.88258C57.4065 9.94233 57.3888 10.0014 57.3698 10.0592C57.3619 10.0802 57.3514 10.1025 57.3462 10.1242C57.3232 10.2207 57.4164 9.97845 57.3731 10.0612C57.3219 10.159 57.2746 10.2555 57.2142 10.3474C57.1984 10.3697 57.182 10.3921 57.1676 10.4151C57.1177 10.4925 57.2752 10.2916 57.2115 10.3579C57.1787 10.3921 57.1505 10.4308 57.1183 10.465C57.0454 10.5437 56.9502 10.6061 56.8813 10.6862C56.9811 10.57 56.991 10.6054 56.9371 10.6416C56.9155 10.6573 56.8931 10.6737 56.8702 10.6888C56.8255 10.7197 56.7795 10.7479 56.7323 10.7755C56.6384 10.8313 56.5346 10.8707 56.4401 10.9245C56.4486 10.9193 56.6193 10.8563 56.5057 10.895C56.4854 10.9016 56.467 10.9094 56.4473 10.916C56.3955 10.935 56.3429 10.9515 56.2898 10.9666C56.1834 10.9981 56.0757 11.0211 55.9667 11.0414C55.7894 11.0749 56.142 11.0289 55.9621 11.0414C55.9135 11.0447 55.8663 11.0486 55.8177 11.0512C55.708 11.0565 55.5977 11.0545 55.4881 11.0467C55.4605 11.0447 55.4336 11.0414 55.406 11.0394C55.2826 11.0296 55.4769 11.048 55.4848 11.0499C55.4343 11.0348 55.3765 11.0316 55.3239 11.021C55.2182 10.9968 55.1132 10.9666 55.0114 10.9298C54.9872 10.9206 54.9609 10.9068 54.9359 10.9009C54.93 10.8989 55.0902 10.9744 55.0239 10.9364C54.9766 10.9101 54.9261 10.8891 54.8788 10.8635C54.8381 10.8405 54.7967 10.8162 54.7574 10.7913C54.7344 10.7762 54.7121 10.7604 54.6897 10.746C54.5827 10.6777 54.7954 10.8379 54.7285 10.7775C54.6503 10.7085 54.5729 10.6429 54.5033 10.5654C54.4842 10.5451 54.4665 10.5234 54.4481 10.5024C54.4015 10.4505 54.433 10.4302 54.4888 10.5569C54.4678 10.5089 54.4238 10.4643 54.3969 10.4197C54.368 10.373 54.3411 10.3258 54.3162 10.2772C54.2998 10.2457 54.2334 10.0973 54.2853 10.2187C54.3411 10.3494 54.2676 10.1636 54.259 10.1373C54.2393 10.0789 54.2236 10.0198 54.2091 9.96006C54.198 9.91345 54.1894 9.86683 54.1802 9.81955C54.1448 9.6436 54.1901 9.96597 54.1816 9.83728C54.1737 9.71976 54.1658 9.60354 54.1698 9.48602C54.1717 9.42365 54.1783 9.3613 54.1829 9.29893C54.1835 9.27267 54.196 9.19452 54.1789 9.3173C54.1592 9.4532 54.1789 9.32453 54.1835 9.29367C54.2059 9.16958 54.236 9.04812 54.2735 8.92862C54.2918 8.86888 54.3181 8.81045 54.3359 8.7507C54.3582 8.6752 54.2958 8.83998 54.2991 8.83472C54.3194 8.79993 54.3339 8.75725 54.351 8.72114C54.4022 8.61478 54.4606 8.51302 54.5256 8.41454C54.5657 8.35348 54.6956 8.22938 54.54 8.38367C54.5788 8.34493 54.6103 8.29834 54.6464 8.25829C54.7285 8.16834 54.8361 8.0961 54.9143 8.00615C54.9071 8.01337 54.7593 8.11515 54.8591 8.04949C54.8874 8.03111 54.9149 8.0114 54.9438 7.99236C54.995 7.95888 55.0482 7.92804 55.1027 7.89981C55.1204 7.88996 55.1395 7.88076 55.1572 7.87157C55.2662 7.81313 55.1585 7.87881 55.1093 7.88865C55.1736 7.87552 55.2432 7.83941 55.3063 7.82037C55.6851 7.7081 55.9608 7.28593 55.8335 6.892C55.7107 6.50923 55.3102 6.24396 54.9051 6.36477Z" fill="#1F1F1F"/>
<path d="M64.7265 6.16585C63.4107 6.07852 62.4476 7.26361 62.0326 8.37713C61.6006 9.53594 61.7805 10.9022 62.7798 11.7091C63.8447 12.5692 65.3607 12.7104 66.5753 12.0814C67.891 11.3992 68.566 9.77819 68.2561 8.35478C67.8996 6.72259 66.0487 5.61304 64.4454 6.12449C64.0699 6.24398 63.7889 6.65434 63.9183 7.05286C64.0397 7.42973 64.4435 7.70875 64.8473 7.58006C64.9083 7.56037 64.9707 7.54264 65.0337 7.52819C65.0606 7.52228 65.1053 7.52033 65.1283 7.50982C65.1138 7.51639 64.9392 7.52556 65.0705 7.51768C65.1998 7.50914 65.3246 7.51047 65.4539 7.51704C65.5878 7.52229 65.408 7.5177 65.3968 7.50719C65.4053 7.51573 65.4854 7.52229 65.4913 7.52361C65.5544 7.53674 65.6174 7.55182 65.6785 7.56955C65.733 7.5853 65.7868 7.60238 65.84 7.62273C65.882 7.63783 65.9581 7.63521 65.8629 7.6293C65.7612 7.62339 65.8643 7.63194 65.905 7.65229C66.014 7.70613 66.119 7.7685 66.2195 7.8381C66.3705 7.94446 66.1184 7.74881 66.2589 7.86961C66.314 7.91688 66.3672 7.96677 66.4184 8.01929C66.4585 8.06065 66.5005 8.13287 66.5477 8.16439C66.5339 8.1552 66.4447 8.01996 66.5188 8.12698C66.532 8.14733 66.5464 8.167 66.5596 8.1867C66.5957 8.24054 66.6298 8.29636 66.66 8.35283C66.6758 8.38171 66.6909 8.41059 66.7053 8.43948C66.7119 8.45392 66.7191 8.46902 66.7257 8.48346C66.7493 8.53467 66.7394 8.51235 66.6981 8.41781C66.7421 8.427 66.7952 8.73231 66.8051 8.7809C66.8123 8.81373 66.8169 8.8472 66.8235 8.88002C66.8438 8.98179 66.811 8.72573 66.8163 8.82947C66.8202 8.90497 66.8274 8.97983 66.8281 9.05599C66.8281 9.11508 66.8261 9.17417 66.8228 9.2326C66.8209 9.26674 66.8169 9.29957 66.8149 9.33371C66.809 9.43745 66.8419 9.18206 66.8215 9.28383C66.7946 9.4263 66.7657 9.56614 66.7211 9.70402C66.7027 9.76048 66.681 9.81563 66.66 9.8721C66.6252 9.9673 66.723 9.74076 66.6758 9.83202C66.66 9.86223 66.6469 9.89377 66.6311 9.92397C66.5661 10.0533 66.4893 10.1741 66.4059 10.2936C66.3291 10.4032 66.5037 10.1787 66.3823 10.3205C66.337 10.3724 66.291 10.4216 66.2431 10.4696C66.2004 10.5116 66.1571 10.5523 66.1118 10.5904C66.1164 10.5864 66.0323 10.6521 66.033 10.6554C66.0278 10.6199 66.1709 10.5588 66.0606 10.6297C65.9673 10.6901 65.8735 10.7479 65.7743 10.7978C65.7579 10.805 65.7093 10.8208 65.6942 10.8353C65.7723 10.7637 65.8281 10.7834 65.752 10.8103C65.689 10.8326 65.6266 10.8563 65.5629 10.8753C65.4559 10.9081 65.3482 10.9291 65.2386 10.9521C65.1151 10.9777 65.2944 10.9436 65.3075 10.9442C65.2806 10.9429 65.2465 10.9515 65.2189 10.9541C65.1526 10.96 65.0856 10.9639 65.0186 10.9653C64.9063 10.9672 64.7967 10.9593 64.6851 10.9528C64.5584 10.9449 64.7409 10.96 64.7534 10.9639C64.7264 10.9561 64.6936 10.9547 64.6654 10.9495C64.6004 10.9383 64.5354 10.9245 64.4704 10.9088C64.3634 10.8819 64.2603 10.8458 64.1559 10.8096C64.0384 10.7696 64.2045 10.828 64.215 10.8359C64.196 10.8215 64.1553 10.8083 64.1356 10.7991C64.0771 10.7709 64.0193 10.74 63.9629 10.7072C63.9195 10.6816 63.8762 10.6547 63.8349 10.6265C63.8191 10.616 63.7843 10.5831 63.7633 10.5766C63.8657 10.6107 63.8736 10.6665 63.8138 10.6146C63.7272 10.5385 63.6425 10.4623 63.5657 10.375C63.5525 10.3599 63.5283 10.3218 63.5105 10.3087C63.609 10.3789 63.59 10.4197 63.5493 10.3573C63.5171 10.308 63.4836 10.2595 63.4547 10.2089C63.4285 10.1649 63.4094 10.1039 63.3779 10.0638C63.3825 10.0697 63.4475 10.2509 63.4101 10.1406C63.4022 10.117 63.393 10.0927 63.3851 10.0691C63.3523 9.97124 63.3444 9.86618 63.3142 9.76836C63.3162 9.77558 63.3333 9.9732 63.326 9.85174C63.3241 9.82548 63.3214 9.79922 63.3195 9.7723C63.3168 9.71846 63.3155 9.66463 63.3155 9.61079C63.3162 9.5563 63.3181 9.5018 63.3214 9.44665C63.3267 9.37509 63.3713 9.21357 63.3175 9.44008C63.3437 9.32978 63.3562 9.21749 63.3844 9.10719C63.4173 8.98179 63.46 8.86035 63.504 8.73823C63.5217 8.68702 63.567 8.63777 63.477 8.79863C63.4941 8.76777 63.5066 8.7323 63.521 8.69947C63.5486 8.64104 63.5775 8.58393 63.6083 8.52681C63.6694 8.41453 63.737 8.30555 63.8112 8.20116C63.8257 8.17949 63.8486 8.1552 63.8604 8.13287C63.8375 8.17818 63.7528 8.2622 63.8329 8.1716C63.8736 8.12499 63.913 8.0784 63.9557 8.03375C63.9931 7.99501 64.0312 7.95759 64.0712 7.92148C64.0903 7.9031 64.1106 7.88537 64.131 7.8683C64.192 7.81643 64.259 7.80788 64.1008 7.8893C64.1953 7.84071 64.2833 7.77178 64.3772 7.72057C64.5098 7.6477 64.2091 7.77833 64.3851 7.71859C64.4369 7.70086 64.4901 7.68839 64.5433 7.6746C64.6904 7.63652 64.3535 7.68578 64.5413 7.67396C64.6037 7.67068 64.6641 7.67198 64.7265 7.67592C65.1211 7.70218 65.4986 7.30956 65.4808 6.92088C65.4618 6.48953 65.1493 6.19473 64.7265 6.16585Z" fill="#1F1F1F"/>
<path d="M68.1793 18.662C67.8859 18.3074 67.3547 18.2982 66.8945 18.3173C47.3404 19.1386 27.737 18.792 8.22425 17.2819L7.99972 17.2812C8.37658 28.3704 7.12518 39.8272 7.50204 50.9171C26.0569 52.7016 48.5471 52.8565 67.1709 52.0674L67.0396 51.9465C67.7532 41.2034 68.2089 30.4425 68.4039 19.677C68.4098 19.3224 68.4058 18.9351 68.1793 18.662Z" fill="#1F1F1F"/>
<path d="M8.22414 18.0363C14.3793 18.5123 20.5437 18.8734 26.7133 19.1189C32.8423 19.3619 38.9758 19.4905 45.1093 19.5043C51.2631 19.5188 57.4176 19.4177 63.5676 19.201C64.3338 19.1734 65.1 19.1452 65.8662 19.1143C66.2378 19.0992 66.6094 19.0789 66.9816 19.069C67.0998 19.0658 67.2187 19.0631 67.3375 19.0723C67.4124 19.0782 67.5246 19.1032 67.5739 19.1281C67.5922 19.138 67.6028 19.1439 67.6119 19.1688C67.6632 19.3139 67.6481 19.3428 67.65 19.4978C67.6553 19.8602 67.6389 20.2246 67.6323 20.5876C67.6159 21.3768 67.5995 22.166 67.5817 22.9545C67.5102 26.0305 67.4189 29.1051 67.3053 32.1797C67.0788 38.3284 66.7676 44.4743 66.3717 50.6144C66.3487 50.9782 66.3251 51.3412 66.3008 51.7043C66.2746 52.093 66.356 52.3431 66.6363 52.6018C66.8149 52.1718 66.9922 51.7424 67.1708 51.313C63.4094 51.4719 59.6473 51.5868 55.884 51.6616C51.9433 51.7397 48.0021 51.7745 44.0614 51.764C40.0578 51.7542 36.0541 51.6984 32.0517 51.5907C28.0999 51.4837 24.1488 51.3274 20.2023 51.1088C16.4173 50.8994 12.6355 50.6335 8.86033 50.2894C8.40797 50.2487 7.95429 50.2061 7.50193 50.1627C7.75404 50.4142 8.00485 50.6656 8.25696 50.9171C8.11055 46.5418 8.21231 42.1633 8.3666 37.79C8.52155 33.4095 8.73034 29.0309 8.80125 24.6478C8.8413 22.1923 8.83606 19.7361 8.75399 17.2813C8.72182 16.3122 7.21174 16.3076 7.24457 17.2813C7.39098 21.6565 7.28987 26.0351 7.13493 30.409C6.97998 34.7889 6.77184 39.1681 6.70028 43.5499C6.66089 46.0061 6.66482 48.4629 6.74689 50.9171C6.76199 51.3544 7.08305 51.6321 7.50193 51.6728C11.2476 52.0313 15.0004 52.3129 18.7559 52.5355C22.6887 52.7686 26.6247 52.9386 30.5614 53.0574C34.5637 53.1776 38.5667 53.2465 42.5704 53.2682C46.5248 53.2892 50.4805 53.2656 54.435 53.1986C58.2272 53.133 62.0181 53.0279 65.8077 52.8782C66.2614 52.8605 66.7158 52.8421 67.1708 52.8224C67.7912 52.7962 68.2081 51.9971 67.7039 51.5343C67.6605 51.4935 67.6165 51.4541 67.5732 51.4134C67.6468 51.5907 67.7209 51.7693 67.7938 51.9466C68.2061 45.7474 68.5324 39.5417 68.7714 33.3326C68.8909 30.2383 68.9887 27.1433 69.0649 24.0477C69.1023 22.5343 69.1811 21.0111 69.1601 19.4978C69.1489 18.7408 68.8725 18.0402 68.1346 17.731C67.501 17.4664 66.7755 17.5675 66.1084 17.5951C59.9191 17.8452 53.7246 17.9778 47.5306 17.9943C41.3564 18.0107 35.1822 17.9109 29.0119 17.6949C22.8416 17.4782 16.6753 17.1467 10.5175 16.6989C9.7526 16.6431 8.98836 16.5853 8.22414 16.5262C7.81642 16.4947 7.46846 16.8959 7.46846 17.2813C7.46846 17.7159 7.8151 18.0048 8.22414 18.0363Z" fill="#1F1F1F"/>
<path d="M56.0986 23.7593C55.9108 23.4961 55.5714 23.4902 55.2772 23.504C42.7784 24.1119 30.2481 23.8552 17.7756 22.7364H17.6331C17.8734 30.9486 17.1821 39.1115 17.4224 47.323C29.2824 48.644 43.5499 49.08 55.4539 48.4963L55.3698 48.407C55.8261 40.4516 56.1176 32.4823 56.2424 24.5104C56.2463 24.2485 56.243 23.9609 56.0986 23.7593Z" fill="#FFF9F5"/>
<path d="M17.7758 23.4916C21.9232 23.8633 26.0792 24.141 30.2391 24.3215C34.3833 24.5027 38.5333 24.5887 42.6814 24.5789C46.8302 24.5697 50.9796 24.4653 55.1238 24.2664C55.2275 24.2618 55.3319 24.2539 55.4369 24.2546C55.4717 24.2552 55.5078 24.2578 55.5439 24.2578C55.7212 24.2578 55.3857 24.2132 55.5525 24.2618C55.6004 24.2756 55.6661 24.3143 55.5184 24.2395C55.6667 24.3143 55.433 24.1574 55.5118 24.2303C55.6063 24.3176 55.4015 24.0858 55.4501 24.1121C55.4619 24.1187 55.4987 24.2716 55.4941 24.2834C55.4901 24.2565 55.4855 24.2303 55.4816 24.2033C55.4849 24.244 55.4868 24.2854 55.4875 24.3268C55.4888 24.3681 55.4888 24.4088 55.4881 24.4502C55.4881 24.573 55.4849 24.6971 55.4829 24.8205C55.4783 25.0785 55.4737 25.3365 55.4691 25.5946C55.4507 26.6516 55.4297 27.7093 55.4054 28.7677C55.3575 30.8437 55.2984 32.9197 55.2275 34.9951C55.0857 39.159 54.8992 43.3208 54.6681 47.4801C54.653 47.7375 54.6392 47.9948 54.6241 48.2529C54.609 48.5161 54.6537 48.7348 54.8368 48.9403C54.8637 48.9711 54.8926 49 54.9202 49.0302C55.0981 48.6008 55.2761 48.1714 55.454 47.7414C53.0569 47.8589 50.6572 47.9311 48.2582 47.9679C45.7508 48.006 43.2421 48.0047 40.7354 47.9673C38.1768 47.9298 35.6189 47.8556 33.0629 47.7447C30.547 47.6357 28.0337 47.4913 25.5231 47.3081C23.1102 47.1315 20.6994 46.9194 18.2938 46.6634C18.0036 46.6325 17.7134 46.6003 17.4225 46.5682C17.6747 46.8196 17.9261 47.0717 18.1782 47.3232C18.085 44.1238 18.1316 40.9231 18.2104 37.7244C18.2905 34.5289 18.4008 31.3335 18.431 28.1368C18.4487 26.3365 18.4395 24.5362 18.3877 22.7366C18.3759 22.3427 18.0482 21.9638 17.6333 21.9822C17.2334 21.9999 16.8658 22.3144 16.8776 22.7366C16.9708 25.9353 16.9236 29.136 16.8441 32.3347C16.7653 35.5308 16.655 38.7263 16.6242 41.923C16.6071 43.7233 16.6163 45.5236 16.6682 47.3232C16.6806 47.7644 17.0056 48.0316 17.4225 48.0782C19.8104 48.3435 22.2029 48.5641 24.598 48.7486C27.1001 48.9409 29.6042 49.0939 32.1103 49.2114C34.6662 49.3316 37.2235 49.4143 39.7827 49.4609C42.2986 49.5075 44.8152 49.518 47.3311 49.4898C49.7486 49.4622 52.1647 49.3999 54.5795 49.2922C54.871 49.2791 55.1625 49.2653 55.454 49.2508C56.1099 49.2186 56.4461 48.4505 55.9878 47.9627C55.9602 47.9325 55.932 47.9029 55.9044 47.8734C55.9779 48.0513 56.0515 48.2292 56.125 48.4072C56.3659 44.2092 56.5609 40.0092 56.7093 35.8072C56.7829 33.7194 56.8452 31.6303 56.8964 29.5418C56.9214 28.4965 56.945 27.452 56.9647 26.4067C56.9739 25.8782 56.9838 25.3497 56.9923 24.8205C57.0008 24.2565 57.0186 23.6834 56.6325 23.2257C56.2957 22.8266 55.775 22.7294 55.2774 22.7491C54.7515 22.7707 54.2256 22.799 53.699 22.8213C52.659 22.8659 51.6197 22.9047 50.5791 22.9368C48.4998 23.0025 46.4192 23.0432 44.3379 23.0603C40.1511 23.0957 35.9636 23.0334 31.7787 22.8751C27.6188 22.7169 23.4615 22.4641 19.3128 22.1155C18.8006 22.0728 18.2885 22.0275 17.7758 21.9822C17.3818 21.9468 17.0043 22.3545 17.0214 22.7366C17.0404 23.1758 17.3536 23.4536 17.7758 23.4916Z" fill="#FFF9F5"/>
<path d="M48.2504 6.62216C48.0534 6.55125 47.6956 6.54926 47.3857 6.5532C34.2166 6.718 21.0146 6.64842 7.87304 6.34575H7.72205C7.97613 8.5649 7.82317 10.8346 8.07725 13.0537C20.5728 13.4109 35.0301 13.4647 47.5715 13.3072L47.9044 13.2704C48.385 11.1202 48.2707 8.97983 48.4021 6.82502C48.4066 6.75412 48.4034 6.67665 48.2504 6.62216Z" fill="#16A34A"/>
<path d="M7.87298 7.10069C10.9522 7.1716 14.0308 7.22937 17.1107 7.27467C20.1801 7.31997 23.2501 7.35214 26.3202 7.37184C29.4053 7.39154 32.4904 7.39875 35.5762 7.39284C38.6469 7.38693 41.7183 7.36854 44.7896 7.33703C45.5604 7.32915 46.3312 7.32129 47.1014 7.31144C47.2753 7.30947 47.45 7.30551 47.6233 7.30683C47.7021 7.30814 47.7815 7.30946 47.8603 7.31471C47.8918 7.31668 47.924 7.32127 47.9562 7.32193C48.0652 7.32455 47.7881 7.34098 47.9562 7.32391C48.0271 7.31669 47.9831 7.37118 47.966 7.31734C47.9529 7.31078 47.9398 7.30488 47.926 7.29897C47.8341 7.13089 47.7408 6.96281 47.6483 6.79473C47.624 6.85119 47.6397 6.95951 47.6358 7.02253C47.6253 7.21884 47.6167 7.41582 47.6089 7.61279C47.5793 8.35929 47.5675 9.10645 47.5373 9.85295C47.5229 10.22 47.5038 10.5863 47.4769 10.9527C47.4625 11.1358 47.4467 11.319 47.4277 11.5022C47.4191 11.5941 47.4086 11.6854 47.3981 11.7773C47.3935 11.816 47.3889 11.8554 47.3837 11.8948C47.3817 11.9152 47.3581 12.0839 47.3745 11.969C47.3213 12.338 47.257 12.7057 47.1762 13.07C47.4191 12.8849 47.6614 12.7004 47.9043 12.5153C47.4756 12.5625 47.0475 12.5586 46.6168 12.5638C45.9734 12.5711 45.33 12.5783 44.6866 12.5842C43.3879 12.5973 42.0899 12.6078 40.7912 12.6151C38.1407 12.6321 35.4902 12.638 32.8397 12.6354C30.1524 12.6328 27.4652 12.6203 24.7779 12.5973C22.1031 12.5744 19.429 12.5409 16.7548 12.4949C14.1792 12.4509 11.6035 12.3951 9.02852 12.3255C8.71206 12.317 8.39431 12.3078 8.07719 12.2993C8.32931 12.5507 8.58011 12.8022 8.83223 13.0536C8.58208 10.8253 8.72717 8.57465 8.47702 6.34566C8.43303 5.95501 8.16122 5.57157 7.72199 5.59126C7.35038 5.60702 6.91968 5.92546 6.96695 6.34566C7.2171 8.57465 7.07267 10.8253 7.32216 13.0536C7.36943 13.4692 7.63074 13.7962 8.07719 13.8087C10.6496 13.8822 13.2213 13.9406 15.7936 13.9873C18.4481 14.0358 21.1032 14.072 23.7583 14.0976C26.4449 14.1232 29.1322 14.1389 31.8201 14.1435C34.4903 14.1488 37.1618 14.1442 39.8327 14.1304C41.1379 14.1238 42.4431 14.114 43.7484 14.1028C45.0083 14.0917 46.2767 14.1192 47.536 14.0621C47.6594 14.0569 47.7815 14.0385 47.9043 14.0253C48.2241 13.9899 48.5556 13.8166 48.6318 13.4712C48.9738 11.9211 49.0389 10.3349 49.0828 8.75323C49.0933 8.37309 49.1032 7.99293 49.1183 7.61279C49.1327 7.24249 49.2306 6.79275 49.0822 6.44215C48.7388 5.62934 47.5708 5.79611 46.8584 5.80464C43.7063 5.84272 40.5549 5.86702 37.4027 5.87818C34.2493 5.88935 31.0966 5.88671 27.9438 5.87161C24.7924 5.85585 21.6403 5.8263 18.4888 5.78429C15.3413 5.74161 12.1938 5.68646 9.04692 5.61752C8.65562 5.60833 8.26429 5.60045 7.87298 5.59126C7.47839 5.58207 7.10088 5.9445 7.11795 6.34566C7.13699 6.76257 7.45016 7.09084 7.87298 7.10069Z" fill="#1F1F1F"/>
<path d="M31.1503 28.4445C31.3946 33.0489 30.9192 37.7984 31.1635 42.4022L31.2035 42.5781C35.8834 40.5211 41.0971 37.9002 45.3352 35.0422C40.778 32.4968 36.0331 30.2894 31.1503 28.4445Z" fill="#FF856D"/>
<path d="M31.9179 42.4022C31.7282 38.7702 31.9751 35.1355 31.977 31.5015C31.9777 30.4819 31.9586 29.4622 31.9055 28.4446C31.5864 28.6875 31.2686 28.9298 30.9502 29.1727C31.9055 29.5338 32.8548 29.908 33.7996 30.2967C34.0301 30.3912 34.2612 30.4878 34.491 30.5843C34.533 30.602 34.5744 30.6191 34.617 30.6368C34.4634 30.5731 34.6715 30.6604 34.6873 30.6663C34.8127 30.7195 34.9374 30.7734 35.0628 30.8272C35.5323 31.0281 35.9997 31.2329 36.4659 31.4411C38.3206 32.2683 40.1518 33.1494 41.956 34.0824C42.9644 34.603 43.963 35.1414 44.9544 35.6942C44.9544 35.2596 44.9544 34.825 44.9544 34.3903C41.4832 36.729 37.7658 38.6966 33.9861 40.4844C32.9382 40.9795 31.8838 41.4601 30.8228 41.9269C30.4604 42.0858 30.3488 42.6438 30.5517 42.959C30.7939 43.3345 31.197 43.4008 31.5851 43.2301C35.4154 41.5454 39.1847 39.692 42.7813 37.5496C43.776 36.9574 44.7555 36.3409 45.716 35.6942C46.1697 35.3883 46.2374 34.6818 45.716 34.3903C42.1109 32.3786 38.3902 30.5823 34.5783 28.9967C33.5094 28.5529 32.434 28.1261 31.3513 27.7164C30.9022 27.5464 30.3718 27.9856 30.3954 28.4446C30.5851 32.0773 30.3383 35.712 30.3363 39.3453C30.3363 40.3649 30.3554 41.3852 30.4085 42.4022C30.4289 42.7961 30.7407 43.1763 31.1636 43.1579C31.5549 43.1395 31.9409 42.825 31.9179 42.4022Z" fill="#1F1F1F"/>
<path d="M6.57895 57.811C7.13702 58.8411 7.74498 59.845 8.39956 60.8173C8.62017 61.1443 9.0745 61.3189 9.43232 61.0878C9.75797 60.8784 9.9392 60.4057 9.7035 60.0551C9.04826 59.0827 8.44094 58.0795 7.88221 57.0487C7.69378 56.7014 7.18429 56.5622 6.84945 56.7782C6.49688 57.0054 6.37673 57.4394 6.57895 57.811Z" fill="#1F1F1F"/>
<path d="M12.4474 58.6967C12.6561 58.9258 12.8597 59.1608 13.056 59.4005C13.1019 59.4569 13.1485 59.5141 13.1938 59.5712C13.2168 59.5994 13.2392 59.6283 13.2615 59.6572C13.2661 59.6618 13.3744 59.8016 13.3041 59.7104C13.2411 59.6283 13.3166 59.7268 13.3284 59.7425C13.3508 59.7708 13.3724 59.7997 13.3947 59.8292C13.444 59.8949 13.4926 59.9612 13.5411 60.0275C13.9075 60.5284 14.2463 61.0491 14.5588 61.5848C14.7584 61.9269 15.2495 62.0766 15.5916 61.856C15.9363 61.6341 16.0755 61.1883 15.8627 60.8232C15.1963 59.6802 14.4045 58.6087 13.5149 57.6291C13.249 57.3356 12.7139 57.3382 12.4474 57.6291C12.1604 57.9423 12.1637 58.3835 12.4474 58.6967Z" fill="#1F1F1F"/>
<path d="M18.1722 58.8753C18.7703 59.7833 19.3685 60.6913 19.9666 61.5993C20.1833 61.9283 20.6435 62.0983 20.9993 61.8698C21.3276 61.6578 21.5023 61.1896 21.2705 60.8371C20.6717 59.9291 20.0736 59.0217 19.4755 58.1137C19.2582 57.7841 18.7979 57.6134 18.4427 57.8432C18.1145 58.0546 17.9392 58.5227 18.1722 58.8753Z" fill="#1F1F1F"/>
<path d="M25.0082 58.9907C25.6615 59.9453 26.3147 60.9006 26.9674 61.8552C27.1906 62.1802 27.641 62.3582 28.0008 62.1257C28.3245 61.9176 28.5103 61.4416 28.2719 61.0936C27.6187 60.1383 26.9647 59.1837 26.3115 58.2291C26.0889 57.9041 25.6385 57.7262 25.2787 57.9579C24.955 58.1667 24.7699 58.6427 25.0082 58.9907Z" fill="#1F1F1F"/>
<path d="M30.7106 59.3104C31.4124 60.3675 32.1143 61.4239 32.8168 62.4796C33.0348 62.8079 33.493 62.9806 33.8495 62.7508C34.1765 62.5394 34.3531 62.0693 34.12 61.718C33.4182 60.6616 32.7157 59.6052 32.0145 58.5488C31.7958 58.2206 31.3376 58.0479 30.9817 58.2777C30.6541 58.4891 30.4768 58.9592 30.7106 59.3104Z" fill="#1F1F1F"/>
<path d="M37.3423 59.7641C37.9496 60.6656 38.5576 61.567 39.1649 62.4685C39.3855 62.7954 39.8405 62.9701 40.1983 62.7389C40.5233 62.5295 40.7046 62.0568 40.4688 61.7068C39.8609 60.8054 39.2529 59.904 38.6456 59.0025C38.4257 58.6755 37.9707 58.5009 37.6128 58.7314C37.2872 58.9415 37.106 59.4142 37.3423 59.7641Z" fill="#1F1F1F"/>
<path d="M44.1535 59.7478C44.6728 60.5724 45.1921 61.3977 45.7121 62.223C45.9216 62.5565 46.3943 62.7193 46.7442 62.4935C47.0791 62.2781 47.2406 61.8185 47.0154 61.4607C46.4954 60.6354 45.9761 59.8108 45.4567 58.9855C45.2466 58.6513 44.7746 58.4885 44.424 58.715C44.0898 58.9304 43.9283 59.3899 44.1535 59.7478Z" fill="#1F1F1F"/>
<path d="M49.2693 59.4517C49.8668 60.3808 50.4104 61.3439 50.8982 62.3353C51.0729 62.6905 51.6053 62.8159 51.931 62.6058C52.2954 62.3708 52.3886 61.9532 52.2021 61.5737C51.7143 60.5817 51.1707 59.6192 50.5726 58.6901C50.3592 58.3579 49.8924 58.1918 49.5398 58.4196C49.2083 58.633 49.0402 59.0965 49.2693 59.4517Z" fill="#1F1F1F"/>
<path d="M55.1434 59.8785C55.2373 59.9901 55.3292 60.1043 55.4198 60.2192C55.4888 60.3065 55.4021 60.2244 55.4027 60.1969C55.4027 60.2153 55.4573 60.2678 55.4691 60.2842C55.5131 60.3426 55.557 60.4004 55.6004 60.4595C55.779 60.7031 55.9503 60.9519 56.1138 61.2053C56.4368 61.705 56.729 62.2223 56.9929 62.7555C57.1682 63.11 57.6994 63.2367 58.0257 63.026C58.3894 62.7922 58.4839 62.3727 58.2968 61.9932C57.7315 60.8508 57.0244 59.7911 56.211 58.8109C55.9588 58.5056 55.4021 58.5292 55.1434 58.8109C54.846 59.1352 54.8735 59.5521 55.1434 59.8785Z" fill="#1F1F1F"/>
<path d="M61.3264 59.7563C61.8641 60.6197 62.4012 61.4837 62.9389 62.3477C63.1477 62.6832 63.6223 62.8434 63.9716 62.6182C64.3071 62.4016 64.466 61.9446 64.2428 61.5861C63.7051 60.7221 63.168 59.8581 62.6303 58.9941C62.4215 58.6592 61.9468 58.4984 61.5975 58.7235C61.262 58.9402 61.1038 59.3972 61.3264 59.7563Z" fill="#1F1F1F"/>
<path d="M66.3167 59.1438C66.9542 60.1582 67.5917 61.1733 68.2299 62.1883C68.44 62.5225 68.9127 62.6846 69.2627 62.4588C69.5975 62.2428 69.7584 61.7838 69.5332 61.426C68.8963 60.411 68.2581 59.3966 67.62 58.3816C67.4099 58.0474 66.9371 57.8846 66.5872 58.1111C66.2524 58.3264 66.0915 58.786 66.3167 59.1438Z" fill="#1F1F1F"/>
<path d="M71.8048 59.0511C72.567 60.2014 73.33 61.351 74.0922 62.5013C74.3102 62.8302 74.7691 63.0009 75.125 62.7718C75.4526 62.5604 75.6292 62.0916 75.3955 61.7397C74.6332 60.5894 73.871 59.4391 73.1087 58.2888C72.8907 57.9606 72.4311 57.7885 72.0753 58.0183C71.7477 58.2297 71.5717 58.6992 71.8048 59.0511Z" fill="#1F1F1F"/>
<path d="M74.4001 54.7869C74.4146 54.8053 74.429 54.8237 74.4441 54.8427C74.4041 54.7915 74.3654 54.7403 74.326 54.6898C74.7823 55.2813 75.1617 55.9267 75.4565 56.6128C75.5255 56.7743 75.7461 56.9155 75.9069 56.9595C76.0881 57.0094 76.3284 56.987 76.4886 56.884C76.6502 56.7796 76.792 56.6246 76.836 56.4329C76.8452 56.3659 76.8543 56.2983 76.8629 56.232C76.8622 56.0961 76.8281 55.9681 76.7598 55.8512C76.4276 55.0791 75.985 54.3792 75.4677 53.7194C75.3567 53.5776 75.1046 53.4981 74.9339 53.4981C74.7488 53.4981 74.5275 53.5802 74.4001 53.7194C74.2682 53.8625 74.1704 54.0522 74.1796 54.2531C74.1881 54.3201 74.1973 54.3864 74.2064 54.4534C74.2419 54.5814 74.3069 54.6924 74.4001 54.7869Z" fill="#1F1F1F"/>
<path d="M74.613 49.4905C75.196 50.3585 75.779 51.2258 76.3627 52.0931C76.5826 52.4207 77.0376 52.5947 77.3955 52.3643C77.7211 52.1542 77.901 51.6814 77.6659 51.3315C77.0823 50.4642 76.4999 49.5956 75.9162 48.7283C75.6963 48.4013 75.2413 48.2267 74.8835 48.4578C74.5578 48.6679 74.3766 49.1399 74.613 49.4905Z" fill="#1F1F1F"/>
<path d="M74.3804 43.1934C75.0672 44.0127 75.754 44.8308 76.4407 45.6489C76.5589 45.7894 76.7979 45.8701 76.9738 45.8701C77.1596 45.8701 77.3809 45.7881 77.5076 45.6489C77.6396 45.5051 77.7374 45.316 77.7289 45.1144C77.7197 44.905 77.6429 44.7422 77.5076 44.5813C76.8215 43.7632 76.1348 42.9452 75.448 42.1258C75.3298 41.9859 75.0909 41.9059 74.9142 41.9059C74.7284 41.9059 74.5085 41.9879 74.3804 42.1258C74.2485 42.2702 74.1507 42.4587 74.1592 42.6602C74.1691 42.8697 74.2452 43.0332 74.3804 43.1934Z" fill="#1F1F1F"/>
<path d="M74.3936 38.2077C74.8361 38.6633 75.255 39.1413 75.6469 39.6409C75.6587 39.656 75.7362 39.7545 75.6725 39.6738C75.6095 39.5924 75.6857 39.6915 75.6975 39.7073C75.748 39.7729 75.7973 39.8392 75.8472 39.9062C75.9398 40.0316 76.031 40.159 76.121 40.2876C76.3048 40.5516 76.4814 40.8208 76.6515 41.0945C76.8602 41.43 77.3356 41.5902 77.6842 41.365C78.0204 41.1484 78.1779 40.6914 77.9554 40.3329C77.2417 39.1846 76.402 38.1092 75.4611 37.1401C75.1854 36.8558 74.666 36.8427 74.3936 37.1401C74.1132 37.4454 74.0988 37.905 74.3936 38.2077Z" fill="#1F1F1F"/>
<path d="M74.672 31.7464C74.8814 31.969 75.0849 32.1961 75.2826 32.4292C75.3817 32.5461 75.4782 32.6636 75.5741 32.7831C75.622 32.8428 75.6673 32.921 75.7238 32.9735C75.689 32.9407 75.6476 32.8737 75.7047 32.9485C75.7317 32.9847 75.7592 33.0201 75.7861 33.0562C76.1571 33.5526 76.5011 34.0693 76.8163 34.6024C77.0178 34.9425 77.505 35.0948 77.849 34.8736C78.1917 34.653 78.3355 34.2045 78.1195 33.8408C77.4479 32.7043 76.6442 31.6407 75.7395 30.6788C75.4677 30.3906 74.9418 30.3847 74.672 30.6788C74.3883 30.9881 74.3824 31.4391 74.672 31.7464Z" fill="#1F1F1F"/>
<path d="M74.691 26.9037C74.8795 27.0862 75.0613 27.2753 75.2366 27.471C75.3266 27.5721 75.4139 27.6745 75.4999 27.7789C75.5432 27.8307 75.5853 27.8833 75.6273 27.9358C75.6457 27.9594 75.6654 27.9824 75.6831 28.0073C75.6614 27.9798 75.6411 27.9529 75.6201 27.9253C75.6332 27.943 75.647 27.9607 75.6607 27.9791C75.9824 28.4039 76.27 28.853 76.5254 29.3205C76.7145 29.6671 77.222 29.8076 77.5582 29.591C77.9101 29.3638 78.0316 28.9292 77.8287 28.5575C77.2818 27.5556 76.5773 26.6312 75.7592 25.8361C75.4749 25.5604 74.9701 25.5328 74.691 25.8361C74.4179 26.1336 74.3884 26.6096 74.691 26.9037Z" fill="#1F1F1F"/>
<path d="M75.0107 20.5818C75.683 21.5233 76.3553 22.4641 77.027 23.4056C77.1445 23.5691 77.2785 23.6971 77.4787 23.7523C77.6593 23.8015 77.9002 23.7792 78.0604 23.6761C78.3782 23.4713 78.5765 22.9867 78.3309 22.6434C77.6586 21.7019 76.9863 20.7604 76.314 19.8195C76.1978 19.6561 76.0638 19.528 75.8636 19.4729C75.683 19.4223 75.4414 19.4453 75.2812 19.549C74.9634 19.7539 74.7652 20.2384 75.0107 20.5818Z" fill="#1F1F1F"/>
<path d="M75.0009 15.4396C75.0803 15.5322 75.1584 15.6261 75.2339 15.7213C75.253 15.7456 75.272 15.7692 75.2911 15.7929C75.3896 15.9183 75.2149 15.6918 75.2707 15.7673C75.3068 15.8158 75.3443 15.8638 75.3804 15.9137C75.5288 16.1159 75.6699 16.3247 75.8038 16.5374C76.0717 16.9628 76.3087 17.408 76.5149 17.8669C76.5878 18.0284 76.8025 18.1683 76.966 18.2142C77.1465 18.2635 77.3868 18.2412 77.547 18.1374C77.7092 18.0337 77.8503 17.8794 77.8943 17.6864C77.9422 17.4769 77.9055 17.2997 77.8188 17.1047C77.3723 16.1113 76.7749 15.2 76.0685 14.3721C75.8117 14.0701 75.2622 14.0878 75.0009 14.3721C74.7061 14.6925 74.7271 15.1179 75.0009 15.4396Z" fill="#1F1F1F"/>
<path d="M74.2945 8.79664C74.9458 9.75324 75.5958 10.7099 76.2464 11.6664C76.4677 11.9928 76.92 12.1687 77.2785 11.9376C77.6029 11.7282 77.7873 11.2541 77.5497 10.9048C76.899 9.94824 76.2491 8.99165 75.5984 8.0344C75.3772 7.70875 74.9241 7.53213 74.565 7.76389C74.2407 7.97267 74.0575 8.44736 74.2945 8.79664Z" fill="#1F1F1F"/>
</svg>
