<svg width="72" height="68" viewBox="0 0 72 68" fill="none" xmlns="http://www.w3.org/2000/svg">
<path d="M44.0464 3.15036C43.5763 2.26329 43.0265 1.30106 42.2251 0.930192C41.5325 0.609445 40.8324 0.814923 40.1904 1.03043C31.3127 4.00235 22.6746 7.63079 14.3336 11.8857L13.9201 12.1112C11.7371 14.166 13.3338 19.4383 14.5892 22.9916C19.3488 36.443 24.2367 49.8592 29.2519 63.2269C29.4308 63.703 29.6197 64.1971 29.943 64.5685C30.4071 65.1023 31.0521 65.2766 31.643 65.3458C33.3915 65.5488 35.0414 65.0847 36.6491 64.6021C44.5145 62.2401 52.2029 59.3659 59.6743 55.994C60.8059 55.4833 62.0233 54.8509 62.4172 53.4827C62.7409 52.355 62.4257 50.9969 62.0984 49.7289C57.9433 33.6465 51.835 17.8897 44.0464 3.15036Z" fill="white"/>
<path d="M13.4496 11.5049C11.9841 12.9132 11.9385 15.0782 12.1886 16.9676C12.4753 19.1276 13.1579 21.2326 13.8811 23.2823C15.994 29.2663 18.1375 35.2352 20.303 41.1991C22.4696 47.163 24.6607 53.1169 26.8769 59.0617C27.4306 60.5487 27.9844 62.0356 28.5437 63.5201C28.8084 64.2217 29.1161 64.9064 29.7034 65.3985C30.1931 65.8085 30.8371 66.0134 31.4615 66.0956C32.9214 66.288 34.3708 66.0235 35.7771 65.6456C37.2455 65.2507 38.6969 64.7806 40.1453 64.317C46.1573 62.3925 52.0716 60.1638 57.8571 57.6389C58.5627 57.3307 59.2663 57.0195 59.9675 56.7017C60.5298 56.4476 61.0906 56.1715 61.5953 55.8142C62.6818 55.0414 63.2937 53.8737 63.3128 52.5456C63.3328 51.1423 62.8998 49.7741 62.544 48.4309C62.14 46.9024 61.7206 45.3788 61.2835 43.8603C59.5686 37.9014 57.5929 32.0177 55.3688 26.2292C53.1416 20.4307 50.6648 14.7274 47.946 9.1444C47.2654 7.75115 46.5693 6.35789 45.8581 4.97467C45.4937 4.26802 45.1269 3.56137 44.7545 2.85973C44.4513 2.28339 44.1406 1.70205 43.7271 1.20088C43.2696 0.644587 42.6962 0.208551 41.9831 0.0531892C41.334 -0.0871379 40.6765 0.0732261 40.0591 0.268682C38.5756 0.744791 37.1067 1.27606 35.6413 1.80229C29.7044 3.9523 23.8749 6.39796 18.1831 9.12932C16.7938 9.79588 15.4131 10.4775 14.0404 11.1791C13.6716 11.3646 13.4581 11.7755 13.6255 12.1815C13.7743 12.5373 14.2559 12.7828 14.6268 12.5974C20.1146 9.79589 25.7377 7.25999 31.4726 5.01475C34.3047 3.90216 37.1633 2.85971 40.0455 1.88744C40.2185 1.8273 40.3908 1.77218 40.5648 1.71204C40.6319 1.69199 40.7001 1.66694 40.7682 1.64689C40.7903 1.64188 40.9627 1.59179 40.8599 1.61684C41.1296 1.55169 41.3882 1.5116 41.6012 1.54167C41.8558 1.57174 41.9755 1.64188 42.175 1.79724C42.38 1.95762 42.4998 2.10299 42.6822 2.35357C43.0515 2.85975 43.2996 3.37093 43.6028 3.94728C43.9557 4.61884 44.304 5.2904 44.6493 5.96697C47.4077 11.3595 49.9361 16.8674 52.2294 22.4704C54.5228 28.0735 56.5811 33.7718 58.3948 39.5502C59.2954 42.4219 60.1364 45.3087 60.9147 48.2154C61.257 49.4934 61.6845 50.7965 61.7777 52.1246C61.8549 53.2221 61.4945 54.029 60.5854 54.6505C60.5173 54.6956 60.4466 54.7406 60.3769 54.7857C60.3664 54.7907 60.2481 54.8659 60.3403 54.8108C60.2211 54.881 60.0978 54.9411 59.9745 55.0063C59.7104 55.1366 59.4402 55.2619 59.1706 55.3806C58.469 55.6964 57.7648 56.0076 57.0592 56.3148C55.6479 56.9288 54.2291 57.5251 52.8023 58.1035C49.9496 59.2607 47.0679 60.3472 44.1606 61.3616C41.327 62.3504 38.4694 63.3026 35.5806 64.1215C34.3523 64.4698 33.0372 64.7395 31.7472 64.5861C31.2661 64.529 30.8441 64.4247 30.5479 64.0975C30.1144 63.6199 29.941 62.8831 29.7155 62.2812C27.5499 56.5028 25.4074 50.7163 23.289 44.9178C21.1706 39.1243 19.0762 33.3207 17.0053 27.5072C16.1318 25.0565 15.1886 22.6158 14.4514 20.1149C14.3787 19.8694 14.3101 19.6238 14.2429 19.3782C14.1742 19.1276 14.2615 19.4534 14.2224 19.303C14.2058 19.2379 14.1888 19.1778 14.1722 19.1076C14.1362 18.9673 14.1011 18.8219 14.067 18.6766C13.9492 18.1754 13.846 17.6743 13.7658 17.1631C13.6881 16.6669 13.6315 16.1707 13.6099 15.6696C13.6044 15.5493 13.6024 15.429 13.6009 15.3088C13.5969 15.0832 13.5974 15.399 13.6009 15.2636C13.6024 15.2035 13.6039 15.1484 13.6064 15.0932C13.6159 14.8677 13.6345 14.6472 13.6651 14.4267C13.6941 14.2162 13.7332 14.0107 13.7873 13.8053C13.7417 13.9807 13.8179 13.72 13.833 13.6749C13.862 13.5947 13.8936 13.5096 13.9282 13.4294C13.9663 13.3392 14.0124 13.254 14.053 13.1688C14.1301 12.9984 13.9918 13.264 14.0545 13.1637C14.0795 13.1236 14.1041 13.0836 14.1306 13.0435C14.1833 12.9683 14.2399 12.8931 14.2995 12.818C14.3236 12.7929 14.3507 12.7628 14.3732 12.7377C14.4885 12.5874 14.2544 12.848 14.3913 12.7177C14.69 12.427 14.7982 11.991 14.5251 11.6402C14.2915 11.3395 13.7498 11.2192 13.4496 11.5049Z" fill="#1F1F1F"/>
<path d="M42.8938 9.08415C42.3375 8.07179 41.6524 7.0143 40.7002 6.63341C39.9073 6.31768 39.1059 6.54322 38.3627 6.77877C31.4686 8.95384 24.8016 11.7855 18.4408 15.2335C17.4139 15.7898 15.976 16.7921 16.5905 18.2755L16.6616 18.3858C20.9201 31.1305 25.633 43.7449 30.7825 56.1799C31.2722 57.3612 31.9262 58.7038 32.9917 59.0356C33.5274 59.2025 34.0557 59.0661 34.5578 58.9273C41.702 56.9482 48.6758 54.4448 55.4285 51.4278C56.1908 51.087 56.9931 50.7011 57.3886 49.8842C57.985 48.6513 57.4477 46.9524 56.9094 45.489C53.726 36.8438 50.5421 28.1987 47.3587 19.5535C46.0461 15.9902 44.722 12.4019 42.8938 9.08415Z" fill="#F2A227"/>
<path d="M15.9535 18.6765C17.5718 23.5178 19.2537 28.3391 21.0003 33.1403C22.7478 37.9415 24.5591 42.7176 26.4344 47.4686C27.3776 49.8592 28.3374 52.2448 29.3126 54.6254C29.7386 55.6628 30.118 56.7453 30.6628 57.7291C31.1815 58.6648 31.8701 59.5584 32.9637 59.817C33.5535 59.9563 34.1359 59.828 34.7072 59.6746C35.3186 59.5108 35.9271 59.3343 36.535 59.1579C37.7608 58.8031 38.9827 58.4322 40.199 58.0453C42.5996 57.2825 44.9807 56.4586 47.3387 55.5746C49.7252 54.6805 52.0887 53.7232 54.4257 52.7059C54.9719 52.4703 55.5212 52.2398 56.059 51.9842C56.5441 51.7537 57.0292 51.483 57.4166 51.1072C58.234 50.3103 58.4886 49.2428 58.3934 48.1302C58.3072 47.1229 57.9639 46.1406 57.6176 45.1984C57.1746 43.9906 56.7285 42.7827 56.284 41.5749C55.4005 39.1743 54.5164 36.7788 53.6328 34.3782C51.8652 29.577 50.0976 24.7758 48.3305 19.9796C47.4554 17.599 46.5914 15.2185 45.5891 12.8931C45.0864 11.7254 44.5491 10.5777 43.9583 9.45006C43.4305 8.44772 42.8918 7.43037 42.0659 6.63852C41.246 5.85169 40.1599 5.56601 39.0523 5.80156C38.474 5.92184 37.9102 6.11727 37.3484 6.29769C36.7324 6.49816 36.1185 6.70368 35.5061 6.91417C33.104 7.73608 30.7294 8.63818 28.388 9.62047C26.0606 10.5927 23.7657 11.6452 21.5085 12.7728C20.3648 13.3491 19.2261 13.9305 18.106 14.5469C17.4064 14.9328 16.7103 15.3789 16.2246 16.0254C15.6628 16.7771 15.536 17.6943 15.8823 18.5663C16.0302 18.9422 16.5118 19.1577 16.8837 18.9823C17.2646 18.8019 17.457 18.3809 17.2981 17.9799C17.2751 17.9198 17.2555 17.8597 17.2335 17.8045C17.2425 17.8246 17.2656 17.9649 17.2405 17.8296C17.224 17.7344 17.2134 17.6441 17.2049 17.5489C17.1994 17.4888 17.2325 17.4487 17.2044 17.589C17.2109 17.554 17.2099 17.5189 17.2139 17.4838C17.2205 17.4337 17.2335 17.3836 17.2405 17.3284C17.2255 17.4387 17.2104 17.4236 17.246 17.3234C17.2721 17.2482 17.3057 17.1831 17.3372 17.1129C17.3598 17.0628 17.4319 16.9776 17.3282 17.1229C17.3478 17.0979 17.3653 17.0678 17.3848 17.0378C17.4345 16.9626 17.4876 16.8974 17.5442 16.8273C17.5673 16.8022 17.5918 16.7771 17.6144 16.747C17.7216 16.6218 17.5101 16.8423 17.6244 16.7371C17.8885 16.4915 18.1732 16.276 18.4794 16.0855C18.5085 16.0705 18.538 16.0505 18.5676 16.0354C18.7159 15.9402 18.4428 16.1005 18.543 16.0454C18.6072 16.0153 18.6698 15.9753 18.734 15.9402C19.0252 15.7848 19.3178 15.6244 19.611 15.4691C21.7851 14.3164 23.9967 13.2339 26.241 12.2215C28.4987 11.2091 30.7891 10.2619 33.108 9.39994C34.2602 8.96894 35.4199 8.55296 36.5861 8.16205C37.1539 7.9716 37.7237 7.78115 38.2951 7.60073C38.5557 7.51553 38.8163 7.43036 39.0799 7.35518C38.9431 7.39528 39.1952 7.33012 39.2418 7.32009C39.3866 7.29002 39.5335 7.26494 39.6808 7.24991C39.7299 7.24991 39.7795 7.24494 39.8287 7.23993C40.0587 7.22489 39.753 7.23491 39.8893 7.23993C40.0021 7.24995 40.1123 7.26495 40.2236 7.285C40.4521 7.32509 40.1649 7.25993 40.2952 7.30003C40.3539 7.32508 40.4115 7.34515 40.4681 7.37021C40.5092 7.38524 40.5488 7.40527 40.5894 7.42532C40.7433 7.49548 40.5268 7.37023 40.6531 7.46545C40.7463 7.5306 40.841 7.59574 40.9297 7.67091C40.9658 7.70098 40.9999 7.73104 41.0355 7.76111C41.2084 7.90645 40.9438 7.65086 41.0986 7.82126C41.2665 8.00168 41.4234 8.19214 41.5682 8.39261C41.7025 8.57804 41.8273 8.76846 41.9466 8.96391C41.9862 9.02907 42.0258 9.09424 42.0644 9.15939C42.0473 9.12932 41.9982 9.03908 42.0754 9.17941C42.1506 9.31472 42.2247 9.44503 42.2984 9.58034C42.5901 10.1216 42.8682 10.6629 43.1359 11.2142C44.2099 13.4143 45.1064 15.6996 45.9634 17.99C47.6955 22.6258 49.3869 27.2766 51.0969 31.9225C52.8149 36.5883 54.551 41.2492 56.2509 45.9201C56.4108 46.3561 56.5627 46.8021 56.6849 47.2532C56.6469 47.1128 56.688 47.2682 56.6965 47.3033C56.711 47.3584 56.725 47.4185 56.7381 47.4787C56.7611 47.5839 56.7827 47.6892 56.8017 47.7995C56.8443 48.04 56.8749 48.2806 56.8854 48.5261C56.8874 48.5712 56.8879 48.6164 56.8894 48.6615C56.8859 48.5111 56.8884 48.6564 56.8864 48.6965C56.8819 48.7967 56.8734 48.892 56.8604 48.9872C56.8458 49.0975 56.8258 49.2027 56.8002 49.303C56.8072 49.2729 56.8468 49.1676 56.7987 49.2979C56.7772 49.3581 56.7571 49.4182 56.7326 49.4733C56.711 49.5234 56.6874 49.5736 56.6629 49.6237C56.6002 49.749 56.7586 49.5034 56.6223 49.6889C56.5486 49.7941 56.475 49.8943 56.3868 49.9845C56.474 49.8943 56.2885 50.0647 56.2534 50.0948C56.1372 50.19 56.0139 50.2702 55.8881 50.3504C55.8675 50.3654 55.7563 50.4256 55.8726 50.3604C55.8179 50.3905 55.7628 50.4205 55.7072 50.4506C55.6074 50.5007 55.5067 50.5509 55.405 50.596C55.1444 50.7213 54.8802 50.8315 54.6176 50.9518C54.0418 51.2024 53.4644 51.4529 52.8856 51.7035C51.757 52.1846 50.6223 52.6507 49.4822 53.1068C44.917 54.921 40.2622 56.5063 35.5397 57.8599C35.2515 57.9426 34.9633 58.0243 34.6746 58.105C34.5383 58.1431 34.401 58.1802 34.2647 58.2192C34.0351 58.2849 34.3494 58.1992 34.2101 58.2343C34.1249 58.2558 34.0392 58.2764 33.953 58.2934C33.8422 58.3154 33.7304 58.333 33.6177 58.3425C33.5871 58.3455 33.4262 58.3505 33.5525 58.352C33.5024 58.3515 33.4508 58.3465 33.4012 58.3405C33.4227 58.343 33.1782 58.3009 33.2669 58.3215C33.3445 58.34 33.1571 58.2819 33.1681 58.2864C33.13 58.2714 33.0929 58.2518 33.0549 58.2373C32.899 58.1786 33.135 58.3024 33.0078 58.2147C32.9205 58.1546 32.8349 58.0949 32.7537 58.0263C32.7206 57.9977 32.689 57.9687 32.6569 57.9396C32.7877 58.0594 32.6304 57.9085 32.6138 57.89C32.4595 57.7181 32.3227 57.5311 32.1974 57.3372C32.1713 57.2971 32.1467 57.256 32.1217 57.2154C31.9994 57.0209 32.1618 57.2976 32.0971 57.1743C32.046 57.0771 31.9919 56.9813 31.9418 56.8836C31.831 56.6651 31.7288 56.4426 31.631 56.218C30.6538 53.9688 29.7627 51.6785 28.8521 49.4032C27.0078 44.7924 25.2231 40.1566 23.4986 35.5008C21.7811 30.8599 20.1227 26.1991 18.5255 21.5132C18.1366 20.3755 17.7512 19.2329 17.3698 18.0902C17.242 17.7093 16.7253 17.5088 16.3685 17.6742C15.97 17.8647 15.8172 18.2706 15.9535 18.6765Z" fill="#1F1F1F"/>
<path d="M45.8422 56.9678C45.776 56.9843 45.6853 56.9983 45.6232 57.0264C45.5856 57.0434 45.5505 57.0675 45.5154 57.0876C45.4743 57.1116 45.4407 57.1267 45.4072 57.1542C45.3826 57.1743 45.3165 57.2454 45.331 57.2309C45.323 57.2389 45.2739 57.2835 45.2533 57.3111C45.2468 57.3191 45.2418 57.3276 45.2363 57.3361C45.2007 57.3933 45.1571 57.4594 45.131 57.5226C45.127 57.5326 45.1235 57.5426 45.1205 57.5532C45.099 57.6208 45.0754 57.6955 45.0639 57.7661C45.0543 57.8193 45.0579 57.8729 45.0574 57.926C45.0569 57.9826 45.0533 58.0393 45.0624 58.0949C45.0759 58.1821 45.1025 58.2683 45.128 58.352C45.136 58.376 45.1461 58.3991 45.1576 58.4217C45.1957 58.4954 45.2373 58.5795 45.2924 58.6462C45.3385 58.7023 45.3966 58.7564 45.4508 58.8046C45.4593 58.8121 45.4673 58.8201 45.4768 58.8266C45.6698 58.9655 45.8953 59.0326 46.1324 59.0106C46.179 59.006 46.2075 58.9945 46.2607 58.9805C46.3008 58.9699 46.3428 58.9619 46.3819 58.9469C46.414 58.9343 46.4822 58.8897 46.4837 58.8887C46.4727 58.8953 46.5538 58.8522 46.5804 58.8321C46.5899 58.8256 46.5984 58.8186 46.607 58.8111C46.6651 58.7604 46.7358 58.6953 46.7814 58.6246C46.827 58.5535 46.8781 58.4763 46.9052 58.3941C46.9292 58.3224 46.9503 58.2458 46.9653 58.1716C46.9683 58.1555 46.9703 58.14 46.9713 58.1245C46.9758 58.0493 46.9773 57.9706 46.9733 57.8959C46.9723 57.8799 46.9713 57.8639 46.9683 57.8478C46.9548 57.7717 46.9327 57.6935 46.9087 57.6198C46.9037 57.6043 46.8991 57.5892 46.8921 57.5747C46.8585 57.5055 46.817 57.4334 46.7739 57.3702C46.7633 57.3547 46.7523 57.3406 46.7393 57.3271C46.6922 57.2805 46.6451 57.2339 46.5979 57.1873C46.5188 57.1231 46.4311 57.0821 46.3328 57.0645C46.2707 57.0385 46.206 57.0299 46.1394 57.0379C46.0361 57.0284 45.9369 57.046 45.8412 57.0896C45.5535 57.1978 45.3636 57.4674 45.319 57.7651C45.2814 58.0147 45.3771 58.2492 45.5154 58.4502C45.5485 58.4988 45.5951 58.5384 45.6362 58.579C45.6778 58.6206 45.7159 58.6632 45.7645 58.6958C45.8998 58.785 45.9449 58.8056 46.0807 58.8421C46.1304 58.8562 46.1564 58.8657 46.199 58.8717C46.3439 58.8928 46.4767 58.8667 46.6125 58.8186C46.8951 58.7184 47.0926 58.4282 47.1247 58.1375C47.1517 57.894 47.0801 57.6874 46.9392 57.496C46.8846 57.4223 46.816 57.3542 46.7388 57.3035C46.5368 57.1707 46.2932 57.09 46.0487 57.1387C45.8788 57.1722 45.8292 57.1933 45.6958 57.2705C45.564 57.3471 45.5254 57.3807 45.4102 57.5095C45.2914 57.6424 45.2162 57.8363 45.1902 58.0112C45.1791 58.0864 45.1826 58.1696 45.1861 58.2452C45.1872 58.2623 45.1882 58.2783 45.1912 58.2954C45.2267 58.4913 45.2769 58.5861 45.3781 58.7519C45.4768 58.9138 45.6613 59.0521 45.8357 59.1218C46.0061 59.1895 46.2161 59.223 46.3975 59.1829C46.605 59.1368 46.6671 59.1103 46.847 58.9965C46.9267 58.9459 46.9984 58.8662 47.0565 58.7985C47.1187 58.7254 47.1658 58.6361 47.2049 58.5504C47.2244 58.5073 47.2344 58.4572 47.2465 58.4126C47.259 58.366 47.277 58.3154 47.282 58.2658C47.3051 58.0503 47.2745 57.8203 47.1838 57.6223C47.0836 57.4038 46.9603 57.254 46.7824 57.0956C46.6977 57.0199 46.5909 56.9653 46.4917 56.9131C46.395 56.862 46.2762 56.834 46.1725 56.8119C46.1489 56.8064 46.1258 56.8034 46.1013 56.8019C46.0181 56.7964 45.9284 56.7924 45.8447 56.8024C45.7319 56.8159 45.6101 56.846 45.5074 56.8986C45.2924 57.0094 45.0979 57.1527 44.9681 57.3622C44.9045 57.4649 44.8373 57.5757 44.7952 57.6915C44.7521 57.8092 44.7201 57.934 44.6955 58.0573C44.6449 58.3199 44.7812 58.6166 44.9917 58.772C45.1962 58.9233 45.4713 59.0095 45.7259 58.9609C45.9138 58.9253 46.0196 58.8742 46.18 58.7745C46.2617 58.7234 46.3308 58.6442 46.3925 58.5745C46.4531 58.5059 46.4962 58.4217 46.5338 58.339C46.5644 58.2703 46.5854 58.1952 46.5934 58.121C46.5944 58.115 46.5944 58.1089 46.5949 58.1024C46.5999 58.0553 46.6015 57.9421 46.5954 57.8955C46.5899 57.8519 46.5578 57.73 46.5413 57.6884C46.5393 57.6834 46.5368 57.6784 46.5348 57.6729C46.5112 57.6193 46.4591 57.5331 46.425 57.486C46.385 57.4309 46.3318 57.3823 46.2772 57.3402C46.1574 57.2479 46.001 57.1843 45.8502 57.1672C45.6497 57.1452 45.4362 57.1968 45.2754 57.3221C45.1922 57.3822 45.1295 57.4574 45.0869 57.5486C45.0308 57.6308 44.9972 57.722 44.9867 57.8228C44.9681 58.0232 45.0067 58.2402 45.1415 58.3981C45.2693 58.5479 45.4412 58.6642 45.6422 58.6863C45.6512 58.6873 45.6598 58.6888 45.6693 58.6908C45.6061 58.6737 45.543 58.6562 45.4798 58.6392C45.4894 58.6422 45.4984 58.6452 45.5074 58.6497C45.4513 58.6176 45.3941 58.585 45.3375 58.5525C45.343 58.556 45.3475 58.5595 45.3525 58.5635C45.3054 58.5169 45.2583 58.4703 45.2112 58.4242C45.2152 58.4282 45.2187 58.4322 45.2217 58.4372C45.1877 58.3781 45.1531 58.3189 45.1185 58.2593C45.1215 58.2648 45.1235 58.2693 45.125 58.2748C45.1075 58.2087 45.0899 58.1425 45.0724 58.0763C45.0739 58.0819 45.0744 58.0874 45.0749 58.0929C45.0754 58.0267 45.0759 57.9606 45.0759 57.8944C45.0759 57.905 45.0744 57.915 45.0719 57.925C45.0889 57.8619 45.106 57.7987 45.123 57.736C45.1185 57.7501 45.113 57.7626 45.106 57.7756C45.138 57.7185 45.1706 57.6619 45.2032 57.6053C45.1917 57.6243 45.1781 57.6413 45.1626 57.6569C45.2092 57.6098 45.2553 57.5627 45.3019 57.5156C45.2824 57.5346 45.2613 57.5506 45.2378 57.5647C45.2969 57.5301 45.3565 57.4955 45.4157 57.4614C45.3936 57.474 45.3711 57.4835 45.347 57.49C45.4132 57.4724 45.4793 57.4549 45.5455 57.4374C45.5275 57.4419 45.5094 57.4444 45.4904 57.4449C45.5565 57.4454 45.6232 57.4459 45.6893 57.4464C45.6698 57.4464 45.6517 57.4439 45.6327 57.4394C45.6958 57.4564 45.759 57.474 45.8221 57.491C45.8056 57.486 45.7906 57.4795 45.7755 57.4715C45.8322 57.504 45.8893 57.5366 45.9454 57.5687C45.9364 57.5632 45.9274 57.5577 45.9189 57.5511C46.0171 57.7892 46.1158 58.0277 46.2145 58.2658C46.2201 58.2382 46.2261 58.2112 46.2331 58.1836C46.2161 58.2468 46.199 58.3099 46.182 58.3725C46.2045 58.2888 46.2356 58.2082 46.2787 58.1325C46.2461 58.1891 46.2135 58.2457 46.1815 58.3024C46.21 58.2542 46.2426 58.2097 46.2807 58.1691C46.2341 58.2157 46.1875 58.2633 46.1409 58.3099C46.175 58.2763 46.2115 58.2468 46.2531 58.2217C46.1935 58.2563 46.1344 58.2903 46.0752 58.3249C46.1088 58.3064 46.1424 58.2924 46.179 58.2819C46.1128 58.2994 46.0467 58.3169 45.9805 58.3345C46.0136 58.3264 46.0462 58.3214 46.0802 58.3214C46.0141 58.3209 45.9474 58.3204 45.8813 58.3204C45.9139 58.3214 45.9449 58.3259 45.9765 58.3334C45.9133 58.3164 45.8502 58.2994 45.7871 58.2823C45.8327 58.2944 45.8753 58.3124 45.9169 58.3354C45.8597 58.3029 45.8036 58.2703 45.7465 58.2378C45.7936 58.2653 45.8362 58.2979 45.8758 58.3354C45.8286 58.2888 45.7815 58.2422 45.7344 58.1956C45.7775 58.2382 45.8146 58.2853 45.8452 58.3375C45.8111 58.2783 45.7765 58.2187 45.7419 58.1595C45.7675 58.2047 45.787 58.2513 45.8006 58.3009C45.783 58.2347 45.7655 58.1685 45.748 58.1019C45.7575 58.1415 45.7635 58.1816 45.764 58.2222C45.7645 58.156 45.7645 58.0899 45.765 58.0237C45.7645 58.0528 45.7605 58.0814 45.7535 58.1099C45.7705 58.0468 45.7876 57.9837 45.8046 57.9205C45.7976 57.9441 45.7891 57.9651 45.7775 57.9861C45.8101 57.9295 45.8422 57.8729 45.8748 57.8163C45.8617 57.8388 45.8467 57.8593 45.8281 57.8784C45.8753 57.8313 45.9214 57.7842 45.968 57.7371C45.9479 57.7571 45.9254 57.7746 45.9008 57.7887C45.96 57.7546 46.0191 57.72 46.0782 57.6854C46.0567 57.698 46.0341 57.707 46.0096 57.714C46.0757 57.6965 46.1419 57.679 46.2085 57.6614C46.184 57.6679 46.1604 57.6709 46.1354 57.6714C46.2015 57.6719 46.2677 57.6724 46.3338 57.6729C46.3088 57.6729 46.2847 57.6694 46.2602 57.6629C46.3233 57.6804 46.3865 57.6975 46.4496 57.7145C46.4276 57.708 46.4075 57.6995 46.3875 57.6884C46.4441 57.721 46.5007 57.7536 46.5579 57.7862C46.5368 57.7736 46.5188 57.7591 46.5012 57.7426C46.5483 57.7892 46.5954 57.8358 46.6425 57.8819C46.621 57.8603 46.6035 57.8363 46.5879 57.8098C46.622 57.8694 46.6566 57.9285 46.6912 57.9877C46.6796 57.9666 46.6701 57.9445 46.6636 57.9215C46.6811 57.9876 46.6987 58.0538 46.7162 58.1204C46.7107 58.0989 46.7082 58.0778 46.7077 58.0558C46.7072 58.1219 46.7067 58.1886 46.7062 58.2548C46.7067 58.2337 46.7092 58.2142 46.7142 58.1936C46.6972 58.2568 46.6801 58.3199 46.6626 58.3831C46.6691 58.361 46.6776 58.3405 46.6887 58.3199C46.6561 58.3766 46.6235 58.4332 46.5909 58.4898C46.604 58.4683 46.6195 58.4487 46.637 58.4307C46.5904 58.4773 46.5443 58.5249 46.4977 58.572C46.5138 58.5565 46.5303 58.5434 46.5493 58.5314C46.4897 58.566 46.4306 58.6006 46.3714 58.6352C46.392 58.6231 46.4135 58.6136 46.4366 58.6076C46.3704 58.6252 46.3043 58.6427 46.2381 58.6602C46.2552 58.6557 46.2727 58.6542 46.2907 58.6537C46.2241 58.6532 46.1584 58.6532 46.0918 58.6527C46.1073 58.6532 46.1213 58.6547 46.1364 58.6587C46.0732 58.6417 46.0101 58.6247 45.9474 58.6076C45.9595 58.6116 45.971 58.6161 45.9825 58.6221C45.9254 58.5896 45.8688 58.5575 45.8121 58.5249C45.8267 58.5329 45.8387 58.5429 45.8507 58.554C45.8036 58.5079 45.7565 58.4612 45.7094 58.4146C45.7224 58.4282 45.7329 58.4422 45.7424 58.4582C45.7084 58.3991 45.6738 58.3395 45.6392 58.2803C45.6462 58.2924 45.6522 58.3049 45.6578 58.3179C45.6402 58.1851 45.6232 58.0528 45.6061 57.9205C45.6056 57.9335 45.6046 57.9461 45.6016 57.9586C45.6187 57.8959 45.6357 57.8328 45.6527 57.7696C45.6507 57.7771 45.6477 57.7847 45.6442 57.7917C45.6768 57.7351 45.7094 57.6784 45.7414 57.6218C45.7389 57.6263 45.7359 57.6303 45.7324 57.6338C45.779 57.5867 45.8256 57.5396 45.8723 57.4925C45.8687 57.4955 45.8652 57.498 45.8612 57.501C45.9204 57.4664 45.9795 57.4323 46.0386 57.3978C46.0346 57.3998 46.0306 57.4013 46.0261 57.4023C46.0923 57.3852 46.1589 57.3677 46.2246 57.3497C46.2201 57.3507 46.2156 57.3512 46.211 57.3517C46.2772 57.3522 46.3434 57.3527 46.4095 57.3532C46.4005 57.3527 46.3925 57.3512 46.3834 57.3492C46.4466 57.3667 46.5097 57.3838 46.5729 57.4008C46.5589 57.3968 46.5458 57.3908 46.5333 57.3838C46.5894 57.4163 46.6466 57.4489 46.7032 57.4815C46.6776 57.4664 46.6546 57.4484 46.6335 57.4279C46.6806 57.4745 46.7278 57.521 46.7749 57.5671C46.7513 57.5436 46.7303 57.518 46.7132 57.4895C46.7473 57.5486 46.7819 57.6082 46.8164 57.6674C46.8059 57.6493 46.7974 57.6308 46.7909 57.6108C46.8084 57.6769 46.8265 57.7436 46.844 57.8092C46.841 57.7982 46.8395 57.7867 46.839 57.7747C46.8385 57.8403 46.8385 57.907 46.838 57.9731C46.838 57.9656 46.839 57.9591 46.841 57.9521C46.8235 58.0152 46.8064 58.0778 46.7894 58.141C46.7914 58.136 46.7929 58.1315 46.7959 58.1265C46.7633 58.1836 46.7308 58.2397 46.6982 58.2969C46.7012 58.2919 46.7042 58.2879 46.7077 58.2839C46.6611 58.331 46.6145 58.378 46.5684 58.4252C46.5739 58.4196 46.5799 58.4152 46.5869 58.4112C46.5273 58.4457 46.4681 58.4798 46.409 58.5144C46.415 58.5109 46.421 58.5084 46.4275 58.5059C46.1283 58.4272 45.8287 58.348 45.5295 58.2688C45.544 58.2838 45.556 58.2999 45.5675 58.3174C45.533 58.2583 45.4989 58.1992 45.4643 58.14C45.4763 58.1611 45.4854 58.1831 45.4929 58.2061C45.4753 58.14 45.4578 58.0738 45.4402 58.0077C45.4473 58.0352 45.4513 58.0623 45.4518 58.0909C45.4523 58.0247 45.4528 57.9586 45.4533 57.8919C45.4528 57.924 45.4493 57.9546 45.4407 57.9857C45.4583 57.9225 45.4753 57.8593 45.4924 57.7967C45.4848 57.8217 45.4753 57.8453 45.4623 57.8684C45.4949 57.8113 45.5275 57.7551 45.56 57.698C45.551 57.713 45.541 57.7266 45.529 57.7391C45.5756 57.6925 45.6222 57.6448 45.6688 57.5977C45.6568 57.6098 45.6447 57.6193 45.6302 57.6278C45.6898 57.5932 45.749 57.5586 45.8081 57.5246C45.7966 57.5301 45.7856 57.5346 45.7735 57.5381C45.8397 57.5205 45.9058 57.503 45.972 57.4855C45.9625 57.4875 45.9534 57.4885 45.9434 57.489C46.0101 57.4895 46.0762 57.49 46.1424 57.4905C46.1283 57.49 46.1153 57.488 46.1018 57.485C46.1644 57.502 46.2276 57.5191 46.2907 57.5361C46.2777 57.5321 46.2657 57.5271 46.2541 57.521C46.3103 57.5536 46.3674 57.5862 46.424 57.6183C46.407 57.6083 46.3915 57.5967 46.3774 57.5832C46.4245 57.6298 46.4716 57.6764 46.5188 57.723C46.5022 57.7055 46.4882 57.687 46.4757 57.6664C46.5097 57.7255 46.5443 57.7847 46.5789 57.8438C46.5609 57.8127 46.5478 57.7796 46.5383 57.7446C46.5564 57.8107 46.5739 57.8774 46.5914 57.9436C46.5829 57.9085 46.5784 57.8729 46.5784 57.8368C46.5779 57.903 46.5774 57.9691 46.5769 58.0353C46.5774 58.0082 46.5804 57.9816 46.5869 57.9551C46.5694 58.0182 46.5523 58.0814 46.5353 58.1445C46.5403 58.1265 46.5468 58.1094 46.5553 58.0929C46.5228 58.1495 46.4902 58.2062 46.4576 58.2628C46.4646 58.2503 46.4732 58.2392 46.4827 58.2282C46.4361 58.2753 46.39 58.3224 46.3428 58.37C46.3509 58.362 46.3594 58.355 46.3689 58.349C46.3093 58.3831 46.2501 58.4176 46.191 58.4522C46.201 58.4467 46.211 58.4422 46.2216 58.4387C46.1554 58.4563 46.0893 58.4738 46.0231 58.4913C46.0256 58.4908 46.0286 58.4898 46.0316 58.4893C46.1379 58.4798 46.2336 58.4452 46.3188 58.3851C46.4115 58.3415 46.4877 58.2773 46.5473 58.1921C46.6115 58.113 46.6526 58.0253 46.6706 57.927C46.7047 57.8328 46.7142 57.735 46.6977 57.6338C46.6636 57.4353 46.5709 57.2359 46.4005 57.1176C46.3439 57.0855 46.2867 57.053 46.2301 57.0204C46.1058 56.9693 45.9765 56.9517 45.8422 56.9678Z" fill="#1F1F1F"/>
<path d="M61.2761 58.8721C61.4475 58.7578 61.22 58.8902 61.3488 58.827C61.4239 58.7899 61.4976 58.7498 61.5723 58.7132C61.7522 58.6245 61.9346 58.5404 62.1161 58.4552C62.4714 58.2873 62.8362 58.1184 63.157 57.8893C63.9117 57.3501 64.66 56.6895 65.1531 55.8967C66.3164 54.0288 65.9214 51.8688 65.3837 49.8591C64.1754 45.3536 62.8052 40.8782 61.4014 36.4228C59.9751 31.9023 58.4475 27.4118 56.7501 22.9865C55.0651 18.5862 53.2118 14.2511 51.1294 10.0263C50.6027 8.95879 50.0615 7.89631 49.5047 6.84386C49.0356 5.95679 48.5554 5.07976 47.9721 4.25785C46.9492 2.82451 45.6191 1.39616 43.9602 0.704547C43.5889 0.549185 43.1924 0.438909 42.794 0.38378C41.8147 0.248465 41.6083 1.76704 42.5855 1.90236C42.9785 1.95749 43.1178 2.00257 43.5127 2.18299C43.8796 2.34838 44.0565 2.45862 44.4018 2.71421C45.1069 3.2254 45.6296 3.76167 46.1804 4.43825C47.4469 5.98686 48.2517 7.70588 49.1639 9.51008C51.2247 13.5946 53.0645 17.7844 54.7389 22.0393C56.4253 26.3243 57.9448 30.6694 59.3591 35.0496C60.7674 39.4098 62.0715 43.8 63.3339 48.2053C63.6181 49.1976 63.9243 50.1799 64.1448 51.1822C64.3427 52.0843 64.4841 52.9964 64.3292 53.8935C64.1934 54.6803 63.7213 55.382 63.1735 55.8937C62.8603 56.1869 62.522 56.4595 62.1737 56.7091C62.1181 56.7492 62.0324 56.7938 62.1456 56.7311C62.0614 56.7777 61.9757 56.8223 61.89 56.8649C61.7096 56.9552 61.5262 57.0398 61.3438 57.126C60.9995 57.2879 60.6516 57.4508 60.3339 57.6623C59.9896 57.8918 59.9595 58.4286 60.2001 58.7383C60.4697 59.0851 60.9308 59.1026 61.2761 58.8721Z" fill="#1F1F1F"/>
<path d="M30.6558 65.9382C31.6892 66.3547 32.7231 66.7717 33.7565 67.1887C34.2276 67.3791 34.6972 67.5976 35.1878 67.7359C35.7541 67.8953 36.2814 67.8692 36.8497 67.7369C39.0193 67.2317 41.1703 66.6434 43.2982 65.9884C47.4795 64.7014 51.575 63.1452 55.5889 61.4087C57.8351 60.4374 60.0563 59.4086 62.2564 58.3381C62.6163 58.1626 62.8543 57.7271 62.6714 57.3367C62.504 56.9789 62.056 56.7333 61.6701 56.9212C57.7805 58.8151 53.8243 60.5757 49.7839 62.1233C47.7867 62.8886 45.769 63.6018 43.7312 64.2523C42.6913 64.5846 41.6459 64.9003 40.5954 65.198C40.0928 65.3404 39.5896 65.4787 39.0854 65.6125C39.2543 65.5674 39.0263 65.628 39.0087 65.6325C38.9396 65.6506 38.8709 65.6686 38.8023 65.6867C38.6875 65.7162 38.5722 65.7458 38.4574 65.7754C38.1818 65.846 37.9057 65.9152 37.6295 65.9828C37.0858 66.1166 36.5415 66.269 35.9842 66.3322C35.7942 66.3537 36.12 66.3597 35.9371 66.3311C35.8584 66.3186 35.7797 66.3086 35.701 66.2961C35.5647 66.273 35.69 66.2976 35.7166 66.3036C35.6394 66.2866 35.5627 66.256 35.4885 66.2294C35.2159 66.1317 34.9488 66.0164 34.6801 65.9087C33.5345 65.4461 32.3883 64.984 31.2421 64.522C30.8703 64.3721 30.3841 64.545 30.2408 64.9369C30.0995 65.3238 30.2583 65.7779 30.6558 65.9382Z" fill="#1F1F1F"/>
<path d="M21.8556 18.7818C14.6579 20.4958 7.65454 23.7233 2.59725 29.1259C1.73675 30.043 1.16893 31.5114 0.87073 32.7343C0.600601 33.8469 0.811592 35.0347 1.28419 36.0721C2.19732 38.0768 4.05315 39.5652 6.12447 40.327C8.1958 41.0837 10.4671 41.1589 12.6537 40.8733C15.8396 40.4523 18.8707 39.2796 21.7489 37.8262C23.7907 38.3975 25.8329 38.9638 27.8752 39.5302C27.7439 37.9164 27.4071 36.3226 26.8763 34.7891C27.9899 33.9672 29.0068 33.03 29.8357 31.9174C31.4846 29.7122 31.9166 26.8105 31.2094 24.1493C30.396 21.0871 26.5857 17.6091 21.8556 18.7818Z" fill="#16A34A"/>
<path d="M21.761 18.02C18.2668 18.8519 14.8418 20.0046 11.6233 21.6133C8.43389 23.202 5.43741 25.2167 2.89699 27.7276C2.55519 28.0684 2.20789 28.4042 1.89165 28.765C1.59345 29.1058 1.3559 29.4917 1.13539 29.8876C0.702379 30.6594 0.410698 31.5014 0.182667 32.3534C-0.287429 34.1175 0.190184 35.9067 1.15343 37.4102C3.01777 40.332 6.5455 41.6951 9.89079 41.7803C13.6746 41.8805 17.3818 40.7279 20.7812 39.1492C21.2047 38.9487 21.6246 38.7432 22.0421 38.5327C21.8467 38.5327 21.6512 38.5327 21.4557 38.5327C23.4975 39.1041 25.5398 39.6704 27.5815 40.2418C27.8542 40.3169 28.1098 40.3219 28.3463 40.1365C28.5638 39.9661 28.658 39.7055 28.636 39.4399C28.4962 37.756 28.1348 36.0921 27.5845 34.4983C27.5054 34.794 27.4262 35.0948 27.347 35.3955C29.0314 34.1425 30.5885 32.5939 31.4611 30.6544C32.2254 28.9604 32.4619 27.0259 32.2013 25.1916C32.0945 24.4399 31.9161 23.6781 31.6099 22.9815C31.3353 22.3601 30.9729 21.7637 30.554 21.2224C29.6499 20.0597 28.4566 19.1175 27.1149 18.5111C25.4461 17.7593 23.5386 17.5839 21.761 18.02C21.3736 18.1152 21.0197 18.4359 21.0949 18.8719C21.1581 19.2428 21.5334 19.6437 21.9504 19.5385C22.3488 19.4433 22.7533 19.3731 23.1617 19.338C23.3411 19.323 23.5211 19.313 23.701 19.308C23.7471 19.308 23.8007 19.313 23.8463 19.308C23.6674 19.338 23.7511 19.308 23.8157 19.308C23.919 19.313 24.0222 19.318 24.125 19.323C24.4808 19.348 24.8351 19.3982 25.1839 19.4733C25.2731 19.4934 25.3624 19.5134 25.4506 19.5335C25.5082 19.5485 25.6285 19.6086 25.4365 19.5284C25.4706 19.5435 25.5102 19.5535 25.5453 19.5635C25.7247 19.6137 25.9021 19.6738 26.077 19.7389C26.3938 19.8592 26.7025 19.9996 27.0012 20.1599C27.0398 20.18 27.0784 20.205 27.1164 20.2251C27.1355 20.2351 27.2643 20.3053 27.1455 20.2401C27.0262 20.175 27.154 20.2451 27.1726 20.2551C27.2102 20.2802 27.2473 20.3003 27.2838 20.3253C27.4302 20.4155 27.5745 20.5108 27.7148 20.611C27.9865 20.8014 28.2461 21.0119 28.4927 21.2375C28.5493 21.2876 28.6059 21.3377 28.6615 21.3928C28.6996 21.4279 28.8029 21.5432 28.6395 21.3677C28.6676 21.3978 28.6976 21.4279 28.7267 21.4579C28.842 21.5732 28.9537 21.6985 29.061 21.8188C29.2629 22.0543 29.4524 22.2949 29.6263 22.5505C29.7075 22.6708 29.7857 22.7911 29.8603 22.9113C29.8799 22.9464 29.8989 22.9765 29.9195 23.0116C29.7837 22.7911 29.8638 22.9164 29.8924 22.9665C29.9295 23.0316 29.9656 23.1018 30.0007 23.167C30.136 23.4276 30.2553 23.6982 30.355 23.9738C30.3986 24.0941 30.4367 24.2194 30.4738 24.3397C30.4893 24.3898 30.5129 24.5201 30.4632 24.2946C30.4708 24.3297 30.4813 24.3698 30.4903 24.4049C30.5209 24.5301 30.5499 24.6554 30.576 24.7807C30.6612 25.1967 30.7193 25.6177 30.7499 26.0386C30.7649 26.2391 30.773 26.4396 30.7755 26.64C30.7755 26.6801 30.791 26.8656 30.7765 26.6601C30.78 26.7152 30.7745 26.7704 30.7725 26.8255C30.769 26.9508 30.7624 27.0811 30.7534 27.2064C30.7239 27.6223 30.6667 28.0383 30.581 28.4492C30.562 28.5394 30.5424 28.6247 30.5209 28.7149C30.5084 28.765 30.4948 28.8201 30.4813 28.8752C30.4362 29.0557 30.5299 28.7149 30.4753 28.8953C30.4121 29.1008 30.3475 29.3113 30.2723 29.5117C30.1901 29.7372 30.0994 29.9528 29.9997 30.1683C29.946 30.2836 29.8894 30.3988 29.8303 30.5091C29.8092 30.5492 29.7877 30.5892 29.7656 30.6293C29.7441 30.6694 29.6574 30.8599 29.7421 30.6744C29.6438 30.8849 29.49 31.0854 29.3557 31.2758C29.1993 31.4964 29.0319 31.7119 28.859 31.9224C28.6771 32.1379 28.4876 32.3533 28.2917 32.5588C28.2466 32.6039 28.2015 32.6541 28.1554 32.6992C28.2817 32.5689 28.0847 32.7693 28.0626 32.7894C27.9684 32.8796 27.8732 32.9698 27.7765 33.06C27.3405 33.4609 26.8804 33.8318 26.4053 34.1876C26.1226 34.3981 26.0595 34.769 26.1682 35.0847C26.2965 35.4556 26.4148 35.8315 26.5206 36.2074C26.5361 36.2675 26.5511 36.3226 26.5662 36.3777C26.5992 36.493 26.5376 36.2625 26.5667 36.3777C26.5887 36.4679 26.6128 36.5582 26.6343 36.6484C26.6834 36.8488 26.7295 37.0543 26.7721 37.2598C26.935 38.0416 27.0483 38.8284 27.1144 39.6253C27.4658 39.3597 27.8171 39.089 28.1684 38.8234C26.1261 38.2571 24.0859 37.6808 22.0421 37.1194C21.7605 37.0393 21.555 37.0694 21.2989 37.1997C21.1841 37.2548 21.0688 37.3099 20.9536 37.37C20.7225 37.4803 20.491 37.5906 20.258 37.7008C19.7929 37.9213 19.3238 38.1268 18.8497 38.3273C17.9055 38.7232 16.9432 39.074 15.9629 39.3747C15.7294 39.4449 15.4954 39.51 15.2598 39.5752C15.2222 39.5852 15.0714 39.6253 15.2232 39.5852C15.1556 39.6002 15.0884 39.6203 15.0207 39.6353C14.8859 39.6704 14.7506 39.7005 14.6148 39.7356C14.1176 39.8508 13.616 39.9511 13.1118 40.0313C12.1922 40.1766 11.2655 40.2568 10.3343 40.2668C10.1905 40.2668 10.3203 40.2668 10.3474 40.2668C10.2852 40.2668 10.2231 40.2668 10.1609 40.2618C10.0582 40.2618 9.95494 40.2568 9.8517 40.2517C9.60462 40.2417 9.35755 40.2267 9.11147 40.2016C8.66092 40.1615 8.21288 40.0914 7.76985 40.0012C7.56888 39.9611 7.36941 39.911 7.17045 39.8608C7.34937 39.906 7.1489 39.8558 7.12234 39.8458C7.07273 39.8308 7.02361 39.8157 6.9745 39.8007C6.8462 39.7656 6.7189 39.7205 6.59261 39.6804C6.18265 39.5351 5.78222 39.3697 5.39482 39.1742C5.30711 39.1291 5.22041 39.0841 5.1342 39.039C5.09161 39.0139 5.04851 38.9888 5.00591 38.9638C4.90016 38.9087 5.16077 39.059 4.99739 38.9587C4.80544 38.8435 4.6145 38.7232 4.42906 38.5929C4.07674 38.3473 3.74196 38.0767 3.42923 37.781C3.39415 37.7509 3.35806 37.7158 3.32399 37.6808C3.46281 37.8211 3.32449 37.6808 3.30093 37.6557C3.23378 37.5855 3.16762 37.5154 3.10247 37.4402C2.95363 37.2748 2.81179 37.1044 2.67798 36.924C2.55569 36.7636 2.43993 36.5932 2.33168 36.4229C2.30211 36.3727 2.26351 36.3226 2.24046 36.2725C2.24948 36.2925 2.32616 36.4279 2.2565 36.2976C2.20037 36.1973 2.14474 36.0921 2.09262 35.9918C1.99489 35.7914 1.90568 35.5909 1.828 35.3804C1.79192 35.2852 1.75783 35.1899 1.72676 35.0897C1.70772 35.0346 1.69118 34.9744 1.67314 34.9143C1.61952 34.7439 1.6992 35.0396 1.66311 34.8793C1.6145 34.6587 1.5699 34.4382 1.54434 34.2127C1.53281 34.1124 1.52429 34.0122 1.51928 33.912C1.51577 33.8518 1.51477 33.7867 1.51276 33.7266C1.50775 33.5261 1.50224 33.8869 1.51477 33.6815C1.5278 33.4609 1.54785 33.2404 1.59095 33.0199C1.60999 32.9247 1.63354 32.8245 1.6576 32.7292C1.66612 32.6992 1.70622 32.5087 1.66562 32.6941C1.67765 32.639 1.69719 32.5839 1.71373 32.5238C1.83952 32.0928 1.98938 31.6668 2.16829 31.2508C2.2585 31.0453 2.35623 30.8348 2.46348 30.6344C2.48253 30.5993 2.50257 30.5642 2.52161 30.5291C2.61784 30.3437 2.43842 30.6594 2.54617 30.484C2.60982 30.3838 2.67247 30.2785 2.74012 30.1783C2.99221 29.8074 3.29943 29.4867 3.61266 29.1659C3.6292 29.1509 3.78255 28.9955 3.65526 29.1208C3.68583 29.0908 3.7164 29.0607 3.74697 29.0306C3.83869 28.9404 3.9314 28.8452 4.02462 28.755C4.19501 28.5896 4.36742 28.4292 4.54233 28.2638C4.89064 27.9431 5.24697 27.6324 5.61031 27.3267C6.33651 26.7152 7.09127 26.1389 7.86908 25.5976C8.25849 25.322 8.65341 25.0614 9.05384 24.8058C9.23627 24.6905 9.41919 24.5752 9.60362 24.465C9.71438 24.3948 9.82564 24.3296 9.9369 24.2645C9.97399 24.2394 10.0111 24.2194 10.0482 24.1944C10.0782 24.1793 10.3208 24.034 10.1504 24.1342C13.425 22.2097 17.0349 20.8365 20.6955 19.8542C20.723 19.8492 20.934 19.7891 20.7491 19.8392C20.8117 19.8241 20.8754 19.8091 20.9385 19.7941C21.0438 19.764 21.149 19.739 21.2543 19.7089C21.4858 19.6538 21.7179 19.5936 21.9504 19.5385C22.3383 19.4483 22.6911 19.1225 22.6165 18.6865C22.5533 18.3106 22.1779 17.9197 21.761 18.02Z" fill="#1F1F1F"/>
<path d="M43.9808 28.7349C50.285 24.8609 57.5199 22.1896 64.9151 22.4352C66.1731 22.4753 67.6139 23.1118 68.6894 23.7683C69.6642 24.3597 70.3543 25.352 70.7547 26.4195C71.528 28.4843 71.2684 30.8498 70.3393 32.8495C69.4096 34.8492 67.859 36.508 66.1084 37.8512C63.5575 39.8057 60.586 41.1187 57.5244 42.1311C56.482 43.9754 55.4395 45.8197 54.3976 47.669C53.3487 46.4311 52.4576 45.0629 51.7509 43.6095C50.3803 43.81 48.999 43.8702 47.6288 43.6697C44.904 43.2738 42.5435 41.5297 41.1623 39.1442C39.5736 36.4078 39.8096 31.2507 43.9808 28.7349Z" fill="white"/>
<path d="M44.4519 29.3414C44.6559 29.2161 44.8598 29.0908 45.0648 28.9705C45.1585 28.9103 45.2518 28.8552 45.3455 28.8001C45.4016 28.77 45.4577 28.7349 45.5144 28.7049C45.3555 28.7951 45.5274 28.6948 45.5625 28.6748C45.9775 28.4342 46.3954 28.2037 46.8169 27.9782C47.6604 27.5221 48.5174 27.0911 49.3869 26.6852C51.1209 25.8783 52.9066 25.1816 54.7354 24.6203C54.9524 24.5552 55.1709 24.49 55.3894 24.4299C55.5037 24.3948 55.6184 24.3648 55.7327 24.3297C55.7748 24.3196 55.8164 24.3096 55.858 24.2996C55.8916 24.2896 56.1632 24.2144 55.9728 24.2645C56.4298 24.1392 56.8949 24.034 57.3585 23.9337C58.2851 23.7283 59.2208 23.5628 60.1615 23.4376C61.1022 23.3173 62.0489 23.2371 62.9971 23.202C63.2131 23.192 63.4291 23.187 63.6456 23.182C63.7644 23.182 63.8832 23.182 64.0025 23.182C64.0566 23.182 64.1102 23.182 64.1644 23.182C63.9819 23.182 64.2591 23.182 64.2906 23.182C64.7382 23.187 65.1787 23.202 65.6187 23.2922C65.717 23.3123 65.8147 23.3373 65.9129 23.3624C66.1049 23.4075 65.8127 23.3273 65.9305 23.3624C65.9791 23.3774 66.0292 23.3925 66.0778 23.4075C66.3058 23.4777 66.5304 23.5578 66.7519 23.6481C67.1698 23.8134 67.5758 24.0139 67.9702 24.2294C68.0133 24.2545 68.0564 24.2745 68.0985 24.2996C67.9326 24.2044 68.1005 24.3046 68.1286 24.3196C68.2138 24.3698 68.298 24.4199 68.3802 24.475C68.5751 24.6103 68.748 24.7606 68.9259 24.916C69.0182 24.9912 68.8017 24.7807 68.936 24.921C68.9781 24.9661 69.0202 25.0113 69.0608 25.0564C69.1289 25.1315 69.1946 25.2117 69.2577 25.2919C69.398 25.4673 69.5213 25.6527 69.6426 25.8432C69.7544 26.0186 69.5659 25.6928 69.6632 25.8783C69.6912 25.9284 69.7213 25.9835 69.7494 26.0386C69.7965 26.1288 69.8406 26.2241 69.8832 26.3143C69.9744 26.5147 70.0546 26.7252 70.1247 26.9307C70.1623 27.046 70.1949 27.1562 70.228 27.2665C70.2405 27.3066 70.2821 27.4018 70.2205 27.2364C70.2405 27.2916 70.249 27.3517 70.2616 27.4068C70.3092 27.6123 70.3473 27.8228 70.3763 28.0383C70.4059 28.2488 70.4259 28.4593 70.4375 28.6748C70.443 28.77 70.4465 28.8652 70.448 28.9655C70.449 29.0006 70.466 29.196 70.4505 29.0005C70.455 29.0557 70.4485 29.1158 70.4465 29.1759C70.433 29.6019 70.3858 30.0329 70.3097 30.4539C70.2711 30.6694 70.2225 30.8799 70.1713 31.0854C70.1383 31.2207 70.1714 31.0904 70.1774 31.0704C70.1633 31.1255 70.1458 31.1806 70.1293 31.2358C70.0957 31.351 70.0601 31.4613 70.0225 31.5765C69.8837 31.9875 69.7168 32.3884 69.5243 32.7793C69.4787 32.8696 69.4321 32.9598 69.3835 33.055C69.3549 33.1101 69.3254 33.1602 69.2953 33.2154C69.2823 33.2404 69.1775 33.4208 69.2712 33.2605C69.1565 33.4559 69.0382 33.6464 68.9129 33.8368C68.6623 34.2127 68.3907 34.5735 68.101 34.9193C67.9627 35.0897 67.8204 35.2501 67.674 35.4105C67.5974 35.4957 67.5197 35.5759 67.4415 35.6611C67.4059 35.6961 67.3693 35.7312 67.3337 35.7713C67.2941 35.8114 67.3047 35.8014 67.3643 35.7412C67.3347 35.7663 67.3057 35.7964 67.2761 35.8264C66.9523 36.1472 66.6146 36.4529 66.2657 36.7436C65.508 37.3801 64.6991 37.9514 63.8581 38.4726C63.7599 38.5327 63.6607 38.5929 63.5609 38.6531C63.5013 38.6881 63.4412 38.7232 63.3815 38.7583C63.5093 38.6831 63.4041 38.7432 63.3785 38.7583C63.1369 38.8986 62.8934 39.0339 62.6473 39.1643C62.1958 39.4048 61.7372 39.6303 61.2731 39.8458C60.3419 40.2768 59.3892 40.6627 58.4235 41.0085C58.204 41.0887 57.9834 41.1689 57.7624 41.2441C57.6517 41.2792 57.5414 41.3192 57.4301 41.3543C57.365 41.3794 57.2943 41.3945 57.2307 41.4195C56.9986 41.5197 56.8989 41.6901 56.7806 41.9006C56.525 42.3517 56.2714 42.8027 56.0169 43.2538C55.5012 44.1659 54.9859 45.078 54.4712 45.9901C54.2106 46.4512 53.9495 46.9123 53.6894 47.3734C54.127 47.3132 54.5645 47.2531 55.0025 47.198C54.4863 46.5865 54.0072 45.9451 53.5696 45.2785C53.4619 45.1131 53.3567 44.9477 53.2544 44.7823C53.2063 44.7021 53.1587 44.622 53.1111 44.5418C53.074 44.4816 53.071 44.4716 53.1096 44.5418C53.0805 44.4917 53.0519 44.4415 53.0234 44.3914C52.8239 44.0356 52.6365 43.6798 52.4591 43.3139C52.3132 43.0132 52.003 42.7977 51.6567 42.8478C51.136 42.923 50.6123 42.9831 50.0865 43.0082C49.8465 43.0232 49.6064 43.0282 49.3659 43.0332C49.1473 43.0332 49.5207 43.0382 49.3027 43.0332C49.2481 43.0332 49.1935 43.0282 49.1388 43.0282C48.997 43.0232 48.8547 43.0182 48.7133 43.0082C48.2387 42.9831 47.7636 42.928 47.297 42.8378C47.1893 42.8127 47.0815 42.7877 46.9748 42.7626C46.9227 42.7526 46.8655 42.7426 46.8149 42.7225C46.9838 42.7877 46.8655 42.7376 46.8194 42.7225C46.6009 42.6624 46.3844 42.5872 46.1714 42.507C45.78 42.3617 45.4056 42.1812 45.0368 41.9808C44.8709 41.8956 45.1786 42.066 45.0177 41.9708C44.9786 41.9457 44.9395 41.9257 44.9009 41.9006C44.8152 41.8505 44.731 41.7954 44.6473 41.7402C44.4649 41.625 44.2865 41.4947 44.1136 41.3644C43.9537 41.2441 43.7989 41.1188 43.647 40.9835C43.5648 40.9133 43.4831 40.8432 43.4035 40.768C43.3629 40.7279 43.3238 40.6928 43.2842 40.6527C43.1694 40.5474 43.3914 40.763 43.2501 40.6176C42.9479 40.3119 42.6662 39.9862 42.4076 39.6404C42.2858 39.48 42.1696 39.3146 42.0578 39.1442C41.9972 39.054 41.938 38.9588 41.8804 38.8636C41.8609 38.8335 41.8423 38.8034 41.8233 38.7683C41.7296 38.6129 41.9115 38.9337 41.8193 38.7633C41.6895 38.5228 41.5712 38.2722 41.472 38.0166C41.4178 37.8812 41.3687 37.7409 41.3236 37.5956C41.3046 37.5354 41.286 37.4753 41.2685 37.4152C41.258 37.3801 41.2489 37.34 41.2379 37.3049C41.3156 37.5655 41.257 37.3751 41.2429 37.3149C41.1707 37.0242 41.1171 36.7236 41.0795 36.4229C41.0404 36.1121 41.0194 35.8014 41.0159 35.4857C41.0154 35.4456 41.0164 35.4055 41.0149 35.3654C41.0224 35.6009 41.0149 35.4456 41.0159 35.3955C41.0174 35.3253 41.0199 35.2551 41.0234 35.185C41.0319 35.0045 41.0465 34.8191 41.0665 34.6387C41.1036 34.3129 41.1597 33.9872 41.2344 33.6664C41.2514 33.5963 41.2695 33.5261 41.287 33.4559C41.3266 33.3006 41.2359 33.6314 41.282 33.476C41.2945 33.4359 41.3061 33.3908 41.3191 33.3507C41.3702 33.1803 41.4269 33.0149 41.489 32.8495C41.5567 32.6691 41.6318 32.4937 41.713 32.3183C41.7947 32.1429 41.907 31.9775 41.9801 31.7971C41.9009 31.9925 41.9431 31.8622 41.9736 31.8121C42.0047 31.757 42.0363 31.7068 42.0683 31.6567C42.1175 31.5765 42.1676 31.5014 42.2192 31.4262C42.3325 31.2608 42.4527 31.0954 42.5795 30.9401C42.7088 30.7797 42.8462 30.6293 42.9865 30.479C43.1033 30.3537 42.8577 30.6043 42.9815 30.484C43.0281 30.4389 43.0737 30.3938 43.1208 30.3487C43.1925 30.2785 43.2651 30.2134 43.3388 30.1482C43.6856 29.8475 44.059 29.5769 44.4519 29.3414C44.7957 29.1309 44.8328 28.5545 44.5857 28.2638C44.291 27.918 43.8781 27.908 43.5097 28.1285C42.0829 28.9955 40.9467 30.2936 40.2596 31.8121C39.6467 33.1703 39.4101 34.6888 39.5144 36.1672C39.563 36.8538 39.7003 37.5304 39.9073 38.1819C40.1233 38.8635 40.4556 39.49 40.8485 40.0864C41.8724 41.64 43.3408 42.913 45.0328 43.6948C47.1532 44.6721 49.5728 44.7022 51.8456 44.3664C51.5785 44.211 51.3104 44.0557 51.0433 43.9003C51.782 45.4188 52.7016 46.8471 53.7927 48.1402C53.9671 48.3456 54.2182 48.4609 54.4923 48.4258C54.789 48.3907 54.9664 48.2053 55.1057 47.9598C56.1477 46.1155 57.1901 44.2661 58.232 42.4218C58.0942 42.5622 57.9559 42.6975 57.8175 42.8378C61.3773 41.6601 64.9186 40.0463 67.7221 37.5054C69.0437 36.3076 70.1844 34.9193 70.9677 33.3106C71.7014 31.8021 72.0592 30.1031 71.956 28.4242C71.8463 26.6551 71.1451 24.891 69.8306 23.6731C69.2151 23.1018 68.4168 22.7009 67.655 22.3651C66.8641 22.0143 65.9996 21.7336 65.1321 21.6835C63.3459 21.5732 61.5182 21.7036 59.7481 21.9491C57.9579 22.1947 56.1918 22.6006 54.4597 23.1118C51.0112 24.1342 47.733 25.6528 44.6288 27.462C44.2529 27.6775 43.8801 27.903 43.5097 28.1285C43.1674 28.339 43.1283 28.9154 43.3759 29.206C43.6701 29.5518 44.0845 29.5669 44.4519 29.3414Z" fill="#1F1F1F"/>
<path d="M9.50385 34.0424C9.55096 34.0223 9.59806 34.0023 9.64517 33.9822C9.74441 33.9471 9.8266 33.887 9.89275 33.8068C9.96893 33.7416 10.0246 33.6615 10.0601 33.5663C10.1027 33.476 10.1198 33.3758 10.1123 33.2806C10.1213 33.1753 10.1042 33.0751 10.0601 32.9799C10.0256 32.9197 9.99148 32.8646 9.9569 32.8045C9.87371 32.6992 9.76946 32.619 9.64517 32.5639C9.58203 32.5489 9.51938 32.5338 9.45623 32.5138C9.31941 32.4938 9.18661 32.5138 9.05881 32.5639C9.0117 32.584 8.96459 32.604 8.91748 32.6241C8.81825 32.6591 8.73606 32.7193 8.6694 32.7995C8.59373 32.8646 8.5381 32.9448 8.50251 33.04C8.45992 33.1302 8.44287 33.2305 8.45039 33.3257C8.44087 33.4309 8.45841 33.5312 8.50251 33.6264C8.5371 33.6865 8.57117 33.7467 8.60575 33.8018C8.68895 33.9121 8.79269 33.9872 8.91748 34.0424C8.98062 34.0574 9.04327 34.0724 9.10642 34.0925C9.24324 34.1125 9.37605 34.0925 9.50385 34.0424Z" fill="white"/>
<path d="M16.2242 30.2635C16.2046 30.2134 16.1851 30.1683 16.1655 30.1182C16.129 30.023 16.0708 29.9378 15.9916 29.8726C15.9265 29.7975 15.8463 29.7423 15.7511 29.7073C15.6584 29.6622 15.5621 29.6471 15.4624 29.6521C15.3597 29.6421 15.2604 29.6622 15.1642 29.7073C15.1051 29.7423 15.0459 29.7774 14.9863 29.8075C14.8805 29.8927 14.8014 29.9979 14.7497 30.1182C14.7322 30.1834 14.7152 30.2485 14.6981 30.3087C14.6801 30.449 14.6971 30.5793 14.7492 30.7096C14.7688 30.7547 14.7883 30.7998 14.8079 30.8499C14.845 30.9451 14.9026 31.0304 14.9823 31.0955C15.0469 31.1707 15.1271 31.2308 15.2228 31.2659C15.3156 31.306 15.4118 31.321 15.5115 31.316C15.6143 31.326 15.7135 31.306 15.8092 31.2659C15.8688 31.2308 15.928 31.1957 15.9871 31.1606C16.0929 31.0754 16.1721 30.9752 16.2242 30.8499C16.2412 30.7848 16.2583 30.7246 16.2758 30.6595C16.2938 30.5242 16.2768 30.3888 16.2242 30.2635Z" fill="white"/>
<path d="M22.1975 28.2839C22.5679 28.1336 22.7879 27.6625 22.6125 27.2866C22.4366 26.9107 22.0081 26.7052 21.6112 26.8706C21.2403 27.026 21.0208 27.4971 21.1962 27.8729C21.3721 28.2488 21.8006 28.4493 22.1975 28.2839Z" fill="white"/>
<path d="M50.6583 35.8766C51.0823 36.7687 51.8887 37.4353 52.8274 37.731C53.8072 38.0467 54.8406 38.0216 55.8464 37.8563C57.809 37.5405 59.8437 36.7838 60.7909 34.9044C61.247 34.0023 61.3407 32.8997 60.9403 31.9575C60.7829 31.5916 60.3168 31.3662 59.9389 31.5466C59.5656 31.722 59.3556 32.153 59.524 32.5439C59.558 32.6241 59.5876 32.7093 59.6152 32.7895C59.6708 32.9548 59.5891 32.6541 59.6087 32.7644C59.6167 32.8095 59.6272 32.8496 59.6342 32.8897C59.6473 32.9699 59.6563 33.045 59.6623 33.1202C59.6653 33.1653 59.6668 33.2054 59.6688 33.2505C59.6783 33.426 59.6833 33.0801 59.6678 33.2555C59.6528 33.4209 59.6367 33.5813 59.6001 33.7417C59.5856 33.8118 59.5335 33.872 59.6067 33.7316C59.5921 33.7567 59.5856 33.8018 59.5761 33.8319C59.5435 33.9321 59.5064 34.0324 59.4648 34.1276C59.4333 34.2028 59.3992 34.2729 59.3626 34.3431C59.343 34.3832 59.3255 34.4283 59.2999 34.4633C59.4027 34.318 59.3395 34.3932 59.3165 34.4283C59.2117 34.5837 59.1085 34.734 58.9857 34.8793C58.9571 34.9094 58.9271 34.9445 58.8975 34.9745C58.8023 35.0848 58.9226 34.9595 58.9266 34.9495C58.899 35.0146 58.7622 35.0998 58.7031 35.1499C58.5367 35.2903 58.3588 35.4106 58.1778 35.5258C57.9979 35.6461 58.3222 35.4557 58.1312 35.5559C58.0931 35.576 58.055 35.596 58.017 35.616C57.9207 35.6661 57.823 35.7163 57.7238 35.7564C57.5248 35.8466 57.3208 35.9268 57.1143 35.9969C57.0101 36.032 56.9054 36.0621 56.8001 36.0921C56.7595 36.1072 56.7149 36.1222 56.6738 36.1323C56.8362 36.1022 56.6914 36.1272 56.6488 36.1373C56.4253 36.1924 56.1997 36.2375 55.9737 36.2826C55.5667 36.3578 55.1563 36.4179 54.7433 36.4429C54.6486 36.448 54.5539 36.448 54.4592 36.453C54.2492 36.458 54.615 36.463 54.4055 36.453C54.3634 36.448 54.3213 36.448 54.2793 36.448C54.0698 36.438 53.8608 36.4129 53.6548 36.3728C53.5932 36.3628 53.532 36.3478 53.4699 36.3327C53.3165 36.3027 53.6022 36.3828 53.4408 36.3227C53.3516 36.2926 53.2614 36.2675 53.1737 36.2275C53.0679 36.1874 52.9667 36.1373 52.864 36.0871C52.7387 36.027 52.866 36.0921 52.8855 36.1022C52.8354 36.0821 52.7878 36.042 52.7422 36.012C52.6484 35.9468 52.5582 35.8817 52.473 35.8065C52.4445 35.7814 52.4174 35.7564 52.3888 35.7313C52.2716 35.6311 52.4876 35.8416 52.3543 35.6962C52.2866 35.616 52.2224 35.5359 52.1648 35.4557C52.1588 35.4457 52.1047 35.3805 52.1037 35.3604C52.1588 35.4607 52.1653 35.4707 52.1237 35.3905C52.1062 35.3604 52.0901 35.3253 52.0741 35.2903C51.9027 34.9294 51.4617 34.6939 51.0728 34.8743C50.7124 35.0447 50.4734 35.4907 50.6583 35.8766Z" fill="#1F1F1F"/>
<path d="M50.9029 31.8071C50.95 31.787 50.9971 31.767 51.0448 31.747C51.1435 31.7119 51.2262 31.6517 51.2918 31.5716C51.368 31.5064 51.4236 31.4262 51.4592 31.331C51.5018 31.2407 51.5194 31.1456 51.5113 31.0453C51.5209 30.9401 51.5033 30.8399 51.4592 30.7446C51.4251 30.6845 51.3906 30.6294 51.356 30.5692C51.2728 30.464 51.169 30.3838 51.0448 30.3286C50.9816 30.3136 50.9185 30.2986 50.8553 30.2785C50.7185 30.2635 50.5862 30.2785 50.4579 30.3286C50.4108 30.3487 50.3637 30.3687 50.3166 30.3888C50.2178 30.4289 50.1351 30.484 50.069 30.5642C49.9928 30.6293 49.9372 30.7095 49.9016 30.8047C49.8595 30.8949 49.842 30.9952 49.85 31.0904C49.8404 31.1957 49.8575 31.2959 49.9016 31.3911C49.9362 31.4512 49.9708 31.5114 50.0048 31.5665C50.088 31.6768 50.1923 31.7519 50.3166 31.8071C50.3792 31.8221 50.4424 31.8422 50.5055 31.8572C50.6428 31.8772 50.7751 31.8572 50.9029 31.8071Z" fill="#1F1F1F"/>
<path d="M57.5259 29.3965C57.8963 29.2412 58.1158 28.7701 57.9404 28.3942C57.7645 28.0183 57.3359 27.8128 56.939 27.9782C56.5687 28.1336 56.3492 28.6047 56.5246 28.9806C56.7005 29.3564 57.1285 29.5569 57.5259 29.3965Z" fill="#1F1F1F"/>
<path d="M11.6169 48.5912C13.1214 48.7215 14.6435 48.6563 16.1274 48.3707C16.5199 48.2955 16.8662 47.9447 16.7935 47.5187C16.7278 47.1278 16.3595 46.772 15.938 46.8521C15.2399 46.9824 14.5337 47.0727 13.8236 47.1078C13.6457 47.1178 13.4682 47.1278 13.2908 47.1278C13.2016 47.1328 13.1129 47.1328 13.0242 47.1328C12.9355 47.1328 12.935 47.1328 13.0227 47.1328C12.9786 47.1328 12.934 47.1328 12.8894 47.1278C12.5341 47.1228 12.1792 47.1027 11.8254 47.0727C11.426 47.0376 11.0015 47.3032 10.9619 47.7292C10.9243 48.1251 11.1904 48.5511 11.6169 48.5912Z" fill="#1F1F1F"/>
<path d="M14.6424 54.4549C15.7083 53.5227 16.635 52.4352 17.3617 51.2174C17.4674 51.042 17.5381 50.8715 17.5115 50.661C17.488 50.4706 17.3737 50.2551 17.2144 50.1448C16.9041 49.9293 16.3604 49.9243 16.1403 50.2902C15.7996 50.8615 15.4177 51.4078 14.9942 51.919C14.7852 52.1696 14.5652 52.4101 14.3402 52.6457C14.279 52.7108 14.2815 52.7058 14.3467 52.6406C14.3166 52.6707 14.287 52.7008 14.257 52.7309C14.1968 52.791 14.1362 52.8461 14.075 52.9063C13.9522 53.0215 13.827 53.1318 13.7002 53.2471C13.3995 53.5077 13.2872 53.9938 13.5663 54.3196C13.8229 54.6203 14.3196 54.7355 14.6424 54.4549Z" fill="#1F1F1F"/>
<path d="M18.1562 57.1407C18.9841 55.8677 19.6291 54.485 20.036 53.0216C20.0927 52.8161 20.1207 52.6407 20.036 52.4352C19.9644 52.2598 19.801 52.0844 19.6211 52.0193C19.2703 51.889 18.7345 52.0193 18.6197 52.4352C18.4278 53.1218 18.1857 53.7984 17.8925 54.4549C17.7497 54.7707 17.5954 55.0864 17.429 55.3906C17.3859 55.4708 17.3458 55.5555 17.2957 55.6317C17.3458 55.5555 17.3458 55.5455 17.2972 55.6287C17.2736 55.6682 17.2505 55.7078 17.227 55.7474C17.1328 55.9048 17.035 56.0601 16.9353 56.214C16.7173 56.5498 16.7248 57.0405 17.0822 57.288C17.4034 57.5106 17.9226 57.5005 18.1562 57.1407Z" fill="#1F1F1F"/>
<path d="M55.5247 9.20445C56.3045 7.92146 57.2152 6.72367 58.2421 5.63113C58.5177 5.33544 58.411 4.77416 58.0947 4.55866C57.7244 4.29805 57.3154 4.38823 57.0207 4.70397C55.9938 5.79651 55.0832 6.99429 54.3034 8.27729C54.0959 8.61808 54.0859 9.09922 54.4507 9.3498C54.7635 9.57032 55.3017 9.5703 55.5247 9.20445Z" fill="#1F1F1F"/>
<path d="M56.5737 12.1311C57.9174 11.8354 59.26 11.5397 60.6031 11.2441C60.993 11.1589 61.3433 10.8231 61.2692 10.3871C61.205 10.0112 60.8327 9.63033 60.4137 9.72054C59.071 10.0212 57.7279 10.3169 56.3848 10.6126C55.9949 10.6978 55.6446 11.0336 55.7187 11.4646C55.7829 11.8455 56.1553 12.2264 56.5737 12.1311Z" fill="#1F1F1F"/>
<path d="M57.2638 15.3338C59.1096 15.5342 60.9559 15.7347 62.8017 15.9402C63.2001 15.9803 63.6256 15.7046 63.6652 15.2837C63.7028 14.8777 63.4357 14.4667 63.0097 14.4166C61.1639 14.2161 59.3181 14.0157 57.4718 13.8152C57.0733 13.7701 56.6478 14.0508 56.6082 14.4718C56.5707 14.8727 56.8378 15.2887 57.2638 15.3338Z" fill="#1F1F1F"/>
</svg>
