<svg width="60" height="61" viewBox="0 0 60 61" fill="none" xmlns="http://www.w3.org/2000/svg">
<path d="M12.6116 24.6864L7.61437 56.3253C7.56601 56.6309 7.59066 56.9437 7.68631 57.238C7.78196 57.5323 7.94589 57.7998 8.16471 58.0186C8.38353 58.2374 8.65102 58.4013 8.94532 58.497C9.23962 58.5926 9.55238 58.6173 9.85804 58.5689L41.5008 53.5717C42.3499 53.4377 43.1315 53.0285 43.7254 52.4069C44.3193 51.7854 44.6926 50.986 44.7878 50.1316L46.4196 35.4576L30.7296 19.7676L16.0517 21.3994C15.1973 21.4946 14.3979 21.8679 13.7763 22.4618C13.1548 23.0557 12.7456 23.8373 12.6116 24.6864Z" fill="#16A34A"/>
<path d="M38.5745 8L30.7295 19.7675L46.4195 35.4574L58.1869 27.6125L38.5745 8Z" fill="#16A34A"/>
<path d="M30.7295 19.7675L38.5745 8" stroke="#1F1F1F" stroke-width="3" stroke-linecap="round" stroke-linejoin="round"/>
<path d="M46.4195 35.4575L58.187 27.6125" stroke="#1F1F1F" stroke-width="3" stroke-linecap="round" stroke-linejoin="round"/>
<path d="M9.15576 57.0314L24.8457 41.3414" stroke="#1F1F1F" stroke-width="3" stroke-linecap="round" stroke-linejoin="round"/>
<path d="M20.9232 37.4186L28.7682 45.2636" stroke="#1F1F1F" stroke-width="3" stroke-linecap="round" stroke-linejoin="round"/>
<path d="M12.6116 24.6864L7.61437 56.3253C7.56601 56.6309 7.59066 56.9437 7.68631 57.238C7.78195 57.5323 7.94589 57.7998 8.16471 58.0186C8.38353 58.2374 8.65102 58.4013 8.94532 58.497C9.23962 58.5926 9.55238 58.6173 9.85804 58.5689L41.5008 53.5717C42.3499 53.4377 43.1315 53.0285 43.7254 52.4069C44.3193 51.7854 44.6926 50.986 44.7878 50.1316L46.4196 35.4576L30.7296 19.7676L16.0517 21.3994C15.1973 21.4946 14.3979 21.8679 13.7763 22.4618C13.1548 23.0557 12.7456 23.8373 12.6116 24.6864Z" stroke="#1F1F1F" stroke-width="3" stroke-linecap="round" stroke-linejoin="round"/>
<path d="M40.3837 10.556C39.8927 11.4672 39.3813 12.3671 38.8495 13.2557C38.5903 13.6896 38.3253 14.1218 38.0557 14.549C37.9784 14.6712 37.9012 14.7935 37.8234 14.9149C37.9499 14.7185 37.8473 14.8777 37.7783 14.9851C37.6327 15.2073 37.4879 15.4289 37.3412 15.6495C36.1944 17.3745 34.9665 19.0434 33.6693 20.6586C33.1371 21.3205 33.1592 22.4066 33.8674 22.9507C34.5526 23.4783 35.5888 23.4641 36.16 22.7535C38.8718 19.379 41.273 15.7504 43.3295 11.9406C43.734 11.1902 43.3289 10.1014 42.5496 9.77548C41.6993 9.42003 40.8177 9.75306 40.3837 10.556Z" fill="#1F1F1F"/>
<path d="M0.75331 7.35836C1.34367 7.97137 1.92006 8.59753 2.48249 9.23689C2.75726 9.54872 3.0292 9.86466 3.29613 10.1829C3.37246 10.2741 3.4488 10.3652 3.52438 10.4566C3.40232 10.3083 3.50126 10.4285 3.56802 10.5095C3.70549 10.6793 3.84273 10.8482 3.97871 11.0184C5.04177 12.3492 6.04066 13.7293 6.98006 15.1502C7.36488 15.733 8.22089 15.9881 8.82463 15.5701C9.40968 15.1658 9.65843 14.3509 9.24524 13.7254C7.28305 10.7554 5.04392 7.96494 2.57644 5.39887C2.0903 4.89388 1.13608 4.93806 0.685394 5.46654C0.19378 6.04319 0.23343 6.81706 0.75331 7.35836Z" fill="#F2A227"/>
<path d="M9.89229 2.34999C10.7808 5.3031 11.6694 8.25623 12.5584 11.2108C12.7599 11.8805 13.5425 12.3444 14.2247 12.1057C14.9096 11.8654 15.3364 11.1574 15.1206 10.4399C14.2316 7.48531 13.343 4.53218 12.4545 1.57907C12.2528 0.908622 11.4706 0.443819 10.7879 0.683458C10.1028 0.923025 9.67617 1.63171 9.89229 2.34999Z" fill="#F2A227"/>
<path d="M19.71 1.69951C19.6738 2.44887 19.6212 3.19751 19.55 3.94437C19.5404 4.04261 19.5308 4.14084 19.5205 4.23931C19.5183 4.26443 19.4926 4.50938 19.5083 4.36119C19.5266 4.19184 19.4913 4.51056 19.4876 4.54181C19.4764 4.63976 19.4645 4.73867 19.453 4.83587C19.407 5.20837 19.3575 5.58029 19.3038 5.95182C19.0872 7.43691 18.7995 8.91078 18.4453 10.3696C18.2808 11.05 18.7246 11.8449 19.4329 11.983C20.1451 12.1233 20.8708 11.7232 21.0468 10.997C21.7904 7.92853 22.2309 4.7899 22.3859 1.63693C22.4199 0.937136 21.7016 0.283546 21.0172 0.330527C20.2496 0.382957 19.7477 0.949693 19.71 1.69951Z" fill="#F2A227"/>
</svg>
