<svg width="56" height="59" viewBox="0 0 56 59" fill="none" xmlns="http://www.w3.org/2000/svg">
<path d="M6.08663 57.3232H45.8666C47.0389 57.3232 48.1631 56.8575 48.992 56.0286C49.8209 55.1997 50.2866 54.0754 50.2866 52.9032V24.1732H1.66663V52.9032C1.66663 54.0754 2.1323 55.1997 2.96121 56.0286C3.79012 56.8575 4.91437 57.3232 6.08663 57.3232Z" fill="white"/>
<path d="M45.8666 13.1232H6.08663C4.91437 13.1232 3.79012 13.5888 2.96121 14.4178C2.1323 15.2467 1.66663 16.3709 1.66663 17.5432V24.1732H50.2866V17.5432C50.2866 16.3709 49.8209 15.2467 48.992 14.4178C48.1631 13.5888 47.0389 13.1232 45.8666 13.1232Z" fill="#16A34A"/>
<path d="M17.4593 13.1232H6.08663C4.91437 13.1232 3.79012 13.5888 2.96121 14.4178C2.1323 15.2467 1.66663 16.3709 1.66663 17.5432V52.9032C1.66663 54.0754 2.1323 55.1997 2.96121 56.0286C3.79012 56.8575 4.91437 57.3232 6.08663 57.3232H45.8666C47.0389 57.3232 48.1631 56.8575 48.992 56.0286C49.8209 55.1997 50.2866 54.0754 50.2866 52.9032V35.2232" stroke="#1F1F1F" stroke-width="3" stroke-linecap="round" stroke-linejoin="round"/>
<path d="M1.66663 24.1732H24.8716" stroke="#1F1F1F" stroke-width="3" stroke-linecap="round" stroke-linejoin="round"/>
<path d="M47.9237 13.8482C47.114 12.6158 46.779 11.164 46.5289 9.73819C46.1228 7.42761 45.8997 5.09179 45.8641 2.7553C45.4409 8.32478 41.0313 13.3511 35.3549 14.7379L35.5912 15.0168C38.5541 14.8991 41.2531 17.1364 42.32 19.7856C43.3891 22.4341 43.1216 25.3793 42.4765 28.1193C43.2381 25.62 44.0128 23.089 45.4238 20.8676C46.8327 18.6459 48.972 16.7314 51.6322 16.1006C50.114 16.0722 48.7364 15.0822 47.9237 13.8482Z" fill="#F2A227"/>
<path d="M36.13 16.056C40.7408 14.8831 44.6337 11.3437 46.311 7.06767C46.798 5.82571 47.1328 4.52506 47.2415 3.19562C46.2968 3.15669 45.3532 3.11795 44.4095 3.0792C44.4414 5.35597 44.6435 7.63061 45.0236 9.88213C45.3999 12.1066 46.0103 14.3562 47.7812 15.9607C48.8251 16.9053 50.1248 17.3878 51.5326 17.4324C51.3132 16.5446 51.0929 15.6556 50.8735 14.7677C46.4987 15.8625 43.8141 19.8332 42.3653 23.6951C41.8774 24.9968 41.4758 26.3305 41.0728 27.66C42.0132 27.822 42.9525 27.9837 43.8929 28.1457C44.4825 25.6098 44.7184 22.9723 44.0656 20.4121C43.4538 18.0173 41.9137 15.9545 39.7254 14.6606C38.5153 13.946 37.1026 13.6175 35.698 13.6647C34.9501 13.6901 34.3163 14.4553 34.4264 15.1631C34.5472 15.9376 35.1966 16.4359 35.9976 16.4085C36.1152 16.4055 36.2321 16.4063 36.3514 16.4055C36.551 16.4044 36.0693 16.3783 36.2683 16.4044C36.3178 16.4109 36.3671 16.4123 36.4168 16.4178C36.6799 16.4459 36.942 16.492 37.1988 16.5566C37.2472 16.569 37.2954 16.5833 37.342 16.5944C37.5377 16.6403 37.0734 16.5005 37.2601 16.5681C37.3693 16.6072 37.4791 16.6434 37.5877 16.6864C37.8188 16.778 38.0444 16.8828 38.2647 16.9998C38.3487 17.0447 38.4739 17.1505 38.5683 17.1718C38.3795 17.1291 38.3904 17.0539 38.5099 17.1374C38.5644 17.1762 38.6215 17.2124 38.676 17.2512C38.8822 17.3953 39.081 17.5513 39.271 17.7159C39.3612 17.7923 39.4489 17.8712 39.5339 17.9528C39.583 17.9988 39.8248 18.2423 39.6961 18.1076C39.5555 17.9626 39.8079 18.2364 39.8441 18.2771C39.932 18.3794 40.0174 18.4835 40.1003 18.5901C40.2557 18.7903 40.4004 18.9968 40.5357 19.2097C40.5647 19.2553 40.6739 19.4973 40.7171 19.5099C40.7101 19.5076 40.5948 19.2768 40.6646 19.4166C40.7024 19.4911 40.7416 19.5638 40.7782 19.639C41.0165 20.1234 41.192 20.6293 41.3384 21.1445C41.3448 21.1689 41.3923 21.3527 41.3511 21.1873C41.3069 21.0093 41.3628 21.242 41.3712 21.2851C41.3988 21.4126 41.4244 21.5397 41.4476 21.6685C41.4961 21.9436 41.534 22.22 41.5611 22.4976C41.588 22.7579 41.6043 23.0183 41.6131 23.2795C41.618 23.4102 41.6207 23.5415 41.6203 23.6723C41.6213 23.7466 41.619 23.8212 41.6208 23.8966C41.6212 24.1696 41.6298 23.746 41.6208 23.9209C41.5571 25.1851 41.3598 26.4282 41.0728 27.66C40.9097 28.3623 41.512 29.164 42.2499 29.2586C43.0951 29.3666 43.6683 28.8861 43.8929 28.1457C44.0468 27.6376 44.2019 27.1287 44.361 26.6215C44.4428 26.3607 44.3762 26.5703 44.3608 26.6225C44.3784 26.5636 44.3978 26.5061 44.4163 26.4474C44.4543 26.3312 44.4934 26.2142 44.5324 26.0982C44.6234 25.8268 44.7165 25.5557 44.8125 25.2862C45.1772 24.2707 45.5932 23.2701 46.1027 22.314C46.2274 22.0799 46.3569 21.8486 46.4943 21.6206C46.5551 21.5185 46.618 21.4167 46.6807 21.3159C46.6952 21.2931 46.7636 21.2145 46.7617 21.1888C46.766 21.2434 46.6159 21.4042 46.7325 21.2356C46.9933 20.8605 47.265 20.4955 47.5635 20.1462C47.8501 19.8111 48.1551 19.4913 48.4793 19.189C48.4868 19.1822 48.5929 19.0869 48.592 19.0857C48.5989 19.095 48.3857 19.2612 48.5533 19.1207C48.6311 19.0549 48.7089 18.9892 48.7883 18.9258C48.9722 18.7769 49.1634 18.6343 49.3585 18.4995C49.5659 18.3547 49.7804 18.2182 50.0006 18.0907C50.1026 18.0312 50.2063 17.974 50.3108 17.9189C50.3423 17.901 50.4986 17.8326 50.3307 17.9072C50.1536 17.9862 50.3646 17.8937 50.3979 17.8782C50.877 17.6564 51.3783 17.483 51.8921 17.3534C52.5776 17.1823 52.9127 16.3697 52.7614 15.7603C52.5829 15.0388 51.9589 14.7121 51.233 14.6886C51.642 14.7022 51.1688 14.6694 51.0848 14.6549C50.9568 14.6329 50.7888 14.6162 50.672 14.5595C51.0421 14.7379 50.6189 14.525 50.5405 14.4902C50.4113 14.4325 50.2869 14.3644 50.161 14.2991C50.024 14.2187 50.0374 14.2271 50.2006 14.3262C50.14 14.2863 50.0826 14.246 50.0235 14.2034C49.9084 14.1186 49.7961 14.0293 49.6878 13.9356C49.5814 13.8432 49.4671 13.7474 49.3748 13.6403C49.6156 13.9201 49.3109 13.5522 49.2694 13.4994C49.087 13.2722 48.9285 13.0288 48.7828 12.7785C48.9535 13.0736 48.7233 12.6465 48.6971 12.5903C48.6331 12.4534 48.5744 12.3166 48.5181 12.178C48.406 11.898 48.3094 11.6135 48.226 11.3263C48.1835 11.181 48.1431 11.0361 48.1081 10.8901C48.1884 11.2265 48.0788 10.7481 48.0669 10.6882C47.5153 8.10994 47.2889 5.44971 47.2522 2.82721C47.2435 2.14301 46.5231 1.61621 45.8729 1.58843C45.2162 1.56156 44.4771 2.02568 44.4215 2.70996C44.3787 3.23414 44.3037 3.75485 44.195 4.26971C44.1417 4.51819 44.0812 4.76541 44.0126 5.01026C43.9882 5.09734 43.9774 5.26388 43.9186 5.32983C44.0243 5.21211 43.9956 5.09662 43.9437 5.251C43.9123 5.34195 43.882 5.43205 43.8507 5.52201C43.6786 6.0006 43.4773 6.47113 43.2501 6.92703C43.1368 7.15605 43.0157 7.38172 42.8899 7.60353C42.8264 7.71533 42.761 7.82575 42.6947 7.93505C42.6611 7.98912 42.6274 8.04421 42.5928 8.0981C42.5693 8.13665 42.4215 8.37595 42.5357 8.1907C42.6458 8.01083 42.419 8.36032 42.3912 8.39915C42.3172 8.50409 42.2423 8.60785 42.1655 8.71126C42.0023 8.92968 41.8324 9.14485 41.6561 9.3539C41.3245 9.74821 40.9706 10.1255 40.5959 10.482C40.5035 10.5716 40.4073 10.6585 40.313 10.7467C40.129 10.9148 40.3316 10.7184 40.3628 10.7025C40.3142 10.7276 40.2587 10.7921 40.2144 10.8291C40.0046 11.006 39.7884 11.1778 39.567 11.3425C39.1396 11.6625 38.693 11.9589 38.228 12.2278C38.1024 12.3015 37.9752 12.3729 37.845 12.4428C37.788 12.4736 37.7302 12.5032 37.6732 12.5339C37.5197 12.6171 37.9262 12.4121 37.6894 12.5255C37.4249 12.6524 37.1581 12.7749 36.8848 12.8861C36.3094 13.1218 35.7162 13.3148 35.1105 13.4691C34.3868 13.6539 33.9979 14.5953 34.285 15.2371C34.616 15.9789 35.3566 16.2535 36.13 16.056Z" fill="#1F1F1F"/>
<path d="M24.4001 34.5926C24.3311 36.3724 24.7626 38.1588 25.6098 39.7218C25.8253 40.1225 26.4065 40.2801 26.7887 40.0305C27.1913 39.7744 27.3272 39.2752 27.0974 38.8549C27.0048 38.6842 26.9174 38.5068 26.8354 38.3361C26.8143 38.2901 26.7953 38.2441 26.7749 38.1982C26.7395 38.1194 26.7454 38.1325 26.7756 38.2047C26.7388 38.1128 26.7027 38.0274 26.6685 37.9355C26.5267 37.5611 26.4098 37.1736 26.3198 36.7861C26.2751 36.5957 26.2377 36.4052 26.2055 36.2148C26.1977 36.1622 26.1911 36.1162 26.1832 36.0703C26.1595 35.9389 26.1983 36.2148 26.1839 36.0834C26.1733 35.9849 26.1609 35.8864 26.1523 35.7944C26.1156 35.3938 26.1064 34.9932 26.1221 34.5926C26.1399 34.1394 25.7136 33.706 25.2611 33.7322C24.7797 33.7519 24.4185 34.1066 24.4001 34.5926Z" fill="#16A34A"/>
<path d="M18.0111 42.5853C18.9476 46.0267 22.0436 48.5946 25.4725 49.3236C27.2273 49.6979 29.0538 49.606 30.7528 49.0215C32.4866 48.4238 34.0602 47.4058 35.3343 46.0858C36.7543 44.6212 37.8162 42.8086 38.3744 40.8449C38.4973 40.4048 38.2234 39.886 37.7729 39.7809C37.3151 39.6758 36.8455 39.9188 36.7135 40.3851C36.6006 40.7792 36.4646 41.1732 36.3109 41.5542C36.2341 41.7512 36.3897 41.3768 36.3063 41.5673C36.2899 41.6067 36.2748 41.6395 36.2584 41.6789C36.219 41.7643 36.177 41.8563 36.1349 41.9482C36.0417 42.1452 35.9431 42.3357 35.8387 42.5262C35.6391 42.8874 35.4204 43.242 35.1839 43.5835C35.1275 43.6623 35.0703 43.7477 35.0119 43.8265C34.9751 43.8725 34.8017 44.1352 34.9317 43.9316C34.8181 44.1089 34.6566 44.2731 34.5167 44.4373C34.2441 44.746 33.9552 45.0415 33.6517 45.3239C33.5072 45.4553 33.3588 45.5866 33.2084 45.7114C33.1329 45.7771 33.0554 45.8362 32.9792 45.8953C32.9385 45.9281 32.8807 46.0004 33.014 45.869C32.9674 45.915 32.903 45.9544 32.8492 45.9938C32.526 46.2303 32.1898 46.4536 31.8424 46.6506C31.6736 46.7491 31.5015 46.841 31.3275 46.9264C31.2401 46.9724 31.1521 47.0118 31.0641 47.0578C31.0109 47.0775 30.9577 47.1037 30.9045 47.13C30.8625 47.1497 30.6852 47.2417 30.8953 47.1366C30.5394 47.3139 30.1217 47.4321 29.7368 47.5372C29.549 47.5897 29.3585 47.6357 29.1674 47.6751C29.0722 47.6948 28.9756 47.7145 28.8791 47.7277C28.7786 47.7474 28.6315 47.7999 28.5304 47.7868C28.6827 47.8065 28.663 47.7671 28.5862 47.7802C28.5297 47.7802 28.4725 47.7933 28.4161 47.7933C28.3215 47.8065 28.2276 47.813 28.1324 47.8196C27.9248 47.8327 27.716 47.8393 27.5078 47.8327C27.3186 47.8327 27.1288 47.8262 26.9404 47.813C26.8451 47.8065 26.7512 47.7933 26.6566 47.7868C26.6192 47.7802 26.5818 47.7802 26.5437 47.7736C26.5062 47.7671 26.4688 47.7671 26.4307 47.7605C26.566 47.7802 26.5864 47.7802 26.4905 47.7671C26.1063 47.7014 25.726 47.6291 25.3503 47.5241C25.1678 47.4715 24.9858 47.4124 24.8065 47.3533C24.7166 47.3205 24.6272 47.2876 24.5386 47.2548C24.4585 47.222 24.31 47.1957 24.247 47.1366C24.2805 47.1563 24.314 47.1694 24.3481 47.1825C24.3127 47.1694 24.2778 47.1497 24.243 47.1366C24.2089 47.1234 24.1741 47.1037 24.1393 47.0906C24.0526 47.0512 23.9666 47.0118 23.8825 46.9658C23.6947 46.8739 23.5108 46.7754 23.3302 46.6703C22.9847 46.4733 22.6557 46.25 22.3358 46.0135C22.1828 45.9019 22.4507 46.1055 22.3535 46.0267C22.3023 45.9873 22.2504 45.9478 22.1999 45.9019C22.1125 45.8296 22.0265 45.7574 21.9418 45.6852C21.7802 45.5407 21.6239 45.3896 21.4735 45.2386C21.3231 45.0809 21.178 44.9233 21.0394 44.7591C21.0033 44.7131 20.9678 44.6737 20.9324 44.6278C20.9212 44.6146 20.9087 44.5949 20.8975 44.5818C20.8404 44.5096 20.8509 44.5227 20.929 44.6278C20.8575 44.5818 20.7767 44.4176 20.7301 44.3519C20.4838 44.0039 20.2644 43.6295 20.0773 43.242C20.0615 43.2157 19.9203 42.9727 19.9373 42.9399C19.917 42.9793 20.009 43.1107 19.9485 42.9596C19.9242 42.9005 19.9006 42.8414 19.8782 42.7757C19.7994 42.5656 19.7311 42.3488 19.6714 42.1321C19.5538 41.6986 19.054 41.3834 18.6127 41.5279C18.1674 41.6724 17.8844 42.1255 18.0111 42.5853Z" fill="#16A34A"/>
<path d="M11.6545 33.1805C11.5803 33.5417 11.5061 33.9095 11.4312 34.2773C11.8529 34.1065 12.2745 33.9358 12.6962 33.765C12.685 33.7584 12.6731 33.7453 12.6626 33.7387C12.7198 33.7847 12.7782 33.8307 12.836 33.8767C12.7704 33.8241 12.7119 33.765 12.6607 33.6993C12.7053 33.7584 12.75 33.811 12.7953 33.8701C12.7408 33.7979 12.6968 33.7256 12.6614 33.6402C12.6903 33.7059 12.7191 33.7781 12.7474 33.8438C12.708 33.7453 12.6817 33.6468 12.6673 33.5417C12.6778 33.6205 12.6883 33.6928 12.6981 33.7716C12.6856 33.6665 12.6856 33.5614 12.6975 33.4563C12.6876 33.5351 12.6771 33.6074 12.6666 33.6862C12.6817 33.5811 12.708 33.4826 12.7474 33.3841C12.7191 33.4563 12.6903 33.522 12.6614 33.5943C12.6942 33.5154 12.7349 33.4432 12.7848 33.3775C12.7402 33.4366 12.6948 33.4892 12.6502 33.5483C12.6975 33.4892 12.75 33.4366 12.8098 33.3841C12.9707 33.2527 13.062 32.9769 13.062 32.7799C13.062 32.5697 12.968 32.3136 12.8098 32.1691C12.6456 32.018 12.4302 31.9064 12.2003 31.9195C12.1248 31.9261 12.0486 31.9392 11.9718 31.9458C11.826 31.9852 11.6998 32.064 11.5921 32.1691C11.1672 32.5172 10.9433 33.128 10.9669 33.6665C10.9807 33.9949 11.0575 34.2773 11.1994 34.5663C11.3386 34.8552 11.5705 35.072 11.8266 35.2493C12.0473 35.4069 12.3586 35.3938 12.5931 35.2953C12.8255 35.1967 13.0396 34.9931 13.0922 34.737C13.1664 34.3692 13.2406 34.0014 13.3155 33.6337C13.3621 33.4104 13.349 33.1805 13.2288 32.9703C13.1243 32.793 12.9194 32.6223 12.7145 32.5763C12.4939 32.5237 12.2463 32.5369 12.0506 32.6617C11.8693 32.7799 11.6992 32.9572 11.6545 33.1805Z" fill="#16A34A"/>
<path d="M36.6788 32.2479C36.5836 32.4712 36.4608 32.6879 36.3124 32.8784C36.3577 32.8193 36.4024 32.7667 36.447 32.7076C36.2979 32.8981 36.1259 33.0754 35.9334 33.2264C35.9919 33.1805 36.0497 33.1345 36.1075 33.0885C36.0306 33.1476 35.9512 33.2067 35.8684 33.2593C36.2999 33.5023 36.7314 33.7519 37.1635 34.0014C37.1668 33.9686 37.1708 33.9357 37.1754 33.9029C37.1648 33.9751 37.155 34.054 37.1445 34.1328C37.1747 33.916 37.2325 33.7124 37.3159 33.5089C37.287 33.5811 37.2575 33.6468 37.2286 33.719C37.3107 33.5286 37.4144 33.3512 37.5398 33.187C37.4952 33.2396 37.4505 33.2987 37.4052 33.3578C37.486 33.2527 37.5753 33.1542 37.6719 33.0688C37.1918 32.9375 36.7124 32.8127 36.2323 32.6879C36.2513 32.7404 36.2631 32.793 36.271 32.8521C36.2605 32.7733 36.2506 32.6945 36.2401 32.6222C36.248 32.6879 36.2467 32.7601 36.2375 32.8324C36.248 32.7536 36.2579 32.6748 36.2684 32.6025C36.2572 32.6682 36.2388 32.7404 36.2132 32.8061C36.2421 32.7339 36.271 32.6682 36.3006 32.596C36.2697 32.6682 36.2316 32.7339 36.185 32.7996C36.2296 32.7404 36.275 32.6813 36.3196 32.6222C36.2802 32.6748 36.2362 32.7207 36.187 32.7602C36.2454 32.7142 36.3032 32.6682 36.3616 32.6222C36.3334 32.6419 36.3045 32.6616 36.2743 32.6813C36.0871 32.793 35.9361 32.9834 35.8783 33.1936C35.8211 33.4038 35.8467 33.6796 35.9649 33.8569C36.0838 34.0408 36.2598 34.205 36.4799 34.2576C36.7051 34.3035 36.9402 34.2904 37.1432 34.1656C37.5031 33.9554 37.7402 33.6271 37.882 33.2396C37.9391 33.082 37.9608 32.9112 37.9674 32.747C37.9727 32.6288 37.949 32.5106 37.9319 32.3924C37.9234 32.3333 37.9116 32.2807 37.8932 32.2282C37.7927 31.9392 37.5957 31.7093 37.2922 31.624C36.9882 31.5451 36.6795 31.6371 36.4536 31.8473C36.294 31.9983 36.1613 32.1691 36.0306 32.3464C35.9393 32.4646 35.8599 32.596 35.7929 32.7339C35.6996 32.9309 35.6143 33.1279 35.5551 33.3315C35.4928 33.5483 35.4632 33.7781 35.4415 34.0014C35.4415 34.159 35.4809 34.3035 35.5591 34.4349C35.6353 34.5662 35.7384 34.6647 35.8684 34.7435C36.1272 34.8946 36.4785 34.9077 36.7373 34.7435C37.0447 34.5531 37.3376 34.3167 37.5734 34.0408C37.8118 33.7584 38.0226 33.4563 38.1664 33.1214C38.2288 33.0163 38.263 32.9112 38.2682 32.7996C38.2938 32.6813 38.2886 32.5697 38.2524 32.458C38.1979 32.2545 38.0436 32.0377 37.8571 31.9392C37.6574 31.8341 37.4151 31.7816 37.1937 31.8538C36.996 31.9195 36.7636 32.0509 36.6788 32.2479Z" fill="#16A34A"/>
</svg>
