<svg width="76" height="58" viewBox="0 0 76 58" fill="none" xmlns="http://www.w3.org/2000/svg">
<path d="M54.2319 11.6772V43.9364C54.2319 44.421 53.7316 44.9526 53.1461 44.9526H3.08584C2.50035 44.9526 2 44.421 2 43.9364V11.6772C2 11.1926 2.50035 10.661 3.08584 10.661H53.1461C53.2933 10.661 53.4383 10.6891 53.5726 10.7428C53.7068 10.7966 53.8266 10.8745 53.926 10.9706C54.0253 11.0665 54.1022 11.1786 54.154 11.2995C54.2058 11.4203 54.2319 11.5486 54.2319 11.6772Z" fill="#16A34A" stroke="#1F1F1F" stroke-width="2"/>
<path d="M31.6192 46.9529L34.9633 55.0339H21.2686L24.6127 46.9529H31.6192Z" fill="white" stroke="#1F1F1F" stroke-width="2"/>
<path d="M55.2319 43.9364V11.6772C55.2319 11.4124 55.178 11.1503 55.0732 10.9056C54.9683 10.661 54.8147 10.4388 54.621 10.2515C54.4273 10.0643 54.1974 9.91581 53.9443 9.81449C53.6912 9.71316 53.42 9.66101 53.1461 9.66101H3.08584C1.98035 9.66101 1 10.6086 1 11.6772V43.9364C1 45.005 1.98035 45.9526 3.08584 45.9526H53.1461C54.2516 45.9526 55.2319 45.005 55.2319 43.9364Z" stroke="#1F1F1F" stroke-width="2" stroke-linecap="round" stroke-linejoin="round"/>
<path d="M23.9443 45.9529L19.7726 56.0339" stroke="#1F1F1F" stroke-width="2" stroke-linecap="round" stroke-linejoin="round"/>
<path d="M32.2878 45.9529L36.4595 56.0339" stroke="#1F1F1F" stroke-width="2" stroke-linecap="round" stroke-linejoin="round"/>
<path d="M15.601 56.0336H40.6311" stroke="#1F1F1F" stroke-width="2" stroke-linecap="round" stroke-linejoin="round"/>
<path d="M59.8412 45.315C59.7076 44.1019 57.8264 43.4515 58.0091 42.2443C58.0496 41.9762 58.1955 41.7345 58.2826 41.4772C58.4296 41.0444 58.3957 40.5348 58.105 40.1766C57.696 39.6728 56.8972 39.6095 56.2865 39.8565C55.6758 40.1039 54.7269 40.8195 54.2802 41.2919C53.6809 40.8061 52.6885 40.1326 51.9778 39.9125C51.2323 39.6824 50.6125 40.1668 50.8071 40.8992C50.9764 41.5347 51.5638 42.3858 51.3896 43.0197C51.3085 43.3149 51.0233 43.5067 50.7595 43.6747C50.3415 43.9407 49.9127 44.224 49.6542 44.6384C49.3958 45.0525 49.3576 45.6364 49.7001 45.9887C49.8787 46.1724 50.1324 46.2697 50.3843 46.3355C50.9618 46.4863 51.5764 46.5023 52.1612 46.3814C52.4655 46.3185 52.8381 46.2386 53.0435 46.4646C53.1703 46.6035 53.1754 46.8067 53.179 46.9919C53.1903 47.57 53.26 48.1733 53.59 48.6557C53.9202 49.1376 54.5796 49.4517 55.1344 49.2353C55.7443 48.997 55.9571 48.2878 56.1599 47.6824C56.3625 47.0774 56.7786 46.3921 57.4365 46.4068C57.7432 46.4134 58.0206 46.5799 58.3212 46.6413C59.099 46.8002 59.9255 46.0794 59.8412 45.315Z" fill="#F2A227"/>
<path d="M54.7388 41.746C54.9265 41.5497 55.133 41.3705 55.3455 41.1997C55.3936 41.1609 55.4424 41.1227 55.4919 41.0851C55.5289 41.0563 55.5669 41.0285 55.6041 41.0001C55.6792 40.9431 55.6108 41.0192 55.5844 41.0138C55.6128 41.0193 55.7552 40.894 55.7771 40.8789C55.8406 40.8357 55.9048 40.7935 55.9694 40.7523C56.0848 40.6794 56.2024 40.6091 56.3232 40.5449C56.3749 40.5172 56.4267 40.4906 56.4801 40.4657C56.507 40.4531 56.5366 40.4429 56.5628 40.4285C56.6056 40.4101 56.584 40.4184 56.4983 40.4529C56.5202 40.445 56.542 40.4371 56.564 40.4301C56.6304 40.4078 56.6978 40.3891 56.7663 40.3742C56.8045 40.3659 56.8432 40.3604 56.8816 40.3529C56.977 40.334 56.7228 40.3614 56.8762 40.3559C56.947 40.353 57.0163 40.3497 57.0868 40.3527C57.1119 40.3537 57.1849 40.3465 57.2028 40.361C57.1128 40.3479 57.0929 40.3458 57.1426 40.3542C57.1652 40.3582 57.1879 40.3622 57.2102 40.3674C57.2443 40.3748 57.4203 40.4055 57.4274 40.432C57.4287 40.4376 57.2726 40.3546 57.388 40.4195C57.4143 40.4338 57.4405 40.4472 57.4663 40.4621C57.4787 40.4698 57.4911 40.4776 57.5039 40.4854C57.562 40.5258 57.5534 40.5179 57.4776 40.4619C57.487 40.4612 57.5436 40.5202 57.5443 40.5207C57.5658 40.5418 57.5849 40.5642 57.606 40.5851C57.6951 40.6749 57.5408 40.4803 57.6232 40.6171C57.633 40.6338 57.6805 40.6968 57.6749 40.7135C57.6742 40.7145 57.6258 40.5638 57.6606 40.6847C57.6722 40.7244 57.7321 40.8568 57.7144 40.8969C57.7155 40.8947 57.7056 40.7406 57.7077 40.8649C57.708 40.902 57.7113 40.9387 57.7111 40.9758C57.7106 41.0127 57.7072 41.0497 57.7067 41.0867C57.7044 41.2162 57.7369 40.9572 57.7066 41.0943C57.6317 41.4334 57.4381 41.7342 57.3766 42.0761C57.3241 42.366 57.3293 42.6656 57.4293 42.947C57.6015 43.4304 57.9386 43.8191 58.3001 44.1837C58.4559 44.3408 58.6151 44.4948 58.7653 44.6572C58.8045 44.6995 58.8429 44.742 58.88 44.7857C58.9014 44.8103 59.0082 44.9447 58.9371 44.8517C58.8645 44.7566 58.9686 44.8963 58.9854 44.9209C59.0197 44.9704 59.0515 45.0212 59.0813 45.073C59.1052 45.1152 59.1259 45.1582 59.1478 45.2011C59.2006 45.3058 59.107 45.0766 59.1275 45.1538C59.134 45.1793 59.1458 45.2038 59.1533 45.2288C59.1683 45.2743 59.1776 45.3207 59.1897 45.3674C59.2098 45.4461 59.1592 45.4218 59.1846 45.3153C59.1781 45.3438 59.1909 45.4012 59.1907 45.4314C59.1904 45.4353 59.182 45.5 59.1872 45.5082C59.1918 45.4772 59.1969 45.4463 59.2014 45.4157C59.1976 45.4409 59.1927 45.4654 59.1868 45.4904C59.1778 45.5295 59.1352 45.6 59.1419 45.6364C59.155 45.6081 59.1678 45.5792 59.1809 45.5509C59.17 45.5742 59.1585 45.5973 59.1462 45.6198C59.134 45.6424 59.1212 45.6652 59.1075 45.6869C59.0937 45.709 59.0778 45.7298 59.0644 45.752C59.0014 45.8562 59.1707 45.6493 59.0592 45.7599C59.0168 45.8018 58.9764 45.8443 58.9312 45.883C58.9173 45.8951 58.8266 45.9838 58.9039 45.9072C58.9764 45.8354 58.894 45.911 58.872 45.9241C58.8208 45.9544 58.764 45.9752 58.7134 46.0053C58.6411 46.0481 58.8674 45.962 58.7391 45.9923C58.7007 46.0015 58.6636 46.0146 58.6245 46.0231C58.6139 46.0251 58.5598 46.0293 58.5471 46.0372C58.6304 45.9832 58.6707 46.0322 58.5784 46.0282C58.546 46.0264 58.5117 46.0266 58.4795 46.0273C58.3568 46.0289 58.5387 46.0269 58.5346 46.0371C58.5249 46.0639 58.0482 45.8887 58.0008 45.8733C57.5753 45.7351 57.1466 45.7441 56.7393 45.9271C56.4328 46.0648 56.1975 46.3057 56.0008 46.5645C55.8094 46.8166 55.6763 47.1097 55.5667 47.4025C55.472 47.6558 55.3705 47.9158 55.2896 48.1736C55.3462 47.994 55.2702 48.2083 55.2463 48.2527C55.216 48.3091 55.1837 48.3642 55.148 48.4176C55.1423 48.4262 55.0895 48.5044 55.0877 48.5035C55.0842 48.501 55.1982 48.3818 55.1145 48.4708C55.0955 48.4907 55.0772 48.5112 55.0575 48.5306C55.0383 48.5496 55.018 48.5684 54.9974 48.5863C54.9543 48.6208 54.9549 48.6214 54.9996 48.5889C55.0111 48.5807 55.0221 48.5727 55.0335 48.5649C55.0107 48.5806 54.9873 48.5953 54.9637 48.6096C54.9391 48.624 54.9141 48.6359 54.889 48.6494C54.7666 48.7147 54.9894 48.6261 54.9026 48.6441C54.8672 48.6512 54.8308 48.6621 54.796 48.6714C54.6952 48.699 54.839 48.6522 54.8354 48.6677C54.8345 48.6739 54.7388 48.6702 54.7268 48.6699C54.5873 48.6662 54.75 48.6644 54.7492 48.6791C54.7492 48.6791 54.6256 48.6534 54.6202 48.652C54.5919 48.6445 54.564 48.6338 54.5356 48.6267C54.3934 48.5901 54.6353 48.6794 54.5527 48.6357C54.4929 48.604 54.4326 48.5755 54.3753 48.5397C54.3662 48.5337 54.2416 48.4513 54.3315 48.5132C54.4198 48.5737 54.3038 48.4876 54.2939 48.4786C54.2561 48.4443 54.1462 48.3659 54.1394 48.3182C54.155 48.338 54.1706 48.3579 54.1861 48.3781C54.1678 48.3531 54.1505 48.3276 54.1337 48.3017C54.1164 48.2746 54.0996 48.2471 54.0838 48.2191C54.0675 48.1914 54.0522 48.1632 54.0378 48.1348C54.022 48.1036 53.9377 47.9808 54.0227 48.1102C53.9421 47.9876 53.9176 47.7897 53.8901 47.6489C53.8836 47.6174 53.8785 47.5854 53.8726 47.5536C53.8439 47.3981 53.8804 47.6476 53.8712 47.5484C53.8644 47.4756 53.8558 47.4032 53.8506 47.3305C53.8392 47.1744 53.8409 47.0176 53.8312 46.8615C53.8002 46.3579 53.5629 45.8837 53.0252 45.7323C52.6262 45.6197 52.2222 45.7266 51.8273 45.7985C51.6512 45.831 51.9107 45.7941 51.8017 45.8034C51.7551 45.8075 51.7085 45.8128 51.662 45.8166C51.5781 45.8229 51.4942 45.8259 51.4102 45.827C51.3258 45.8275 51.2416 45.826 51.1579 45.8211C51.1111 45.8187 51.0645 45.8152 51.0182 45.811C50.9901 45.8087 50.9622 45.8057 50.9343 45.8027C51.0068 45.8131 51.0188 45.8147 50.97 45.8074C50.797 45.7779 50.626 45.7461 50.4578 45.6953C50.4244 45.6852 50.3916 45.6733 50.3582 45.6632C50.2004 45.6168 50.4367 45.7111 50.3509 45.6609C50.3148 45.6396 50.2751 45.6197 50.2371 45.6007C50.1077 45.5353 50.3089 45.6823 50.2068 45.581C50.2155 45.5902 50.1401 45.5197 50.142 45.5158C50.159 45.5381 50.176 45.5603 50.1931 45.5826C50.1775 45.5611 50.1629 45.5391 50.1494 45.5162C50.1442 45.5067 50.1158 45.4468 50.113 45.4464C50.1565 45.4532 50.1534 45.5741 50.1337 45.4866C50.1316 45.4776 50.1084 45.3731 50.1046 45.3721C50.1146 45.3747 50.114 45.5322 50.1115 45.4166C50.1108 45.3898 50.1084 45.363 50.1085 45.3364C50.1082 45.3094 50.1092 45.2826 50.1106 45.2556C50.1164 45.2003 50.1152 45.2016 50.1076 45.2588C50.068 45.3583 50.1114 45.2457 50.1167 45.2225C50.1227 45.1955 50.1294 45.1691 50.1373 45.143C50.1467 45.11 50.1603 45.0782 50.1697 45.0452C50.1955 44.959 50.0894 45.1911 50.1584 45.07C50.1912 45.0122 50.222 44.9552 50.2598 44.8999C50.2833 44.8659 50.3068 44.8302 50.3349 44.799C50.2606 44.8812 50.3188 44.8217 50.3619 44.7771C50.4683 44.6672 50.5862 44.5708 50.7066 44.4759C50.8368 44.3731 50.6316 44.5241 50.7182 44.4673C50.7541 44.4438 50.7889 44.4184 50.8245 44.3944C50.896 44.3465 50.9685 44.3001 51.0409 44.2537C51.378 44.0375 51.7448 43.8022 51.9216 43.4345C52.098 43.0667 52.1034 42.6861 52.0198 42.2943C51.9475 41.9567 51.7982 41.636 51.6614 41.3199C51.6371 41.2631 51.6089 41.2068 51.5875 41.1488C51.6474 41.3118 51.563 41.0886 51.5476 41.0491C51.5217 40.9833 51.4971 40.9172 51.4757 40.8502C51.4595 40.8004 51.4538 40.6884 51.4221 40.649C51.4684 40.706 51.4319 40.764 51.4283 40.6667C51.4278 40.6496 51.439 40.5781 51.4301 40.5684C51.439 40.5781 51.3924 40.7285 51.4227 40.6249C51.4301 40.5991 51.445 40.5644 51.4471 40.5379C51.4536 40.4623 51.3617 40.6812 51.428 40.5816C51.4404 40.5628 51.4536 40.5412 51.4645 40.522C51.5222 40.4204 51.3725 40.5978 51.4352 40.5577C51.4546 40.5451 51.5581 40.4659 51.4593 40.5271C51.3545 40.5923 51.5281 40.5038 51.5445 40.4856C51.4764 40.5594 51.4216 40.5206 51.5105 40.504C51.5295 40.5002 51.5904 40.4942 51.6029 40.4826C51.5534 40.5263 51.4686 40.49 51.5513 40.4911C51.5853 40.4917 51.6194 40.4891 51.6536 40.4905C51.7303 40.4936 51.7417 40.5312 51.6275 40.4827C51.6632 40.4979 51.7207 40.5011 51.759 40.5113C51.8243 40.5294 51.8884 40.5517 51.9518 40.5751C51.9737 40.5833 52.0067 40.6021 52.0285 40.6047C51.9147 40.5898 51.9256 40.5604 51.9841 40.5877C52.1294 40.6557 52.2732 40.7246 52.4141 40.8012C52.6936 40.9541 52.9634 41.1239 53.2255 41.3032C53.3423 41.3834 53.4582 41.4654 53.5722 41.5498C53.6025 41.5723 53.6324 41.5948 53.6627 41.6173C53.7402 41.6746 53.536 41.5188 53.6499 41.6079C53.7038 41.65 53.7572 41.6924 53.8105 41.7352C54.0736 41.9475 54.4793 42.0131 54.7388 41.746C54.9617 41.5168 55.0314 41.0759 54.7499 40.849C54.2112 40.414 53.6392 40.0054 53.0238 39.6773C52.3584 39.3226 51.5942 39.0327 50.8636 39.3977C50.5228 39.5682 50.2612 39.8952 50.1657 40.2527C50.0675 40.6183 50.1308 40.9874 50.2632 41.3353C50.3307 41.5125 50.4074 41.6868 50.483 41.8609C50.4951 41.8899 50.5079 41.9183 50.5202 41.947C50.5264 41.9615 50.5327 41.9761 50.5387 41.9902C50.5667 42.0544 50.5635 42.048 50.5306 41.9703C50.5835 42.0291 50.6085 42.161 50.6344 42.2324C50.6869 42.3746 50.7241 42.5166 50.7599 42.6632C50.7836 42.7614 50.7484 42.623 50.7565 42.6252C50.7644 42.6269 50.7649 42.7379 50.7649 42.748C50.7653 42.7743 50.763 42.8015 50.7635 42.8278C50.7664 42.9507 50.8067 42.6833 50.7616 42.8329C50.7307 42.9339 50.7893 42.885 50.7728 42.827C50.7722 42.8249 50.691 42.9753 50.7463 42.8808C50.7942 42.7989 50.7154 42.9117 50.7027 42.924C50.6666 42.9584 50.628 42.9888 50.59 43.021C50.5645 43.0433 50.5116 43.1033 50.6027 43.0131C50.5697 43.0455 50.5162 43.0711 50.4773 43.0962C50.3981 43.1473 50.319 43.1968 50.2405 43.2485C49.9173 43.4611 49.5945 43.6884 49.3437 43.9808C48.8342 44.5767 48.5706 45.4734 49.029 46.1769C49.5173 46.925 50.5883 47.11 51.4387 47.096C51.6633 47.0921 51.8877 47.0667 52.1098 47.0335C52.2004 47.0201 52.2895 47.0027 52.3793 46.9847C52.4209 46.9764 52.4625 46.9677 52.5042 46.9603C52.5294 46.9553 52.5548 46.9512 52.5805 46.9472C52.4973 46.9569 52.4919 46.9582 52.5647 46.9514C52.5973 46.9512 52.6321 46.952 52.6644 46.9497C52.8155 46.9403 52.5398 46.9101 52.6769 46.9558C52.6133 46.9345 52.5853 46.9158 52.5403 46.8748C52.632 46.9584 52.4944 46.8162 52.4953 46.7721C52.4947 46.7873 52.5128 46.8352 52.5189 46.8533C52.5628 46.9859 52.5191 46.7208 52.5185 46.8621C52.5179 46.9534 52.5232 47.046 52.5268 47.1372C52.5568 47.9032 52.7163 48.7066 53.2744 49.2871C53.8478 49.8841 54.7677 50.1256 55.5377 49.7525C56.2236 49.4199 56.5161 48.6751 56.7379 48.0144C56.7817 47.8841 56.8253 47.7543 56.8771 47.6266C56.9315 47.4911 56.8064 47.7637 56.8751 47.6337C56.8875 47.6092 56.8991 47.5845 56.9115 47.56C56.9493 47.4874 56.9905 47.4158 57.0351 47.347C57.0569 47.3129 57.0816 47.2804 57.1044 47.247C57.146 47.1843 57.142 47.2497 57.0734 47.2814C57.1187 47.26 57.1688 47.1762 57.2084 47.1396C57.2286 47.1212 57.2849 47.089 57.2965 47.0659C57.2889 47.0808 57.1643 47.1464 57.2554 47.0989C57.2886 47.0819 57.3214 47.0633 57.3541 47.0454C57.4558 46.9898 57.2159 47.0779 57.3382 47.054C57.3669 47.0484 57.4032 47.0427 57.4305 47.033C57.5001 47.0084 57.2724 47.0261 57.397 47.0411C57.4102 47.043 57.5551 47.0553 57.4629 47.0408C57.3619 47.0249 57.5428 47.0633 57.5428 47.0633C57.7469 47.1184 57.9388 47.2118 58.1471 47.2531C58.5639 47.3357 58.9581 47.2838 59.3439 47.1164C60.0108 46.8271 60.4984 46.1411 60.5038 45.4308C60.5083 44.8352 60.1816 44.313 59.7973 43.8734C59.6365 43.6896 59.4611 43.5193 59.2889 43.3465C59.2074 43.2652 59.1265 43.1832 59.0479 43.099C59.0096 43.0578 58.9718 43.0163 58.9351 42.9739C58.8937 42.9262 58.7766 42.7443 58.891 42.9255C58.8349 42.8368 58.7701 42.7555 58.7203 42.6625C58.713 42.6484 58.6931 42.5879 58.6798 42.5807C58.7353 42.6112 58.7306 42.7212 58.7085 42.648C58.691 42.591 58.6729 42.5346 58.6567 42.4771C58.6135 42.3241 58.6602 42.6203 58.6546 42.4624C58.6532 42.4104 58.6552 42.3594 58.6582 42.3078C58.6645 42.195 58.603 42.4652 58.6653 42.2992C58.6787 42.2637 58.6866 42.2243 58.6989 42.1885C58.7359 42.0774 58.7849 41.9711 58.8303 41.8631C59.1391 41.1299 59.0929 40.2185 58.4838 39.6341C57.902 39.0768 56.9606 38.9477 56.2039 39.2111C55.5515 39.4377 54.9763 39.8546 54.4466 40.2771C54.2275 40.4521 54.0146 40.6361 53.8216 40.8379C53.5892 41.0815 53.5431 41.4924 53.8105 41.7352C54.0586 41.9604 54.49 42.0063 54.7388 41.746Z" fill="#1F1F1F"/>
<path d="M41.0627 27.8707C40.0203 26.8734 39.0399 25.9303 38.0539 24.9951C37.6915 24.6507 37.3087 24.3292 36.9491 23.9813C36.7809 23.8188 36.6319 23.6355 36.5053 23.4354C36.1599 22.8865 36.1776 22.2937 36.5289 21.9229C36.722 21.7331 36.9749 21.6253 37.2389 21.6207C37.5029 21.6161 37.7592 21.7148 37.9582 21.8978C39.0603 22.8068 40.1508 23.7338 41.2104 24.6971C41.8751 25.3018 42.4735 25.9874 43.1048 26.6331C43.9891 27.5379 44.0528 28.302 43.1371 29.1807C41.6683 30.5894 40.1292 31.9153 38.6132 33.2696C38.2704 33.5869 37.9071 33.8786 37.526 34.1428C36.903 34.5583 36.2289 34.4615 35.8631 33.9526C35.5006 33.4475 35.6231 32.7512 36.21 32.2298C37.4807 31.1012 38.769 29.9947 40.043 28.8705C40.3621 28.5871 40.6541 28.2731 41.0627 27.8707Z" fill="white"/>
<path d="M17.3124 27.9931C18.9386 28.9405 20.4414 29.8141 21.942 30.6911C22.2953 30.8748 22.6344 31.0845 22.9567 31.3187C23.4403 31.7096 23.5565 32.1827 23.364 32.6712C23.1473 33.2215 22.7077 33.4888 22.0593 33.4039C21.7724 33.3666 21.4948 33.2765 21.2404 33.1382C19.2131 32.0086 17.1798 30.8901 15.1801 29.7135C14.1326 29.0973 14.0294 28.179 14.8072 27.2412C14.9687 27.0466 15.1654 26.8817 15.3441 26.7012C17.1324 24.8951 18.9279 23.0966 20.7041 21.2786C21.3292 20.6393 21.8453 20.4598 22.2832 20.8223C22.7273 21.19 22.7595 21.7797 22.1838 22.4777C20.9821 23.9342 19.7126 25.3344 18.4656 26.7527C18.1323 27.131 17.7789 27.4923 17.3124 27.9931Z" fill="white"/>
<path d="M32.3812 19.722C33.2791 19.5272 33.6231 19.7343 33.6243 20.566C33.6079 21.2096 33.5329 21.85 33.4008 22.4784C32.9168 25.1225 32.0498 27.6451 31.1247 30.147C30.7672 31.1139 30.434 32.0946 30.0037 33.0257C29.7728 33.4927 29.4479 33.902 29.0516 34.2253C28.7155 34.5074 28.253 34.4348 27.9087 34.1356C27.7414 34.0054 27.6191 33.8217 27.5602 33.6124C27.5014 33.4031 27.5091 33.1796 27.5823 32.9753C27.7477 32.5065 27.9419 32.0491 28.1637 31.6067C29.7752 28.3212 31.1542 24.9428 31.9554 21.3316C32.0556 20.8791 32.1487 20.4245 32.2511 19.9723C32.286 19.8843 32.3295 19.8004 32.3812 19.722Z" fill="white"/>
</svg>
